<?xml version="1.0" standalone="no"?>
<!DOCTYPE svg PUBLIC "-//W3C//DTD SVG 1.1//EN" "http://www.w3.org/Graphics/SVG/1.1/DTD/svg11.dtd" >
<svg xmlns="http://www.w3.org/2000/svg" xmlns:xlink="http://www.w3.org/1999/xlink" version="1.1">
<metadata>
Created by FontForge 20170731 at Tue Nov  8 10:20:44 2022
 By Aleksey,,,
Copyright (c) 2013 Schick Toikka. All rights reserved. Noe Text is a trademark of Schick Toikka. Unauthorised copying or modification of any of its data is illegal.
</metadata>
<defs>
<font id="NoeText-Regular" horiz-adv-x="1228" >
  <font-face 
    font-family="Noe Text Regular"
    font-weight="300"
    font-stretch="normal"
    units-per-em="2048"
    panose-1="2 10 4 0 9 4 0 0 0 2"
    ascent="1536"
    descent="-512"
    x-height="1001"
    cap-height="1440"
    bbox="-430 -563 2404 2228"
    underline-thickness="102"
    underline-position="-307"
    unicode-range="U+0020-FB02"
  />
<missing-glyph horiz-adv-x="1404" 
d="M205 -512v2048h995v-2048h-995zM750 518l360 -862v1726zM655 518l-360 864v-1726zM702 406l-348 -832h695zM360 1450l342 -819l340 819h-682z" />
    <glyph glyph-name="fi" unicode="fi" horiz-adv-x="1386" 
d="M258 158v745h-152v98h152v93q0 98 26 175.5t69.5 126.5t105.5 81.5t129 45.5t145 13q148 0 279 -41l-58 -278h-24l-125 219q-11 19 -25 25.5t-49 6.5q-139 0 -214 -94.5t-75 -275.5v-97h279v-98h-279v-729q0 -20 5 -27.5t22 -15.5l238 -106v-25h-625v25l154 92
q14 9 18 16.5t4 24.5zM983 158v637q0 25 -16 41l-160 141v24h360v-843q0 -17 4.5 -24.5t18.5 -16.5l153 -92v-25h-536v25l154 92q14 9 18 16.5t4 24.5z" />
    <glyph glyph-name="fl" unicode="fl" horiz-adv-x="1351" 
d="M106 1001h152v89q0 115 33.5 203t92 139.5t131.5 77.5t159 26q144 0 235 -84l221 84v-1378q0 -17 4.5 -24.5t18.5 -16.5l154 -92v-25h-537v25l154 92q14 9 18 16.5t4 24.5v1145q-30 56 -76 92t-90 48.5t-90 12.5q-114 0 -181 -90.5t-67 -271.5v-93h279v-98h-279v-729
q0 -20 5 -27.5t22 -15.5l217 -106v-25h-604v25l154 92q14 9 18 16.5t4 24.5v745h-152v98z" />
    <glyph glyph-name="f_b" unicode="fb" horiz-adv-x="1871" 
d="M1055 82l-140 -107h-24v1328q-78 155 -205 155q-108 0 -176 -93t-68 -271v-93h279v-98h-279v-729q0 -20 5 -27.5t22 -15.5l238 -106v-25h-625v25l154 92q14 9 18 16.5t4 24.5v745h-152v98h152v89q0 113 34 201.5t90.5 140.5t122.5 78t136 26q136 0 213 -84l221 84v-664
q121 154 293 154q181 0 299.5 -137t118.5 -365q0 -132 -42.5 -239.5t-110.5 -173.5t-149 -101t-163 -35q-77 0 -148.5 29t-117.5 78zM1307 909q-146 0 -232 -143v-582q24 -54 81 -86t124 -32q128 0 215.5 116t87.5 328q0 191 -74 295t-202 104z" />
    <glyph glyph-name="f_k" unicode="fk" horiz-adv-x="1824" 
d="M946 158v1145q-30 56 -76.5 92t-90.5 48.5t-91 12.5q-112 0 -179 -90.5t-67 -271.5v-93h279v-98h-279v-729q0 -20 5 -27.5t22 -15.5l217 -106v-25h-604v25l154 92q14 9 18 16.5t4 24.5v745h-152v98h152v89q0 115 33.5 203t91 139.5t129 77.5t154.5 26q67 0 136 -24.5
t107 -59.5l221 84v-979l388 295q24 18 0 33l-134 92v24h437v-24l-471 -359q-15 -13 -4 -30l315 -455q20 -29 43 -41l127 -67v-25h-299l-330 477q-25 35 -37.5 45t-34.5 10v-374q0 -17 4.5 -24.5t18.5 -16.5l154 -92v-25h-537v25l154 92q14 9 18 16.5t4 24.5z" />
    <glyph glyph-name="f_h" unicode="fh" horiz-adv-x="1972" 
d="M1130 1536v-705q63 97 136 146t180 49q159 0 246.5 -103.5t87.5 -308.5q0 -136 -4 -456q0 -17 4 -24.5t18 -16.5l154 -92v-25h-537v25l152 92q17 10 20.5 16.5t3.5 24.5q2 68 2 424q0 323 -209 323q-157 0 -254 -180v-567q0 -17 4.5 -24.5t18.5 -16.5l154 -92v-25h-537
v25l154 92q14 9 18 16.5t4 24.5v1145q-30 56 -76.5 92t-90.5 48.5t-91 12.5q-112 0 -179 -90.5t-67 -271.5v-93h279v-98h-279v-729q0 -20 5 -27.5t22 -15.5l217 -106v-25h-604v25l154 92q14 9 18 16.5t4 24.5v745h-152v98h152v89q0 115 33.5 203t91 139.5t129 77.5t154.5 26
q67 0 136 -24.5t107 -59.5z" />
    <glyph glyph-name="f_j" unicode="fj" horiz-adv-x="1300" 
d="M82 0v25l154 92q14 9 18 16.5t4 24.5v745h-152v98h152v93q0 98 26 175.5t69.5 126.5t105.5 81.5t129 45.5t145 13q148 0 279 -41l-58 -278h-24l-125 219q-11 19 -25 25.5t-49 6.5q-139 0 -214 -94.5t-75 -275.5v-97h279v-98h-279v-729q0 -20 5 -27.5t22 -15.5l238 -106
v-25h-625zM1167 27q0 -257 -124.5 -393t-331.5 -136l-4 31q130 23 203 149.5t73 329.5v787q0 25 -16 41l-160 141v24h360v-974z" />
    <glyph glyph-name=".notdef" horiz-adv-x="1404" 
d="M205 -512v2048h995v-2048h-995zM750 518l360 -862v1726zM655 518l-360 864v-1726zM702 406l-348 -832h695zM360 1450l342 -819l340 819h-682z" />
    <glyph glyph-name=".null" horiz-adv-x="0" 
 />
    <glyph glyph-name="nonmarkingreturn" horiz-adv-x="682" 
 />
    <glyph glyph-name="space" unicode=" " horiz-adv-x="471" 
 />
    <glyph glyph-name="exclam" unicode="!" horiz-adv-x="585" 
d="M305 377h-24l-129 1063h284zM150 125q0 60 39.5 101.5t99.5 41.5t99.5 -41.5t39.5 -101.5t-39.5 -101.5t-99.5 -41.5t-99.5 41.5t-39.5 101.5z" />
    <glyph glyph-name="quotedbl" unicode="&#x22;" horiz-adv-x="800" 
d="M223 1536q51 0 80 -32t29 -81q0 -27 -8 -59l-91 -352h-22l-90 352q-8 32 -8 59q0 49 29 81t81 32zM580 1536q51 0 79.5 -32t28.5 -81q0 -27 -8 -59l-90 -352h-23l-90 352q-8 32 -8 59q0 49 29.5 81t81.5 32z" />
    <glyph glyph-name="numbersign" unicode="#" 
d="M1116 371h-272v-371h-90v371h-279v-371h-90v371h-272v90h272v420h-272v90h272v366h90v-366h279v366h90v-366h272v-90h-272v-420h272v-90zM475 881v-420h279v420h-279z" />
    <glyph glyph-name="dollar" unicode="$" horiz-adv-x="1148" 
d="M539 -31q-229 0 -416 66v407h27l178 -350q7 -14 14 -19t23 -10q63 -16 174 -16v535l-90 28q-61 19 -113.5 49t-97.5 74.5t-71 108t-26 139.5q0 154 103.5 254.5t294.5 118.5v153h82v-149q150 0 321 -39v-385h-27l-167 315q-13 23 -52 27q-69 6 -75 6v-522l86 -25
q75 -22 130.5 -49.5t103 -69t72.5 -101.5t25 -136q0 -164 -109.5 -272.5t-307.5 -131.5v-155h-82v149zM846 311q0 99 -52 153.5t-173 92.5v-502q225 37 225 256zM309 1038q0 -182 230 -254v494q-112 -15 -171 -79t-59 -161z" />
    <glyph glyph-name="percent" unicode="%" horiz-adv-x="1640" 
d="M387 1395q-135 0 -135 -322q0 -317 135 -317q137 0 137 315q0 324 -137 324zM387 1456q143 0 228 -97.5t85 -287.5q0 -191 -82.5 -285t-230.5 -94q-143 0 -227 95t-84 284q0 187 85 286t226 99zM1186 686q-135 0 -135 -321q0 -318 135 -318q137 0 137 315q0 324 -137 324
zM1186 748q143 0 228 -98t85 -288q0 -191 -82.5 -284.5t-230.5 -93.5q-143 0 -227.5 94.5t-84.5 283.5q0 187 85.5 286.5t226.5 99.5zM1303 1425l-922 -1456l-74 47l922 1457z" />
    <glyph glyph-name="ampersand" unicode="&#x26;" horiz-adv-x="1542" 
d="M496 -25q-174 0 -287 106t-113 259q0 258 316 397q-146 174 -146 357q0 158 101.5 257t267.5 99q150 0 242 -84.5t92 -212.5q0 -117 -84.5 -215.5t-255.5 -165.5l356 -405q82 116 154 270q13 28 13.5 39.5t-13.5 25.5l-162 121v25h461v-25l-162 -123q-21 -18 -27.5 -25
t-13.5 -20q-104 -210 -199 -348q77 -93 135.5 -132.5t114.5 -39.5q87 0 146.5 68t60.5 174h25q4 -40 4 -74q0 -153 -79.5 -240.5t-213.5 -87.5q-89 0 -162.5 48t-155.5 147q-185 -195 -415 -195zM860 227l-403 461q-183 -115 -183 -303q0 -130 84 -213.5t207 -83.5
q81 0 149 32.5t146 106.5zM586 821q221 121 221 332q0 102 -50.5 159.5t-127.5 57.5q-87 0 -142 -63.5t-55 -161.5q0 -162 154 -324z" />
    <glyph glyph-name="quotesingle" unicode="'" horiz-adv-x="444" 
d="M223 1536q51 0 80 -32t29 -81q0 -27 -8 -59l-91 -352h-22l-90 352q-8 32 -8 59q0 49 29 81t81 32z" />
    <glyph glyph-name="parenleft" unicode="(" horiz-adv-x="770" 
d="M354 625q0 -619 328 -906l-16 -26q-240 111 -366 353.5t-126 578.5q0 335 126 577.5t366 353.5l16 -26q-328 -287 -328 -905z" />
    <glyph glyph-name="parenright" unicode=")" horiz-adv-x="770" 
d="M416 625q0 618 -328 905l16 26q240 -111 366 -353.5t126 -577.5q0 -336 -126 -578.5t-366 -353.5l-16 26q328 287 328 906z" />
    <glyph glyph-name="asterisk" unicode="*" horiz-adv-x="899" 
d="M762 778l-170 -125l-143 344l-142 -344l-170 123l281 240l-367 31l66 198l315 -192l-86 360h209l-84 -360l311 192l66 -201l-365 -28z" />
    <glyph glyph-name="plus" unicode="+" 
d="M561 45v399h-397v103h397v399h107v-399h397v-103h-397v-399h-107z" />
    <glyph glyph-name="comma" unicode="," horiz-adv-x="552" 
d="M426 72q0 -133 -86.5 -238.5t-220.5 -134.5l-10 20q180 99 180 250q0 22 -6 30t-25 13q-57 14 -86 49t-29 80q0 54 36 90.5t93 36.5q66 0 110 -49.5t44 -146.5z" />
    <glyph glyph-name="hyphen" unicode="-" horiz-adv-x="819" 
d="M123 440v131h573v-131h-573z" />
    <glyph glyph-name="period" unicode="." horiz-adv-x="552" 
d="M137 125q0 60 39.5 101.5t99.5 41.5t100 -41.5t40 -101.5t-40 -101.5t-100 -41.5t-99.5 41.5t-39.5 101.5z" />
    <glyph glyph-name="slash" unicode="/" horiz-adv-x="798" 
d="M754 1507l-611 -1814l-98 28l610 1815z" />
    <glyph glyph-name="zero" unicode="0" horiz-adv-x="1196" 
d="M598 -25q-103 0 -194.5 36.5t-161 104t-110 170t-40.5 226.5q0 125 41 230t111 173.5t161 106t193 37.5q103 0 194.5 -36.5t161 -104t110 -170t40.5 -226.5q0 -125 -41 -230t-111 -173.5t-161 -106t-193 -37.5zM598 57q138 0 216.5 125t78.5 326q0 214 -77.5 341.5
t-217.5 127.5q-138 0 -216.5 -125t-78.5 -326q0 -214 77.5 -341.5t217.5 -127.5z" />
    <glyph glyph-name="one" unicode="1" horiz-adv-x="843" 
d="M379 158v669q0 18 -5.5 25t-23.5 12l-207 66v24l420 105v-901q0 -18 5 -26t22 -15l188 -92v-25h-635v25l209 92q17 7 22 15t5 26z" />
    <glyph glyph-name="two" unicode="2" horiz-adv-x="1046" 
d="M936 0h-854v31q46 44 146.5 133t146.5 131q69 64 119.5 118t98.5 117t73.5 124.5t25.5 117.5q0 95 -57.5 150t-161.5 55q-41 0 -78 -6q-18 -3 -24 -7.5t-15 -21.5l-127 -237h-24l-70 274q180 80 363 80q192 0 295.5 -86.5t103.5 -216.5q0 -63 -27 -125.5t-76.5 -118.5
t-104.5 -104.5t-128 -96.5t-127.5 -81.5t-121.5 -71.5q-7 -4 -11 -6h457q35 0 44 4t27 30l111 154h25z" />
    <glyph glyph-name="three" unicode="3" horiz-adv-x="960" 
d="M29 -324l-4 43q118 20 224 57t196 91.5t143 132t53 168.5q0 109 -74.5 164t-191.5 55q-44 0 -92 -10v45q62 13 117 39t103.5 67t76.5 102.5t28 135.5q0 103 -62 157t-165 54q-42 0 -72 -6q-15 -3 -22 -8t-15 -21l-127 -237h-24l-70 274q174 80 350 80q195 0 300.5 -81
t105.5 -210q0 -109 -76.5 -190.5t-195.5 -122.5q54 0 108 -17.5t100.5 -50.5t75.5 -89t29 -126q0 -151 -108.5 -260.5t-282.5 -169.5q-208 -70 -369 -70q-31 0 -59 4z" />
    <glyph glyph-name="four" unicode="4" horiz-adv-x="1046" 
d="M795 -303h-174v362h-592v25l585 950h181v-882h190v-93h-190v-362zM182 152h439v720z" />
    <glyph glyph-name="five" unicode="5" horiz-adv-x="983" 
d="M471 -258q-168 -59 -362 -70q-42 0 -60 4l-4 43q172 25 311.5 86.5t227.5 161t88 219.5q0 121 -75.5 182.5t-193.5 61.5q-131 0 -215 -59h-24l12 657q88 -2 457 -2q55 0 78 12t51 49l49 60h25l-17 -178q-6 -61 -29 -84t-79 -23q-283 0 -439 2l-10 -397q36 25 106 46.5
t148 21.5q164 0 262.5 -90.5t98.5 -241.5q0 -160 -104 -276.5t-302 -184.5z" />
    <glyph glyph-name="six" unicode="6" horiz-adv-x="1114" 
d="M575 -27q-218 0 -345.5 158t-127.5 408q0 147 44 277.5t122 228t182 169t227.5 108t254.5 36.5q31 0 59 -4l4 -43q-149 -25 -273.5 -84.5t-220 -153t-149 -229.5t-53.5 -303q0 -219 79 -352.5t200 -133.5q101 0 170 95t69 258q0 161 -72 247t-186 86q-79 0 -147 -51
l-17 21q105 127 269 127q71 0 134.5 -27t114 -77t80 -129.5t29.5 -176.5q0 -198 -127.5 -326.5t-319.5 -128.5z" />
    <glyph glyph-name="seven" unicode="7" horiz-adv-x="956" 
d="M449 -303h-205v24q137 333 286.5 670t219.5 479h-480q-31 0 -39.5 -4t-25.5 -28l-119 -148h-25l31 344h834v-24l-90 -117q-24 -30 -37 -68q-107 -296 -350 -1128z" />
    <glyph glyph-name="eight" unicode="8" horiz-adv-x="1091" 
d="M543 -25q-119 0 -220 42t-161 119t-60 171q0 62 27 117.5t74.5 98.5t101 75t117.5 59l-78 45q-84 49 -138 131.5t-54 184.5q0 151 115 244.5t280 93.5q158 0 266.5 -86.5t108.5 -220.5q0 -114 -81 -198.5t-198 -121.5l90 -51q56 -32 95 -60.5t77.5 -69.5t58 -92.5
t19.5 -113.5q0 -157 -121.5 -262t-318.5 -105zM616 543l-147 86q-188 -121 -188 -307q0 -118 73 -193.5t187 -75.5t186 72t72 172q0 70 -43 129.5t-140 116.5zM317 1059q0 -142 170 -240l109 -63q160 113 160 284q0 112 -62 174t-153 62q-93 0 -158.5 -60.5t-65.5 -156.5z
" />
    <glyph glyph-name="nine" unicode="9" horiz-adv-x="1114" 
d="M539 1059q145 0 253.5 -73.5t164 -200.5t55.5 -291q0 -147 -44 -277.5t-122 -228.5t-182 -169.5t-227.5 -108t-254.5 -36.5q-31 0 -59 4l-4 43q149 25 273.5 85t220 153t149 229.5t53.5 303.5q0 219 -78.5 352t-199.5 133q-101 0 -170.5 -94.5t-69.5 -257.5
q0 -161 72 -247.5t186 -86.5q79 0 147 51l17 -20q-105 -127 -268 -127q-71 0 -135 27t-114 76.5t-80 129t-30 176.5q0 198 127.5 326.5t319.5 128.5z" />
    <glyph glyph-name="colon" unicode=":" horiz-adv-x="585" 
d="M154 125q0 60 39.5 101.5t99.5 41.5t99.5 -41.5t39.5 -101.5t-39.5 -101.5t-99.5 -41.5t-99.5 41.5t-39.5 101.5zM154 766q0 60 39.5 101.5t99.5 41.5t99.5 -41.5t39.5 -101.5t-39.5 -101.5t-99.5 -41.5t-99.5 41.5t-39.5 101.5z" />
    <glyph glyph-name="semicolon" unicode=";" horiz-adv-x="585" 
d="M442 72q0 -133 -86.5 -238.5t-220.5 -134.5l-10 20q180 99 180 250q0 22 -6 30t-25 13q-57 14 -85.5 49t-28.5 80q0 54 36 90.5t93 36.5q66 0 109.5 -49.5t43.5 -146.5zM154 766q0 60 39.5 101.5t99.5 41.5t99.5 -41.5t39.5 -101.5t-39.5 -101.5t-99.5 -41.5t-99.5 41.5
t-39.5 101.5z" />
    <glyph glyph-name="less" unicode="&#x3c;" 
d="M975 115l-811 370v25l811 371l37 -95l-629 -286v-4l629 -287z" />
    <glyph glyph-name="equal" unicode="=" 
d="M1065 627h-901v102h901v-102zM1065 268h-901v103h901v-103z" />
    <glyph glyph-name="greater" unicode="&#x3e;" 
d="M254 115l-37 94l629 287v4l-629 286l37 95l811 -371v-25z" />
    <glyph glyph-name="question" unicode="?" horiz-adv-x="860" 
d="M389 440h-24q-48 67 -48 127q0 100 123 217l99 93q55 54 83.5 112t28.5 135q0 115 -70.5 191t-193.5 76q-39 0 -76 -9q-19 -6 -26.5 -13t-18.5 -28l-114 -233h-25l-98 266q170 96 374 96q195 0 318 -100t123 -260q0 -163 -142 -295l-198 -178q-131 -115 -115 -197z
M381 -18q-60 0 -99.5 41.5t-39.5 101.5t39.5 101.5t99.5 41.5t99.5 -41.5t39.5 -101.5t-39.5 -101.5t-99.5 -41.5z" />
    <glyph glyph-name="at" unicode="@" horiz-adv-x="2138" 
d="M897 94q57 0 118.5 60t117.5 168q58 113 96.5 222.5t81.5 282.5q-9 111 -113 111q-63 0 -134.5 -53.5t-131 -140.5t-98.5 -209.5t-39 -247.5q0 -193 102 -193zM1530 1022l-164 -660q-16 -69 -16 -147q0 -71 32.5 -117.5t96.5 -46.5q63 0 127 47.5t114.5 127.5t82.5 194.5
t32 238.5q0 314 -184.5 498t-485.5 184q-174 0 -332.5 -76t-273.5 -205t-183.5 -309t-68.5 -378q0 -184 61.5 -331t167.5 -239.5t242 -141t291 -48.5q278 0 481 145l17 -18q-85 -110 -228.5 -173t-332.5 -63q-182 0 -339.5 57.5t-277 165t-188 273.5t-68.5 371
q0 226 83 423.5t225 334.5t335.5 215.5t409.5 78.5q239 0 425.5 -92t290 -260t103.5 -385q0 -150 -50.5 -284.5t-131 -226t-181 -145t-200.5 -53.5q-136 0 -205 86t-37 267l-10 4q-70 -165 -162.5 -261t-204.5 -96q-95 0 -153 81t-58 231q0 122 35.5 238t95 204.5t133.5 156
t154 103t154 35.5q68 0 110.5 -32t53.5 -89l159 117h23z" />
    <glyph glyph-name="A" unicode="A" horiz-adv-x="1406" 
d="M1034 168l-104 274h-537l-90 -243q-8 -20 -4 -30.5t25 -23.5l180 -116v-29h-516v29l166 110q22 15 30.5 24t16.5 32l381 1024q8 20 7.5 31t-9.5 28l-78 141v21h254l491 -1276q9 -24 15 -31.5t24 -19.5l127 -84v-29h-565v29l176 102q12 6 14 13t-4 24zM657 1163l-235 -639
h477z" />
    <glyph glyph-name="B" unicode="B" horiz-adv-x="1312" 
d="M694 0h-631v29l181 98q14 8 18 15.5t4 25.5v1104q0 18 -4 25.5t-18 15.5l-181 98v29h613q212 0 343.5 -95t131.5 -268q0 -128 -82 -216.5t-209 -100.5q164 -24 262.5 -117.5t98.5 -247.5q0 -187 -145 -291t-382 -104zM682 82q151 0 234 80t83 235q0 149 -89.5 223
t-229.5 74h-213v-583q0 -19 5 -24t22 -5h188zM467 1329v-557h205q113 0 185.5 75t72.5 226q0 136 -70 210.5t-190 74.5h-176q-17 0 -22 -5t-5 -24z" />
    <glyph glyph-name="C" unicode="C" horiz-adv-x="1306" 
d="M795 -31q-174 0 -311 57t-224 159t-132.5 238.5t-45.5 299.5q0 216 88 385.5t254 265.5t385 96q167 0 367 -49v-409h-27l-186 334q-10 20 -17 24.5t-31 9.5q-56 9 -110 9q-123 0 -217.5 -49.5t-153 -138.5t-88 -207t-29.5 -261q0 -321 123 -501.5t369 -180.5q57 0 104 8
q25 4 32 9t16 22l190 340h27v-410q-168 -51 -383 -51z" />
    <glyph glyph-name="D" unicode="D" horiz-adv-x="1452" 
d="M647 0h-584v29l181 98q14 8 18 15.5t4 25.5v1104q0 18 -4 25.5t-18 15.5l-181 98v29h607q153 0 281.5 -47.5t221.5 -135.5t145 -220.5t52 -295.5q0 -153 -46.5 -280.5t-121 -211t-171 -141.5t-193.5 -83t-191 -25zM643 82q76 0 145 22t132.5 71.5t110.5 123.5t74.5 185.5
t27.5 248.5q0 299 -125 462t-346 163h-168q-17 0 -22 -5t-5 -24v-1218q0 -19 5 -24t22 -5h149z" />
    <glyph glyph-name="E" unicode="E" horiz-adv-x="1290" 
d="M954 492h-24l-115 163q-12 18 -20.5 22.5t-28.5 4.5h-299v-571q0 -19 5 -24t22 -5h419q21 0 29 4.5t19 22.5l180 284h26v-393h-1104v29l181 98q14 8 18 15.5t4 25.5v1104q0 18 -4 25.5t-18 15.5l-181 98v29h1092v-396h-27l-165 287q-9 18 -16.5 22.5t-28.5 4.5h-424
q-17 0 -22 -5t-5 -24v-565h299q20 0 28.5 4.5t20.5 22.5l115 161h24v-460z" />
    <glyph glyph-name="F" unicode="F" horiz-adv-x="1202" 
d="M954 492h-24l-115 163q-12 18 -20.5 22.5t-28.5 4.5h-299v-502q0 -19 4.5 -27t17.5 -14l263 -110v-29h-689v29l181 98q14 8 18 15.5t4 25.5v1104q0 18 -4 25.5t-18 15.5l-181 98v29h1092v-396h-27l-165 287q-9 18 -16.5 22.5t-28.5 4.5h-424q-17 0 -22 -5t-5 -24v-565
h299q20 0 28.5 4.5t20.5 22.5l115 161h24v-460z" />
    <glyph glyph-name="G" unicode="G" horiz-adv-x="1437" 
d="M770 -31q-169 0 -300 54.5t-216 154.5t-128.5 240t-43.5 313q0 215 87.5 381t258.5 262t403 96q214 0 398 -49v-409h-27l-186 334q-9 17 -17 22t-30 10q-53 11 -133 11q-254 0 -387.5 -173t-133.5 -473q0 -219 51 -371t163 -236.5t282 -84.5q82 0 176 23q28 8 34.5 14.5
t6.5 28.5v354q0 18 -4 25.5t-18 15.5l-162 94v29h565v-29l-158 -94q-14 -8 -18 -15.5t-4 -25.5v-502l-187 39q-143 -39 -272 -39z" />
    <glyph glyph-name="H" unicode="H" horiz-adv-x="1605" 
d="M1339 1272v-1104q0 -18 4.5 -25.5t18.5 -15.5l180 -98v-29h-606v29l180 98q14 8 18.5 15.5t4.5 25.5v524h-672v-524q0 -18 4 -25.5t18 -15.5l181 -98v-29h-607v29l181 98q14 8 18 15.5t4 25.5v1104q0 18 -4 25.5t-18 15.5l-181 98v29h607v-29l-181 -98q-14 -8 -18 -15.5
t-4 -25.5v-494h672v494q0 18 -4.5 25.5t-18.5 15.5l-180 98v29h606v-29l-180 -98q-14 -8 -18.5 -15.5t-4.5 -25.5z" />
    <glyph glyph-name="I" unicode="I" horiz-adv-x="733" 
d="M670 0h-607v29l181 98q14 8 18 15.5t4 25.5v1104q0 18 -4 25.5t-18 15.5l-181 98v29h607v-29l-181 -98q-14 -8 -18 -15.5t-4 -25.5v-1104q0 -18 4 -25.5t18 -15.5l181 -98v-29z" />
    <glyph glyph-name="J" unicode="J" horiz-adv-x="659" 
d="M430 29q0 -199 -107.5 -310.5t-312.5 -158.5l-10 26q229 97 229 432v1254q0 18 -4 25.5t-18 15.5l-180 98v29h606v-29l-180 -98q-14 -8 -18.5 -15.5t-4.5 -25.5v-1243z" />
    <glyph glyph-name="K" unicode="K" horiz-adv-x="1366" 
d="M467 752v-584q0 -18 4 -25.5t18 -15.5l181 -98v-29h-607v29l181 98q14 8 18 15.5t4 25.5v1104q0 18 -4 25.5t-18 15.5l-181 98v29h607v-29l-181 -98q-14 -8 -18 -15.5t-4 -25.5v-520l498 503q18 18 18.5 27t-16.5 23l-127 106v29h536v-29l-235 -123q-31 -15 -43 -23.5
t-37 -33.5l-402 -408l461 -626q21 -29 32 -38.5t40 -25.5l180 -100v-33h-352z" />
    <glyph glyph-name="L" unicode="L" horiz-adv-x="1157" 
d="M494 82h354q25 0 34 4.5t19 22.5l174 303h27v-412h-1039v29l181 98q14 8 18 15.5t4 25.5v1104q0 18 -4 25.5t-18 15.5l-181 98v29h607v-29l-181 -98q-14 -8 -18 -15.5t-4 -25.5v-1161q0 -19 5 -24t22 -5z" />
    <glyph glyph-name="M" unicode="M" horiz-adv-x="1861" 
d="M272 211v1061q0 18 -4 25.5t-18 15.5l-180 98v29h413l465 -1123l438 1123h412v-29l-180 -98q-14 -8 -18.5 -15.5t-4.5 -25.5v-1104q0 -18 4.5 -25.5t18.5 -15.5l180 -98v-29h-602v29l180 98q14 8 18.5 15.5t4.5 25.5v1055l-481 -1223h-46l-507 1231v-1020q0 -31 22 -47
l191 -135v-29h-515v29l187 135q22 16 22 47z" />
    <glyph glyph-name="N" unicode="N" horiz-adv-x="1529" 
d="M1300 1229v-1229h-94l-841 1231v-1020q0 -19 4.5 -28.5t17.5 -18.5l191 -135v-29h-515v29l187 135q22 16 22 47v1051q0 18 -4 25.5t-18 15.5l-180 108v29h391l747 -1098v887q0 31 -22 47l-191 135v29h514v-29l-186 -135q-23 -17 -23 -47z" />
    <glyph glyph-name="O" unicode="O" horiz-adv-x="1490" 
d="M745 1470q139 0 260 -50.5t211 -144t141.5 -235.5t51.5 -315q0 -167 -51.5 -309t-140.5 -239.5t-211 -152.5t-261 -55t-260 50.5t-210.5 143.5t-141 235t-51.5 315q0 167 51.5 309t140 240t210.5 153t261 55zM739 1389q-188 0 -304 -170t-116 -490q0 -323 119 -500.5
t314 -177.5q188 0 303.5 169t115.5 489q0 323 -118.5 501.5t-313.5 178.5z" />
    <glyph glyph-name="P" unicode="P" horiz-adv-x="1249" 
d="M664 539h-197v-359q0 -19 4.5 -27t17.5 -14l263 -110v-29h-689v29l181 98q14 8 18 15.5t4 25.5v1104q0 18 -4 25.5t-18 15.5l-181 98v29h615q151 0 266.5 -49t182.5 -149.5t67 -240.5q0 -141 -73 -247.5t-192.5 -160.5t-264.5 -54zM467 1329v-708h190q138 0 227 97.5
t89 272.5q0 176 -81.5 271.5t-215.5 95.5h-182q-17 0 -22 -5t-5 -24z" />
    <glyph glyph-name="Q" unicode="Q" horiz-adv-x="1490" 
d="M745 1470q139 0 260 -50.5t211 -144t141.5 -235.5t51.5 -315q0 -167 -51.5 -309t-140.5 -239.5t-211 -152.5t-261 -55q-59 0 -143 15l-158 -146l449 -110q127 -31 215 -31q83 0 140 21.5t102 66.5l86 84l20 -12l-55 -119q-50 -108 -125.5 -163.5t-204.5 -55.5
q-101 0 -272 43l-432 106q-86 21 -115 21q-37 0 -62 -11l-12 25l348 301q-202 67 -323 251.5t-121 457.5q0 167 51.5 309t140 240t210.5 153t261 55zM739 1389q-188 0 -304 -170t-116 -490q0 -323 119 -500.5t314 -177.5q188 0 303.5 169t115.5 489q0 323 -118.5 501.5
t-313.5 178.5z" />
    <glyph glyph-name="R" unicode="R" horiz-adv-x="1370" 
d="M1346 0h-299l-334 614q-10 16 -18.5 19.5t-30.5 3.5h-197v-469q0 -18 4 -25.5t18 -15.5l181 -98v-29h-607v29l181 98q14 8 18 15.5t4 25.5v1104q0 18 -4 25.5t-18 15.5l-181 98v29h621q145 0 257 -41t178.5 -126.5t66.5 -205.5q0 -139 -81.5 -237.5t-213.5 -129.5
l287 -524q25 -38 49 -57l119 -90v-29zM467 1329v-610h205q56 0 107 19t92.5 57t66.5 102t25 147q0 152 -84.5 233t-206.5 81h-178q-17 0 -22 -5t-5 -24z" />
    <glyph glyph-name="S" unicode="S" horiz-adv-x="1159" 
d="M524 -31q-218 0 -401 66v407h27l174 -342q10 -18 17.5 -25.5t25.5 -11.5q73 -16 151 -16q163 0 261 75t98 200q0 104 -62 167t-192 117l-174 72q-312 126 -312 389q0 185 143 294t371 109q185 0 324 -38v-385h-27l-166 309q-13 27 -41 30q-47 7 -92 7q-154 0 -242 -77.5
t-88 -195.5q0 -86 52 -148.5t168 -111.5l188 -78q64 -27 109.5 -50.5t92.5 -57.5t75.5 -71.5t46.5 -89.5t18 -114q0 -194 -145 -312t-400 -118z" />
    <glyph glyph-name="T" unicode="T" horiz-adv-x="1298" 
d="M1245 1440v-412h-26l-168 299q-13 22 -22 26.5t-32 4.5h-247v-1190q0 -18 4 -25.5t18 -15.5l180 -98v-29h-606v29l180 98q14 8 18.5 15.5t4.5 25.5v1190h-248q-23 0 -31.5 -4.5t-21.5 -26.5l-168 -299h-27v412h1192z" />
    <glyph glyph-name="U" unicode="U" horiz-adv-x="1480" 
d="M760 -31q-277 0 -400.5 133t-123.5 387v783q0 18 -4.5 25.5t-18.5 15.5l-180 98v29h606v-29l-180 -98q-14 -8 -18.5 -15.5t-4.5 -25.5v-748q0 -211 93.5 -333.5t265.5 -122.5q170 0 271 114.5t101 337.5v709q0 31 -22 47l-191 135v29h514v-29l-186 -135q-22 -16 -22 -47
v-721q0 -163 -52 -282t-165.5 -188t-282.5 -69z" />
    <glyph glyph-name="V" unicode="V" horiz-adv-x="1355" 
d="M627 0l-471 1274q-10 26 -16 33.5t-25 19.5l-125 84v29h561v-29l-172 -102q-12 -6 -14 -13t4 -24l354 -983l358 952q8 22 4 31.5t-24 21.5l-180 117v29h516v-29l-166 -111q-23 -14 -30.5 -22.5t-16.5 -32.5l-475 -1245h-82z" />
    <glyph glyph-name="W" unicode="W" horiz-adv-x="2015" 
d="M606 0l-450 1274q-9 25 -15 32.5t-26 20.5l-125 84v29h561v-29l-172 -102q-12 -6 -14 -13t4 -24l331 -977l277 764l-66 215q-7 22 -14.5 31t-26.5 22l-118 84v29h548v-29l-172 -102q-12 -6 -13.5 -13t3.5 -24l285 -969l338 938q7 22 3 31.5t-24 21.5l-180 117v29h516v-29
l-166 -111q-22 -12 -30 -21.5t-17 -33.5l-457 -1245h-81l-283 915l-334 -915h-82z" />
    <glyph glyph-name="X" unicode="X" horiz-adv-x="1376" 
d="M29 0v29l188 123q35 22 55 55l324 493l-389 564q-14 22 -25 32t-32 23l-140 92v29h545v-29l-127 -74q-26 -16 -4 -47l297 -454l276 419q18 29 -4 43l-166 113v29h508v-29l-188 -123q-35 -22 -55 -55l-316 -481l393 -576q14 -22 25 -32t33 -23l139 -92v-29h-545v29l127 73
q26 16 4 48l-301 466l-284 -432q-18 -29 4 -43l166 -112v-29h-508z" />
    <glyph glyph-name="Y" unicode="Y" horiz-adv-x="1316" 
d="M963 0h-607v29l181 98q14 8 18 15.5t4 25.5v358q0 43 -16 70l-391 678q-13 25 -23 36t-29 23l-110 78v29h555v-29l-166 -96q-20 -11 -6 -39l342 -602l313 579q8 15 7 23.5t-13 15.5l-184 119v29h510v-29l-174 -117q-21 -13 -28.5 -21.5t-21.5 -33.5l-348 -643
q-16 -31 -16 -70v-358q0 -18 4 -25.5t18 -15.5l181 -98v-29z" />
    <glyph glyph-name="Z" unicode="Z" horiz-adv-x="1153" 
d="M1071 0h-1005v29l786 1329h-514q-20 0 -27.5 -4t-17.5 -23l-164 -307h-27v416h1002v-29l-789 -1329h527q20 0 27.5 4t17.5 23l178 323h27z" />
    <glyph glyph-name="bracketleft" unicode="[" horiz-adv-x="770" 
d="M682 -301l-420 -14v1882l420 -13v-28l-248 -70q-17 -4 -22.5 -12t-5.5 -27v-1581q0 -19 5.5 -27t22.5 -12l248 -69v-29z" />
    <glyph glyph-name="backslash" unicode="\" horiz-adv-x="798" 
d="M655 -307l-610 1814l98 29l611 -1815z" />
    <glyph glyph-name="bracketright" unicode="]" horiz-adv-x="770" 
d="M508 -315l-420 14v29l248 69q17 5 23 12.5t6 26.5v1581q0 19 -6 26.5t-23 12.5l-248 70v28l420 13v-1882z" />
    <glyph glyph-name="asciicircum" unicode="^" horiz-adv-x="1103" 
d="M246 627l-94 39l387 841h24l389 -843l-94 -39l-305 663h-4z" />
    <glyph glyph-name="underscore" unicode="_" horiz-adv-x="1126" 
d="M1065 -211h-1004v111h1004v-111z" />
    <glyph glyph-name="grave" unicode="`" horiz-adv-x="612" 
d="M500 1167h-29l-358 291v25h264z" />
    <glyph glyph-name="a" unicode="a" horiz-adv-x="1048" 
d="M514 557q84 0 172 -20q0 40 1 95t1 64q0 254 -227 254q-29 0 -53 -4q-23 -4 -33 -26l-127 -236h-25l-69 274q163 68 329 68q201 0 289 -89.5t88 -260.5q0 -90 -4 -250.5t-4 -224.5q0 -52 20 -81.5t54 -29.5q52 0 84 47l18 -16q-15 -67 -66 -105.5t-116 -38.5
q-74 0 -118.5 47.5t-47.5 129.5q-44 -77 -123.5 -127t-179.5 -50q-122 0 -200.5 71t-78.5 188q0 140 115.5 230.5t300.5 90.5zM453 88q69 0 131 46.5t96 131.5q4 114 4 201q-65 12 -119 12q-125 0 -199.5 -62.5t-74.5 -160.5q0 -79 46.5 -123.5t115.5 -44.5z" />
    <glyph glyph-name="b" unicode="b" horiz-adv-x="1142" 
d="M162 -25v1323q0 26 -19 43l-123 103v24l326 68v-664q61 78 132.5 116t166.5 38q175 0 293.5 -137.5t118.5 -356.5q0 -109 -28 -202t-74.5 -157.5t-106.5 -110t-124.5 -66.5t-129.5 -21q-79 0 -150.5 28.5t-117.5 78.5l-140 -107h-24zM578 909q-146 0 -232 -143v-582
q24 -54 80.5 -86t122.5 -32q62 0 116 27.5t97 81.5t67.5 142.5t24.5 202.5q0 181 -74.5 285t-201.5 104z" />
    <glyph glyph-name="c" unicode="c" horiz-adv-x="968" 
d="M281 516q0 -200 95 -306t240 -106q147 0 261 121l22 -20q-42 -101 -140.5 -165.5t-221.5 -64.5q-201 0 -327 133t-126 369q0 252 147 400.5t379 148.5q139 0 279 -47l-82 -293h-25l-120 232q-11 20 -23 22q-16 4 -37 4q-138 0 -229.5 -112t-91.5 -316z" />
    <glyph glyph-name="d" unicode="d" horiz-adv-x="1191" 
d="M557 92q72 0 138.5 42.5t101.5 123.5v586q-36 42 -94 67t-115 25q-55 0 -106.5 -25t-95.5 -74.5t-70.5 -135.5t-26.5 -197q0 -197 77 -304.5t191 -107.5zM1143 0h-324v178q-43 -94 -127 -148.5t-188 -54.5q-80 0 -154.5 34.5t-133.5 97t-94.5 161t-35.5 217.5
q0 126 39.5 230t105.5 171t150 103.5t176 36.5q136 0 240 -80v352q0 26 -19 43l-123 103v24l326 68v-1331q0 -15 4 -22.5t19 -22.5l139 -135v-25z" />
    <glyph glyph-name="e" unicode="e" horiz-adv-x="1024" 
d="M920 535h-644q0 -118 28.5 -205t78 -134t105.5 -68.5t120 -21.5q82 0 165 35.5t147 106.5l20 -17q-54 -127 -159 -191.5t-240 -64.5q-96 0 -178 32.5t-145 95t-98.5 161.5t-35.5 225q0 130 36 233.5t98.5 169t143.5 100t173 34.5q84 0 151.5 -24.5t121 -76t83 -140
t29.5 -207.5v-43zM522 944q-98 0 -165.5 -87.5t-77.5 -244.5h452q-13 332 -209 332z" />
    <glyph glyph-name="f" unicode="f" horiz-adv-x="757" 
d="M82 0v25l154 92q14 9 18 16.5t4 24.5v745h-152v98h152v201q0 162 87 248t235 86q58 0 128.5 -12t116.5 -29l-100 -278h-25l-88 215q-7 18 -12 22t-18 4q-83 0 -116.5 -65t-33.5 -195q0 -83 6 -197h283v-98h-279v-729q0 -20 5 -27.5t22 -15.5l238 -106v-25h-625z" />
    <glyph glyph-name="g" unicode="g" horiz-adv-x="1110" 
d="M510 -502q-79 0 -158 16.5t-146 48t-109 83t-42 114.5q0 77 63 136.5t173 87.5q-70 14 -116 64t-46 114q0 73 60.5 127.5t154.5 79.5q-94 32 -161.5 116.5t-67.5 200.5q0 154 118 247t291 93q145 0 240 -59q21 -12 31 -13t26 11l230 202h24v-262h-223q37 -28 67.5 -87.5
t30.5 -133.5q0 -102 -59.5 -182.5t-155.5 -122t-209 -41.5q-60 0 -112 10q-59 -12 -92 -41t-33 -67q0 -90 178 -90h223q155 0 245.5 -73t90.5 -200q0 -112 -74 -200.5t-190.5 -133.5t-251.5 -45zM532 416q97 0 161.5 73.5t64.5 198.5t-64 192.5t-162 67.5q-97 0 -161 -67.5
t-64 -192.5q0 -126 64.5 -199t160.5 -73zM539 -416q145 0 245.5 64t100.5 166q0 71 -55 108t-175 41l-260 10q-15 1 -22 1.5t-8 0.5t-5 0.5l-12 1.5q-56 -26 -86.5 -73t-30.5 -107q0 -103 88 -158t220 -55z" />
    <glyph glyph-name="h" unicode="h" horiz-adv-x="1239" 
d="M860 582q0 323 -209 323q-157 0 -254 -180v-567q0 -17 4.5 -24.5t18.5 -16.5l153 -92v-25h-536v25l153 92q14 9 18.5 16.5t4.5 24.5v1140q0 27 -18 43l-123 103v24l325 68v-705q63 97 136 146t180 49q159 0 246.5 -103.5t87.5 -308.5q0 -56 -5 -456q0 -17 4.5 -24.5
t18.5 -16.5l154 -92v-25h-537v25l152 92q17 10 20.5 16.5t3.5 24.5q2 68 2 424z" />
    <glyph glyph-name="i" unicode="i" horiz-adv-x="651" 
d="M186 1354q0 58 37.5 97.5t91.5 39.5q57 0 95.5 -39.5t38.5 -97.5q0 -56 -38.5 -94.5t-95.5 -38.5q-54 0 -91.5 38.5t-37.5 94.5zM258 158v637q0 25 -16 41l-160 141v24h360v-843q0 -17 4.5 -24.5t18.5 -16.5l153 -92v-25h-536v25l154 92q14 9 18 16.5t4 24.5z" />
    <glyph glyph-name="j" unicode="j" horiz-adv-x="569" 
d="M406 27q0 -257 -125 -393t-332 -136l-4 31q130 23 203 149.5t73 329.5v787q0 25 -16 41l-160 141v24h361v-974zM147 1356q0 57 38 96t94 39q54 0 92.5 -39t38.5 -96t-38 -96t-93 -39q-57 0 -94.5 39t-37.5 96z" />
    <glyph glyph-name="k" unicode="k" horiz-adv-x="1095" 
d="M1118 0h-299l-350 477q-25 35 -37.5 45t-34.5 10v-374q0 -17 4.5 -24.5t18.5 -16.5l153 -92v-25h-536v25l153 92q14 9 18.5 16.5t4.5 24.5v1140q0 27 -18 43l-123 103v24l325 68v-979l373 293q24 18 0 33l-139 94v24h436v-24l-451 -359q-15 -13 -4 -30l326 -443
q17 -25 47 -41l133 -79v-25z" />
    <glyph glyph-name="l" unicode="l" horiz-adv-x="610" 
d="M573 0h-536v25l153 92q14 9 18.5 16.5t4.5 24.5v1140q0 27 -18 43l-123 103v24l325 68v-1378q0 -17 4.5 -24.5t18.5 -16.5l153 -92v-25z" />
    <glyph glyph-name="m" unicode="m" horiz-adv-x="1929" 
d="M1264 0h-537v25l152 92q17 10 20.5 16.5t3.5 24.5q2 68 2 424q0 94 -16.5 159.5t-47 100t-65.5 49t-80 14.5q-157 0 -254 -180v-567q0 -17 4.5 -24.5t18.5 -16.5l153 -92v-25h-536v25l154 92q14 9 18 16.5t4 24.5v637q0 25 -16 41l-160 141v24h338v-196q110 221 334 221
q241 0 311 -223q59 112 141 167.5t199 55.5q155 0 243.5 -105t88.5 -307q0 -136 -4 -456q0 -17 4 -24.5t18 -16.5l154 -92v-25h-537v25l152 92q17 10 20.5 16.5t3.5 24.5q2 68 2 424q0 323 -207 323q-160 0 -260 -188q9 -70 9 -103q0 -56 -5 -456q0 -17 4.5 -24.5
t18.5 -16.5l154 -92v-25z" />
    <glyph glyph-name="n" unicode="n" horiz-adv-x="1284" 
d="M1264 0h-537v25l152 92q17 10 20.5 16.5t3.5 24.5q2 68 2 424q0 94 -16.5 159.5t-47 100t-65.5 49t-80 14.5q-157 0 -254 -180v-567q0 -17 4.5 -24.5t18.5 -16.5l153 -92v-25h-536v25l154 92q14 9 18 16.5t4 24.5v637q0 25 -16 41l-160 141v24h338v-196q110 221 334 221
q161 0 249.5 -103.5t88.5 -308.5q0 -56 -5 -456q0 -17 4.5 -24.5t18.5 -16.5l154 -92v-25z" />
    <glyph glyph-name="o" unicode="o" horiz-adv-x="1134" 
d="M561 -25q-97 0 -183.5 34.5t-152.5 99t-104.5 163.5t-38.5 220q0 123 39.5 225t107 168.5t156.5 103.5t188 37q97 0 183.5 -34.5t153 -98.5t105 -163t38.5 -220q0 -123 -39.5 -225t-107.5 -169t-157 -104t-188 -37zM575 57q86 0 147 61t89.5 159.5t28.5 222.5
q0 122 -29 220t-93.5 161t-154.5 63q-88 0 -149.5 -61t-90 -158.5t-28.5 -222.5q0 -123 29 -221t93.5 -161t157.5 -63z" />
    <glyph glyph-name="p" unicode="p" horiz-adv-x="1196" 
d="M668 -481h-625v24l154 92q14 9 18 16.5t4 24.5v1119q0 25 -16 41l-160 141v24h338v-180q104 205 321 205q173 0 290.5 -133.5t117.5 -362.5q0 -130 -40 -237.5t-106 -175.5t-148 -105t-169 -37q-74 0 -139 26t-105 71v-379q0 -20 5 -27.5t22 -15.5l238 -107v-24zM608 63
q126 0 212.5 116.5t86.5 338.5q0 175 -74.5 285t-195.5 110q-69 0 -130.5 -41t-103.5 -127v-569q78 -113 205 -113z" />
    <glyph glyph-name="q" unicode="q" horiz-adv-x="1146" 
d="M508 -25q-82 0 -158 34.5t-135 97t-94 157.5t-35 207t28 206t75 157t108 107.5t126.5 64.5t131.5 20q80 0 150 -30t112 -76l141 106h25v-1345q0 -19 4 -27.5t21 -20.5l120 -90v-24h-536v24l182 97q16 10 20.5 16.5t4.5 24.5v438q-46 -69 -125 -106.5t-166 -37.5zM565 86
q62 0 128 32t104 93v604q-30 59 -90.5 91t-122.5 32q-57 0 -108.5 -26.5t-94 -78t-67.5 -138t-25 -195.5q0 -196 77.5 -305t198.5 -109z" />
    <glyph glyph-name="r" unicode="r" horiz-adv-x="903" 
d="M707 0h-625v25l154 92q14 9 18 16.5t4 24.5v637q0 25 -16 41l-160 141v24h338v-276q106 301 303 301q62 0 125 -31l-70 -299h-24l-99 181q-6 11 -10 13.5t-14 2.5q-27 0 -58 -31q-83 -83 -131 -229v-459q0 -20 5 -27.5t22 -15.5l238 -106v-25z" />
    <glyph glyph-name="s" unicode="s" horiz-adv-x="950" 
d="M686 244q0 59 -41.5 92.5t-122.5 60.5l-168 56q-233 78 -233 274q0 134 108.5 216.5t274.5 82.5q142 0 307 -53l-70 -271h-24l-111 222q-6 12 -10 15.5t-16 6.5q-27 6 -76 6q-99 0 -162 -49.5t-63 -130.5q0 -108 180 -162l180 -57q215 -68 215 -258q0 -150 -115 -235
t-293 -85q-174 0 -352 66l86 287h25l84 -217q11 -27 17.5 -35.5t21.5 -12.5q51 -14 114 -14q64 0 117.5 21t89.5 66t37 108z" />
    <glyph glyph-name="t" unicode="t" horiz-adv-x="786" 
d="M379 1358h24v-357h338v-98h-338v-635q0 -79 41 -124.5t111 -45.5q103 0 178 97l23 -15q-33 -98 -110.5 -151.5t-176.5 -53.5q-117 0 -183.5 72.5t-66.5 208.5v647h-162v98h125q26 0 34 5t20 32z" />
    <glyph glyph-name="u" unicode="u" horiz-adv-x="1216" 
d="M1167 0h-323v197q-134 -222 -344 -222q-145 0 -226 98.5t-81 295.5q0 77 2 211t2 215q0 19 -3.5 26.5t-17.5 18.5l-156 137v24h363q-4 -68 -4 -593q0 -47 1.5 -76.5t6.5 -70.5t17.5 -66.5t32 -50t52 -36.5t76.5 -12q76 0 143 49t113 131v519q0 19 -3.5 27t-16.5 18
l-156 137v24h361v-796q0 -15 3.5 -22.5t18.5 -22.5l139 -135v-25z" />
    <glyph glyph-name="v" unicode="v" horiz-adv-x="1017" 
d="M322 879q-12 -8 -14.5 -14.5t1.5 -20.5l240 -625l260 631q9 16 -8 29l-162 98v24h399v-24l-114 -103q-18 -16 -29 -38l-348 -836h-98l-334 842q-10 25 -31 49l-84 86v24h461v-24z" />
    <glyph glyph-name="w" unicode="w" horiz-adv-x="1583" 
d="M315 879q-20 -12 -12 -35l234 -623l211 524l-35 97q-10 25 -31 49l-84 86v24h455v-24l-142 -98q-20 -12 -12 -35l219 -617l256 623q8 18 -8 29l-162 98v24h400v-24l-115 -103q-8 -7 -10.5 -9.5t-6.5 -7t-6.5 -9.5t-5.5 -12l-342 -836h-88l-239 633l-259 -633h-88
l-329 842q-10 25 -31 49l-84 86v24h459v-24z" />
    <glyph glyph-name="x" unicode="x" horiz-adv-x="1060" 
d="M31 0v25l121 90q32 23 57 55l237 309l-266 367q-16 26 -37 41l-120 90v24h456v-24l-100 -64q-17 -10 -19 -19t9 -24l198 -276l199 260q16 20 -4 33l-135 90v24h403v-24l-121 -90q-30 -22 -57 -56l-238 -307l269 -368q20 -29 37 -41l122 -90v-25h-458v25l100 63
q17 10 19 19t-9 24l-198 279l-201 -263q-16 -19 4 -32l135 -90v-25h-403z" />
    <glyph glyph-name="y" unicode="y" horiz-adv-x="1019" 
d="M141 -502q-56 0 -86 23l72 303h25l100 -139q14 -21 27 -21q24 0 55 45q41 56 67.5 107t55.5 127q11 29 2 49l-344 850q-10 25 -31 49l-84 86v24h461v-24l-139 -98q-12 -8 -14.5 -14.5t1.5 -20.5l248 -647l254 653q8 18 -8 29l-162 98v24h399v-24l-114 -103
q-8 -7 -10.5 -9.5t-6.5 -7t-6.5 -9.5t-5.5 -12l-326 -834q-120 -307 -233 -416q-88 -88 -197 -88z" />
    <glyph glyph-name="z" unicode="z" horiz-adv-x="946" 
d="M686 102l156 244h24l-22 -346h-764v25l569 893h-311q-18 0 -24.5 -3.5t-14.5 -15.5l-154 -244h-24v346h764v-24l-576 -893h338q19 0 25 3t14 15z" />
    <glyph glyph-name="braceleft" unicode="{" horiz-adv-x="770" 
d="M551 -317q-137 0 -224 75t-87 228q0 49 43 458q9 79 -39 123.5t-142 44.5v29q94 0 142 44.5t39 123.5q-43 426 -43 459q0 156 86 229.5t225 73.5q61 0 131 -17v-28q-281 -3 -281 -226q0 -45 41 -460q9 -91 -32 -141.5t-142 -69.5v-4q101 -19 142 -69.5t32 -141.5
q-41 -415 -41 -459q0 -111 68 -168.5t213 -58.5v-29q-66 -16 -131 -16z" />
    <glyph glyph-name="bar" unicode="|" horiz-adv-x="704" 
d="M408 -481h-111v1994h111v-1994z" />
    <glyph glyph-name="braceright" unicode="}" horiz-adv-x="770" 
d="M219 -317q-65 0 -131 16v29q145 1 213 58.5t68 168.5q0 44 -41 459q-9 91 32 141.5t142 69.5v4q-101 19 -142 69.5t-32 141.5q41 415 41 460q0 223 -281 226v28q70 17 131 17q139 0 225 -73.5t86 -229.5q0 -33 -43 -459q-9 -79 39 -123.5t142 -44.5v-29q-94 0 -142 -44.5
t-39 -123.5q43 -409 43 -458q0 -153 -87 -228t-224 -75z" />
    <glyph glyph-name="asciitilde" unicode="~" 
d="M850 375q-62 0 -129.5 22.5t-116.5 50t-109 50t-108 22.5q-120 0 -188 -110l-86 53q44 71 111 114.5t155 43.5q62 0 129.5 -23t116.5 -50t109 -50t108 -23q119 0 188 111l86 -54q-97 -157 -266 -157z" />
    <glyph glyph-name="uni00A0" unicode="&#xa0;" horiz-adv-x="471" 
 />
    <glyph glyph-name="exclamdown" unicode="&#xa1;" horiz-adv-x="585" 
d="M281 631h24l129 -1063h-284zM436 883q0 -61 -39.5 -102.5t-99.5 -41.5t-99.5 41.5t-39.5 102.5q0 60 39.5 101.5t99.5 41.5t99.5 -41.5t39.5 -101.5z" />
    <glyph glyph-name="cent" unicode="&#xa2;" horiz-adv-x="987" 
d="M510 -227v204h-14q-177 14 -289.5 146.5t-112.5 353.5t113.5 363.5t302.5 175.5v211h82v-201h26q135 0 281 -49l-82 -291h-24l-121 232q-7 14 -12.5 18t-16.5 6q-14 2 -51 2v-840h33q149 0 262 121l22 -20q-40 -92 -122 -152.5t-195 -72.5v-207h-82zM291 516
q0 -156 59.5 -256t159.5 -137v805q-95 -36 -157 -143t-62 -269z" />
    <glyph glyph-name="sterling" unicode="&#xa3;" horiz-adv-x="1103" 
d="M92 623h139q-61 157 -61 282q0 135 65.5 240t171.5 159t232 54q162 0 287 -49l-88 -297h-25l-121 233q-9 21 -18.5 26t-40.5 5q-129 0 -209 -85t-80 -224q0 -42 10 -89.5t21.5 -81t32 -89t30.5 -84.5h297v-82h-274q10 -55 10 -99q0 -52 -14 -95t-43 -79.5t-54 -59.5
t-67 -56h549q28 0 39.5 4.5t27.5 25.5l117 158h27l-27 -340h-934v31l117 112q90 90 90 230q0 61 -35 168h-172v82z" />
    <glyph glyph-name="currency" unicode="&#xa4;" horiz-adv-x="1376" 
d="M682 264q-144 0 -248 64l-186 -187l-72 72l176 178q-102 107 -102 268q0 160 96 267l-170 172l72 71l176 -178q116 78 270 78q149 0 262 -72l172 172l72 -71l-166 -168q92 -102 92 -258q0 -169 -108 -277l182 -182l-72 -72l-190 191q-112 -68 -256 -68zM696 356
q111 0 169.5 87.5t58.5 222.5q0 133 -61.5 222t-178.5 89q-113 0 -171 -87t-58 -224q0 -133 61 -221.5t180 -88.5z" />
    <glyph glyph-name="yen" unicode="&#xa5;" horiz-adv-x="1275" 
d="M922 0h-607v29l181 98q14 8 18 15.5t4 25.5v129h-293v82h293v131h-293v82h242l-326 579q-21 39 -51 62l-90 76v28h514v-28l-147 -92q-21 -11 -7 -39l314 -566l307 549q12 25 -8 35l-178 113v28h501v-28l-172 -111q-22 -14 -31.5 -24.5t-19.5 -34.5l-307 -547h246v-82
h-293v-131h293v-82h-293v-129q0 -18 4 -25.5t18 -15.5l181 -98v-29z" />
    <glyph glyph-name="brokenbar" unicode="&#xa6;" horiz-adv-x="704" 
d="M408 659h-111v854h111v-854zM408 -481h-111v866h111v-866z" />
    <glyph glyph-name="section" unicode="&#xa7;" horiz-adv-x="968" 
d="M866 522q0 -101 -52 -175.5t-132 -108.5q94 -100 94 -244q0 -145 -96 -232.5t-252 -87.5q-153 0 -258 50l88 276h25l118 -217q11 -22 20 -27.5t38 -5.5q73 0 122.5 55t49.5 138q0 71 -37 126.5t-117 110.5l-194 133q-94 64 -137.5 134t-43.5 165q0 100 51.5 174.5
t131.5 108.5q-92 95 -92 235q0 150 96 240t252 90q155 0 258 -49l-88 -276h-25l-119 217q-11 22 -19.5 27t-37.5 5q-73 0 -122.5 -57.5t-49.5 -144.5q0 -67 37.5 -120.5t116.5 -107.5l194 -133q94 -64 137 -134t43 -165zM575 674l-253 188q-31 -27 -51.5 -76.5t-20.5 -103.5
q0 -58 30 -108.5t113 -112.5l252 -189q32 26 53 76t21 105q0 58 -30 108.5t-114 112.5z" />
    <glyph glyph-name="dieresis" unicode="&#xa8;" horiz-adv-x="845" 
d="M113 1321q0 51 34.5 88t81.5 37q49 0 84 -37t35 -88q0 -48 -35 -84.5t-84 -36.5q-47 0 -81.5 36.5t-34.5 84.5zM500 1321q0 51 34 88t80 37q49 0 84 -37t35 -88q0 -48 -35 -84.5t-84 -36.5q-45 0 -79.5 36.5t-34.5 84.5z" />
    <glyph glyph-name="copyright" unicode="&#xa9;" horiz-adv-x="1697" 
d="M850 -31q-208 0 -376 94t-264.5 265.5t-96.5 388.5t96.5 388.5t264.5 265t376 93.5q156 0 292 -55t233.5 -152t153.5 -237t56 -303q0 -217 -96 -388.5t-263.5 -265.5t-375.5 -94zM850 51q138 0 256 47t203 132t133.5 210.5t48.5 276.5q0 152 -48.5 278t-134 210.5
t-203.5 130.5t-255 46t-255 -46t-204 -130.5t-135 -210.5t-49 -278q0 -151 48.5 -276.5t134.5 -210.5t204 -132t256 -47zM903 264q-118 0 -210.5 34.5t-150 96t-87 141.5t-29.5 175q0 208 130.5 333t354.5 125q106 0 240 -28v-283h-27l-125 211q-15 23 -51 23h-22
q-158 0 -227.5 -94t-69.5 -271q0 -381 295 -381h37q29 0 45 25l118 204h27v-282q-142 -29 -248 -29z" />
    <glyph glyph-name="ordfeminine" unicode="&#xaa;" horiz-adv-x="909" 
d="M428 1190q51 0 109 -10q2 49 2 112q0 91 -42 136t-137 45q-16 0 -20.5 -3.5t-9.5 -17.5l-84 -166h-19l-59 201q142 49 262 49q33 0 58.5 -3t61 -14t64 -37t45.5 -67q23 -55 23 -170q0 -53 -1 -159.5t-1 -159.5q0 -80 51 -80q39 0 62 26l12 -12q-36 -102 -123 -102
q-53 0 -89.5 35.5t-39.5 91.5q-29 -56 -87.5 -91.5t-133.5 -35.5q-89 0 -149 53.5t-60 138.5q0 103 86.5 171.5t218.5 68.5zM395 848q33 0 71 22t66 64q0 9 5 184q-33 8 -70 8q-89 0 -140 -45.5t-51 -119.5q0 -52 33 -82.5t86 -30.5z" />
    <glyph glyph-name="guillemotleft" unicode="&#xab;" horiz-adv-x="894" 
d="M440 133l-368 391v17l368 391l19 -19l-191 -381l191 -380zM784 133l-368 391v17l368 391l19 -19l-191 -381l191 -380z" />
    <glyph glyph-name="logicalnot" unicode="&#xac;" 
d="M1085 199h-106v393h-856v102h962v-495z" />
    <glyph glyph-name="uni00AD" unicode="&#xad;" horiz-adv-x="819" 
d="M123 440v131h573v-131h-573z" />
    <glyph glyph-name="registered" unicode="&#xae;" horiz-adv-x="1013" 
d="M506 621q-195 0 -327 128t-132 324q0 198 132 326.5t327 128.5q197 0 329 -128.5t132 -326.5q0 -196 -132 -324t-329 -128zM506 696q167 0 272 101.5t105 275.5t-105.5 276.5t-271.5 102.5q-163 0 -269 -103t-106 -276q0 -174 105 -275.5t270 -101.5zM346 930v317
q0 19 -10 23l-62 39v20h261q82 0 132 -35t50 -104q0 -47 -29 -78.5t-74 -44.5l99 -152q11 -18 26 -24l43 -17v-26h-149l-101 168q-10 18 -17.5 21t-39.5 3h-26v-110q0 -16 12 -23l61 -37v-22h-248v22l62 37q10 6 10 23zM449 1257v-159h49q104 0 104 90q0 44 -26 65t-62 21
h-53q-12 0 -12 -17z" />
    <glyph glyph-name="macron" unicode="&#xaf;" horiz-adv-x="786" 
d="M664 1237h-541v115h541v-115z" />
    <glyph glyph-name="degree" unicode="&#xb0;" horiz-adv-x="806" 
d="M403 915q-123 0 -212 81.5t-89 209.5q0 130 89 212.5t212 82.5t212.5 -81.5t89.5 -209.5q0 -129 -89.5 -212t-212.5 -83zM403 1423q-87 0 -151 -62t-64 -153t64 -153t151 -62t151 62t64 153t-64 153t-151 62z" />
    <glyph glyph-name="plusminus" unicode="&#xb1;" 
d="M563 270v303h-399v103h399v293h107v-293h395v-103h-395v-303h-107zM1065 39h-901v102h901v-102z" />
    <glyph glyph-name="twosuperior" unicode="&#xb2;" horiz-adv-x="696" 
d="M305 1393q-20 0 -28 -5t-15 -18l-86 -160h-24l-60 199q110 47 238 47q129 0 196.5 -56.5t67.5 -150.5q0 -34 -11.5 -69t-25.5 -61.5t-47 -62t-53 -55.5t-69 -58t-69 -53t-77 -56h239q23 0 32 3.5t22 18.5l55 72h24l-30 -219h-502v24l141 156q105 117 153 197t48 165
q0 66 -31 104t-88 38z" />
    <glyph glyph-name="threesuperior" unicode="&#xb3;" horiz-adv-x="696" 
d="M326 1456q127 0 195.5 -49t68.5 -131q0 -74 -48.5 -118.5t-125.5 -59.5q89 -6 145.5 -54.5t56.5 -125.5q0 -101 -83 -163.5t-232 -62.5q-143 0 -231 37l69 207h23l82 -164q6 -11 15 -13.5t32 -2.5q68 0 110.5 48.5t42.5 108.5q0 152 -180 158v27q80 12 120 58.5t40 117.5
q0 55 -33 87t-92 32q-37 0 -47 -15l-88 -168h-25l-59 201q117 45 244 45z" />
    <glyph glyph-name="acute" unicode="&#xb4;" horiz-adv-x="612" 
d="M139 1163h-28l125 318h264v-25z" />
    <glyph glyph-name="mu" unicode="&#xb5;" horiz-adv-x="1226" 
d="M39 -481v24l154 92q14 9 18 16.5t4 24.5v1119q0 19 -3.5 27t-16.5 18l-156 137v24h362q0 -38 -2 -293.5t-2 -306.5q-1 -56 2.5 -97.5t15 -82.5t31.5 -67t55 -42t83 -16q76 0 143 49t113 131v519q0 19 -3.5 26.5t-17.5 18.5l-155 137v24h360v-796q0 -15 4 -22.5t19 -22.5
l139 -135v-25h-324v197q-56 -96 -140 -159t-190 -63q-82 0 -135 43v-325q0 -20 5 -27.5t22 -15.5l238 -107v-24h-623z" />
    <glyph glyph-name="paragraph" unicode="&#xb6;" horiz-adv-x="1175" 
d="M1114 1440v-29l-180 -98q-14 -8 -18.5 -15.5t-4.5 -25.5v-1753h-106v1921h309zM532 -481v1128h-16q-207 0 -322.5 104.5t-115.5 290.5q0 84 27 155t79 126t137 86t193 31h125v-1921h-107z" />
    <glyph glyph-name="periodcentered" unicode="&#xb7;" horiz-adv-x="552" 
d="M137 596q0 60 39.5 101.5t99.5 41.5t100 -41.5t40 -101.5t-40 -101.5t-100 -41.5t-99.5 41.5t-39.5 101.5z" />
    <glyph glyph-name="cedilla" unicode="&#xb8;" horiz-adv-x="675" 
d="M563 -297q0 -89 -64 -136.5t-161 -47.5q-81 0 -143 41.5t-82 109.5l18 11q66 -74 162 -74q45 0 79 25.5t34 70.5q0 57 -50.5 79.5t-124.5 4.5l-10 8l127 223h12l-8 -161q84 11 147.5 -31.5t63.5 -122.5z" />
    <glyph glyph-name="onesuperior" unicode="&#xb9;" horiz-adv-x="696" 
d="M586 709h-469v20l145 76q10 5 10 20v482q0 13 -12 18l-139 57v21l309 57v-635q0 -15 10 -20l146 -76v-20z" />
    <glyph glyph-name="ordmasculine" unicode="&#xba;" horiz-adv-x="909" 
d="M455 827q87 0 133.5 90t46.5 228t-46.5 228.5t-133.5 90.5q-88 0 -134.5 -89.5t-46.5 -229.5q0 -135 48 -226.5t133 -91.5zM453 756q-69 0 -132 26t-112 73.5t-78 122t-29 163.5q0 180 106.5 287.5t256.5 107.5q147 0 244.5 -101.5t97.5 -281.5t-104.5 -288.5
t-249.5 -108.5z" />
    <glyph glyph-name="guillemotright" unicode="&#xbb;" horiz-adv-x="894" 
d="M479 524l-368 -391l-19 19l191 380l-191 381l19 19l368 -391v-17zM823 524l-368 -391l-19 19l191 380l-191 381l19 19l368 -391v-17z" />
    <glyph glyph-name="onequarter" unicode="&#xbc;" horiz-adv-x="1527" 
d="M1425 0h-335v25l75 41q15 8 15 24v86h-318v14l330 541h145v-491h39q20 0 27 12l72 100h24l-18 -176h-144v-86q0 -16 15 -24l73 -41v-25zM1180 240v348l-207 -348h207zM586 709h-469v20l145 76q10 5 10 20v482q0 13 -12 18l-139 57v21l309 57v-635q0 -15 10 -20l146 -76
v-20zM1262 1425l-922 -1456l-74 47l922 1457z" />
    <glyph glyph-name="onehalf" unicode="&#xbd;" horiz-adv-x="1527" 
d="M1137 684q-21 0 -29 -4.5t-14 -17.5l-86 -160h-25l-59 198q113 48 237 48q129 0 196.5 -56.5t67.5 -150.5q0 -27 -7 -54t-16 -49t-29.5 -49.5t-34.5 -45.5t-46 -46t-48 -42.5t-56 -44.5t-55.5 -41.5t-59.5 -43.5h240q23 0 31 3.5t22 18.5l55 72h25l-31 -219h-502v25
l142 155q104 116 152 196.5t48 166.5q0 67 -30.5 104t-87.5 37zM586 709h-469v20l145 76q10 5 10 20v482q0 13 -12 18l-139 57v21l309 57v-635q0 -15 10 -20l146 -76v-20zM1262 1425l-922 -1456l-74 47l922 1457z" />
    <glyph glyph-name="threequarters" unicode="&#xbe;" horiz-adv-x="1527" 
d="M326 1456q127 0 195.5 -49t68.5 -131q0 -74 -48.5 -118.5t-125.5 -59.5q89 -6 145.5 -54.5t56.5 -125.5q0 -101 -83 -163.5t-232 -62.5q-143 0 -231 37l69 207h23l82 -164q6 -11 15 -13.5t32 -2.5q68 0 110.5 48.5t42.5 108.5q0 152 -180 158v27q80 12 120 58.5t40 117.5
q0 55 -33 87t-92 32q-37 0 -47 -15l-88 -168h-25l-59 201q117 45 244 45zM1425 0h-335v25l75 41q15 8 15 24v86h-318v14l330 541h145v-491h39q20 0 27 12l72 100h24l-18 -176h-144v-86q0 -16 15 -24l73 -41v-25zM1180 240v348l-207 -348h207zM1262 1425l-922 -1456l-74 47
l922 1457z" />
    <glyph glyph-name="questiondown" unicode="&#xbf;" horiz-adv-x="860" 
d="M483 567h25q47 -66 47 -127q0 -100 -123 -217l-98 -92q-55 -54 -84 -112.5t-29 -135.5q0 -115 70.5 -190.5t193.5 -75.5q43 0 76 8q19 6 26.5 13t18.5 28l115 234h24l99 -267q-170 -96 -375 -96q-195 0 -317.5 100.5t-122.5 260.5q0 164 141 295l199 178q130 114 114 196
zM492 1026q60 0 99.5 -41.5t39.5 -101.5q0 -61 -39.5 -102.5t-99.5 -41.5t-100 42t-40 102t40 101.5t100 41.5z" />
    <glyph glyph-name="Agrave" unicode="&#xc0;" horiz-adv-x="1406" 
d="M1034 168l-104 274h-537l-90 -243q-8 -20 -4 -30.5t25 -23.5l180 -116v-29h-516v29l166 110q22 15 30.5 24t16.5 32l381 1024q8 20 7.5 31t-9.5 28l-78 141v21h254l491 -1276q9 -24 15 -31.5t24 -19.5l127 -84v-29h-565v29l176 102q12 6 14 13t-4 24zM657 1163l-235 -639
h477zM778 1575h-28l-359 291v24h264z" />
    <glyph glyph-name="Aacute" unicode="&#xc1;" horiz-adv-x="1406" 
d="M1034 168l-104 274h-537l-90 -243q-8 -20 -4 -30.5t25 -23.5l180 -116v-29h-516v29l166 110q22 15 30.5 24t16.5 32l381 1024q8 20 7.5 31t-9.5 28l-78 141v21h254l491 -1276q9 -24 15 -31.5t24 -19.5l127 -84v-29h-565v29l176 102q12 6 14 13t-4 24zM657 1163l-235 -639
h477zM604 1571h-29l125 317h265v-24z" />
    <glyph glyph-name="Acircumflex" unicode="&#xc2;" horiz-adv-x="1406" 
d="M1034 168l-104 274h-537l-90 -243q-8 -20 -4 -30.5t25 -23.5l180 -116v-29h-516v29l166 110q22 15 30.5 24t16.5 32l381 1024q8 20 7.5 31t-9.5 28l-78 141v21h254l491 -1276q9 -24 15 -31.5t24 -19.5l127 -84v-29h-565v29l176 102q12 6 14 13t-4 24zM657 1163l-235 -639
h477zM657 1698l-282 -129l-17 18l287 316h25l286 -316l-16 -18z" />
    <glyph glyph-name="Atilde" unicode="&#xc3;" horiz-adv-x="1406" 
d="M1034 168l-104 274h-537l-90 -243q-8 -20 -4 -30.5t25 -23.5l180 -116v-29h-516v29l166 110q22 15 30.5 24t16.5 32l381 1024q8 20 7.5 31t-9.5 28l-78 141v21h254l491 -1276q9 -24 15 -31.5t24 -19.5l127 -84v-29h-565v29l176 102q12 6 14 13t-4 24zM657 1163l-235 -639
h477zM758 1591q-37 0 -82.5 27.5t-87 54.5t-70.5 27q-25 0 -48 -15t-37 -31.5t-44 -56.5h-24q45 242 194 242q36 0 80.5 -26.5t87 -53t72.5 -26.5q35 0 60.5 22t66.5 78h24q-45 -242 -192 -242z" />
    <glyph glyph-name="Adieresis" unicode="&#xc4;" horiz-adv-x="1406" 
d="M1034 168l-104 274h-537l-90 -243q-8 -20 -4 -30.5t25 -23.5l180 -116v-29h-516v29l166 110q22 15 30.5 24t16.5 32l381 1024q8 20 7.5 31t-9.5 28l-78 141v21h254l491 -1276q9 -24 15 -31.5t24 -19.5l127 -84v-29h-565v29l176 102q12 6 14 13t-4 24zM657 1163l-235 -639
h477zM346 1729q0 51 35 87.5t82 36.5q49 0 84 -36.5t35 -87.5q0 -48 -35 -84.5t-84 -36.5q-47 0 -82 36.5t-35 84.5zM733 1729q0 51 34.5 87.5t80.5 36.5q49 0 84 -36.5t35 -87.5q0 -48 -35 -84.5t-84 -36.5q-46 0 -80.5 37t-34.5 84z" />
    <glyph glyph-name="Aring" unicode="&#xc5;" horiz-adv-x="1406" 
d="M1034 168l-104 274h-537l-90 -243q-8 -20 -4 -30.5t25 -23.5l180 -116v-29h-516v29l166 110q22 15 30.5 24t16.5 32l381 1024q8 20 7.5 31t-9.5 28l-78 141v21h254l491 -1276q9 -24 15 -31.5t24 -19.5l127 -84v-29h-565v29l176 102q12 6 14 13t-4 24zM657 1163l-235 -639
h477zM793 1767q0 57 -39.5 98.5t-96.5 41.5q-58 0 -97.5 -41t-39.5 -99t39.5 -98.5t97.5 -40.5q57 0 96.5 41t39.5 98zM432 1767q0 97 67 157.5t158 60.5q89 0 155.5 -60.5t66.5 -157.5t-66.5 -157t-155.5 -60q-91 0 -158 60t-67 157z" />
    <glyph glyph-name="AE" unicode="&#xc6;" horiz-adv-x="2015" 
d="M-31 0v29l162 98q42 25 66 63l725 1082q19 30 -7 47l-112 92v29h1067v-396h-27l-166 287q-10 19 -17.5 23t-27.5 4h-413q-17 0 -22 -5t-5 -24v-608h299q20 0 28.5 4.5t20.5 22.5l115 161h24v-460h-24l-115 163q-12 18 -20.5 22.5t-28.5 4.5h-299v-528q0 -19 5 -24t22 -5
h419q22 0 30.5 5t17.5 22l180 284h26v-393h-1093v29l180 98q14 8 18 15.5t4 25.5v274h-522l-172 -258q-13 -24 -10 -33t25 -22l170 -100v-29h-523zM532 524h469v705z" />
    <glyph glyph-name="Ccedilla" unicode="&#xc7;" horiz-adv-x="1306" 
d="M956 -297q0 -89 -64 -136.5t-161 -47.5q-81 0 -143 41.5t-82 109.5l18 11q66 -74 162 -74q45 0 79 25.5t34 70.5q0 57 -50 79.5t-124 4.5l-11 8l101 178q-124 10 -227.5 52t-178 109.5t-126 158.5t-76.5 199t-25 231q0 216 88 385.5t254 265.5t385 96q167 0 367 -49v-409
h-27l-186 334q-10 20 -17 24.5t-31 9.5q-56 9 -110 9q-123 0 -217.5 -49.5t-153 -138.5t-88 -207t-29.5 -261q0 -321 123 -501.5t369 -180.5q57 0 104 8q25 4 32 9t16 22l190 340h27v-410q-168 -51 -383 -51q-29 0 -43 2l-7 -114q84 11 147.5 -31.5t63.5 -122.5z" />
    <glyph glyph-name="Egrave" unicode="&#xc8;" horiz-adv-x="1290" 
d="M954 492h-24l-115 163q-12 18 -20.5 22.5t-28.5 4.5h-299v-571q0 -19 5 -24t22 -5h419q21 0 29 4.5t19 22.5l180 284h26v-393h-1104v29l181 98q14 8 18 15.5t4 25.5v1104q0 18 -4 25.5t-18 15.5l-181 98v29h1092v-396h-27l-165 287q-9 18 -16.5 22.5t-28.5 4.5h-424
q-17 0 -22 -5t-5 -24v-565h299q20 0 28.5 4.5t20.5 22.5l115 161h24v-460zM795 1575h-29l-358 291v24h264z" />
    <glyph glyph-name="Eacute" unicode="&#xc9;" horiz-adv-x="1290" 
d="M954 492h-24l-115 163q-12 18 -20.5 22.5t-28.5 4.5h-299v-571q0 -19 5 -24t22 -5h419q21 0 29 4.5t19 22.5l180 284h26v-393h-1104v29l181 98q14 8 18 15.5t4 25.5v1104q0 18 -4 25.5t-18 15.5l-181 98v29h1092v-396h-27l-165 287q-9 18 -16.5 22.5t-28.5 4.5h-424
q-17 0 -22 -5t-5 -24v-565h299q20 0 28.5 4.5t20.5 22.5l115 161h24v-460zM621 1571h-29l125 317h264v-24z" />
    <glyph glyph-name="Ecircumflex" unicode="&#xca;" horiz-adv-x="1290" 
d="M954 492h-24l-115 163q-12 18 -20.5 22.5t-28.5 4.5h-299v-571q0 -19 5 -24t22 -5h419q21 0 29 4.5t19 22.5l180 284h26v-393h-1104v29l181 98q14 8 18 15.5t4 25.5v1104q0 18 -4 25.5t-18 15.5l-181 98v29h1092v-396h-27l-165 287q-9 18 -16.5 22.5t-28.5 4.5h-424
q-17 0 -22 -5t-5 -24v-565h299q20 0 28.5 4.5t20.5 22.5l115 161h24v-460zM674 1698l-283 -129l-16 18l287 316h24l287 -316l-17 -18z" />
    <glyph glyph-name="Edieresis" unicode="&#xcb;" horiz-adv-x="1290" 
d="M954 492h-24l-115 163q-12 18 -20.5 22.5t-28.5 4.5h-299v-571q0 -19 5 -24t22 -5h419q21 0 29 4.5t19 22.5l180 284h26v-393h-1104v29l181 98q14 8 18 15.5t4 25.5v1104q0 18 -4 25.5t-18 15.5l-181 98v29h1092v-396h-27l-165 287q-9 18 -16.5 22.5t-28.5 4.5h-424
q-17 0 -22 -5t-5 -24v-565h299q20 0 28.5 4.5t20.5 22.5l115 161h24v-460zM362 1729q0 51 35 87.5t82 36.5q49 0 84 -36.5t35 -87.5q0 -48 -35 -84.5t-84 -36.5q-47 0 -82 36.5t-35 84.5zM750 1729q0 51 34 87.5t80 36.5q49 0 84 -36.5t35 -87.5q0 -48 -35 -84.5t-84 -36.5
q-45 0 -79.5 36.5t-34.5 84.5z" />
    <glyph glyph-name="Igrave" unicode="&#xcc;" horiz-adv-x="733" 
d="M670 0h-607v29l181 98q14 8 18 15.5t4 25.5v1104q0 18 -4 25.5t-18 15.5l-181 98v29h607v-29l-181 -98q-14 -8 -18 -15.5t-4 -25.5v-1104q0 -18 4 -25.5t18 -15.5l181 -98v-29zM487 1575h-28l-359 291v24h265z" />
    <glyph glyph-name="Iacute" unicode="&#xcd;" horiz-adv-x="733" 
d="M670 0h-607v29l181 98q14 8 18 15.5t4 25.5v1104q0 18 -4 25.5t-18 15.5l-181 98v29h607v-29l-181 -98q-14 -8 -18 -15.5t-4 -25.5v-1104q0 -18 4 -25.5t18 -15.5l181 -98v-29zM313 1571h-28l125 317h264v-24z" />
    <glyph glyph-name="Icircumflex" unicode="&#xce;" horiz-adv-x="733" 
d="M670 0h-607v29l181 98q14 8 18 15.5t4 25.5v1104q0 18 -4 25.5t-18 15.5l-181 98v29h607v-29l-181 -98q-14 -8 -18 -15.5t-4 -25.5v-1104q0 -18 4 -25.5t18 -15.5l181 -98v-29zM367 1698l-283 -129l-16 18l286 316h25l287 -316l-17 -18z" />
    <glyph glyph-name="Idieresis" unicode="&#xcf;" horiz-adv-x="733" 
d="M670 0h-607v29l181 98q14 8 18 15.5t4 25.5v1104q0 18 -4 25.5t-18 15.5l-181 98v29h607v-29l-181 -98q-14 -8 -18 -15.5t-4 -25.5v-1104q0 -18 4 -25.5t18 -15.5l181 -98v-29zM55 1729q0 51 35 87.5t82 36.5q49 0 84 -36.5t35 -87.5q0 -48 -35 -84.5t-84 -36.5
q-47 0 -82 36.5t-35 84.5zM442 1729q0 51 34.5 87.5t80.5 36.5q49 0 84 -36.5t35 -87.5q0 -48 -35 -84.5t-84 -36.5q-46 0 -80.5 37t-34.5 84z" />
    <glyph glyph-name="Eth" unicode="&#xd0;" horiz-adv-x="1497" 
d="M692 0h-583v29l180 98q14 8 18 15.5t4 25.5v518h-182v82h182v504q0 18 -4 25.5t-18 15.5l-180 98v29h606q153 0 281.5 -47.5t221.5 -135.5t145 -220.5t52 -295.5q0 -153 -46.5 -280.5t-121 -211t-171 -141.5t-193.5 -83t-191 -25zM688 82q76 0 145 22t132.5 71.5
t110.5 123.5t74.5 185.5t27.5 248.5q0 299 -125 462t-346 163h-168q-17 0 -22 -5t-5 -24v-561h274v-82h-274v-575q0 -19 5 -24t22 -5h149z" />
    <glyph glyph-name="Ntilde" unicode="&#xd1;" horiz-adv-x="1529" 
d="M1300 1229v-1229h-94l-841 1231v-1020q0 -19 4.5 -28.5t17.5 -18.5l191 -135v-29h-515v29l187 135q22 16 22 47v1051q0 18 -4 25.5t-18 15.5l-180 108v29h391l747 -1098v887q0 31 -22 47l-191 135v29h514v-29l-186 -135q-23 -17 -23 -47zM885 1591q-37 0 -82.5 27.5
t-87 54.5t-70.5 27q-25 0 -48 -15t-37 -31.5t-44 -56.5h-24q45 242 194 242q44 0 124 -53t116 -53q35 0 60.5 22t66.5 78h24q-45 -242 -192 -242z" />
    <glyph glyph-name="Ograve" unicode="&#xd2;" horiz-adv-x="1490" 
d="M745 1470q139 0 260 -50.5t211 -144t141.5 -235.5t51.5 -315q0 -167 -51.5 -309t-140.5 -239.5t-211 -152.5t-261 -55t-260 50.5t-210.5 143.5t-141 235t-51.5 315q0 167 51.5 309t140 240t210.5 153t261 55zM739 1389q-188 0 -304 -170t-116 -490q0 -323 119 -500.5
t314 -177.5q188 0 303.5 169t115.5 489q0 323 -118.5 501.5t-313.5 178.5zM866 1575h-28l-359 291v24h264z" />
    <glyph glyph-name="Oacute" unicode="&#xd3;" horiz-adv-x="1490" 
d="M745 1470q139 0 260 -50.5t211 -144t141.5 -235.5t51.5 -315q0 -167 -51.5 -309t-140.5 -239.5t-211 -152.5t-261 -55t-260 50.5t-210.5 143.5t-141 235t-51.5 315q0 167 51.5 309t140 240t210.5 153t261 55zM739 1389q-188 0 -304 -170t-116 -490q0 -323 119 -500.5
t314 -177.5q188 0 303.5 169t115.5 489q0 323 -118.5 501.5t-313.5 178.5zM692 1571h-28l124 317h265v-24z" />
    <glyph glyph-name="Ocircumflex" unicode="&#xd4;" horiz-adv-x="1490" 
d="M745 1470q139 0 260 -50.5t211 -144t141.5 -235.5t51.5 -315q0 -167 -51.5 -309t-140.5 -239.5t-211 -152.5t-261 -55t-260 50.5t-210.5 143.5t-141 235t-51.5 315q0 167 51.5 309t140 240t210.5 153t261 55zM739 1389q-188 0 -304 -170t-116 -490q0 -323 119 -500.5
t314 -177.5q188 0 303.5 169t115.5 489q0 323 -118.5 501.5t-313.5 178.5zM745 1698l-282 -129l-17 18l287 316h25l286 -316l-16 -18z" />
    <glyph glyph-name="Otilde" unicode="&#xd5;" horiz-adv-x="1490" 
d="M745 1470q139 0 260 -50.5t211 -144t141.5 -235.5t51.5 -315q0 -167 -51.5 -309t-140.5 -239.5t-211 -152.5t-261 -55t-260 50.5t-210.5 143.5t-141 235t-51.5 315q0 167 51.5 309t140 240t210.5 153t261 55zM739 1389q-188 0 -304 -170t-116 -490q0 -323 119 -500.5
t314 -177.5q188 0 303.5 169t115.5 489q0 323 -118.5 501.5t-313.5 178.5zM846 1591q-37 0 -82.5 27.5t-87 54.5t-70.5 27q-25 0 -48 -15t-37 -31.5t-44 -56.5h-24q45 242 194 242q36 0 80.5 -26.5t87 -53t72.5 -26.5q35 0 60.5 22t66.5 78h24q-45 -242 -192 -242z" />
    <glyph glyph-name="Odieresis" unicode="&#xd6;" horiz-adv-x="1490" 
d="M745 1470q139 0 260 -50.5t211 -144t141.5 -235.5t51.5 -315q0 -167 -51.5 -309t-140.5 -239.5t-211 -152.5t-261 -55t-260 50.5t-210.5 143.5t-141 235t-51.5 315q0 167 51.5 309t140 240t210.5 153t261 55zM739 1389q-188 0 -304 -170t-116 -490q0 -323 119 -500.5
t314 -177.5q188 0 303.5 169t115.5 489q0 323 -118.5 501.5t-313.5 178.5zM434 1729q0 51 35 87.5t82 36.5q49 0 84 -36.5t35 -87.5q0 -48 -35 -84.5t-84 -36.5q-47 0 -82 36.5t-35 84.5zM821 1729q0 51 34.5 87.5t80.5 36.5q49 0 84 -36.5t35 -87.5q0 -48 -35 -84.5
t-84 -36.5q-46 0 -80.5 37t-34.5 84z" />
    <glyph glyph-name="multiply" unicode="&#xd7;" 
d="M946 88l-334 334l-331 -332l-72 72l332 332l-334 333l76 76l333 -334l332 332l72 -72l-332 -331l334 -334z" />
    <glyph glyph-name="Oslash" unicode="&#xd8;" horiz-adv-x="1490" 
d="M745 1470q137 0 261 -51l81 187l78 -31l-86 -193q154 -89 242 -258t88 -399q0 -167 -51.5 -309t-140.5 -239.5t-211 -152.5t-261 -55q-141 0 -268 54l-84 -189l-78 31l86 194q-149 90 -234 257.5t-85 396.5q0 167 51.5 309t140 240t210.5 153t261 55zM1171 709
q0 363 -149 542l-498 -1122q101 -78 228 -78q188 0 303.5 169t115.5 489zM739 1389q-188 0 -304 -170t-116 -490q0 -356 142 -534l497 1120q-95 74 -219 74z" />
    <glyph glyph-name="Ugrave" unicode="&#xd9;" horiz-adv-x="1480" 
d="M760 -31q-277 0 -400.5 133t-123.5 387v783q0 18 -4.5 25.5t-18.5 15.5l-180 98v29h606v-29l-180 -98q-14 -8 -18.5 -15.5t-4.5 -25.5v-748q0 -211 93.5 -333.5t265.5 -122.5q170 0 271 114.5t101 337.5v709q0 31 -22 47l-191 135v29h514v-29l-186 -135q-22 -16 -22 -47
v-721q0 -163 -52 -282t-165.5 -188t-282.5 -69zM915 1575h-28l-359 291v24h265z" />
    <glyph glyph-name="Uacute" unicode="&#xda;" horiz-adv-x="1480" 
d="M760 -31q-277 0 -400.5 133t-123.5 387v783q0 18 -4.5 25.5t-18.5 15.5l-180 98v29h606v-29l-180 -98q-14 -8 -18.5 -15.5t-4.5 -25.5v-748q0 -211 93.5 -333.5t265.5 -122.5q170 0 271 114.5t101 337.5v709q0 31 -22 47l-191 135v29h514v-29l-186 -135q-22 -16 -22 -47
v-721q0 -163 -52 -282t-165.5 -188t-282.5 -69zM741 1571h-28l125 317h264v-24z" />
    <glyph glyph-name="Ucircumflex" unicode="&#xdb;" horiz-adv-x="1480" 
d="M760 -31q-277 0 -400.5 133t-123.5 387v783q0 18 -4.5 25.5t-18.5 15.5l-180 98v29h606v-29l-180 -98q-14 -8 -18.5 -15.5t-4.5 -25.5v-748q0 -211 93.5 -333.5t265.5 -122.5q170 0 271 114.5t101 337.5v709q0 31 -22 47l-191 135v29h514v-29l-186 -135q-22 -16 -22 -47
v-721q0 -163 -52 -282t-165.5 -188t-282.5 -69zM795 1698l-283 -129l-16 18l286 316h25l287 -316l-17 -18z" />
    <glyph glyph-name="Udieresis" unicode="&#xdc;" horiz-adv-x="1480" 
d="M760 -31q-277 0 -400.5 133t-123.5 387v783q0 18 -4.5 25.5t-18.5 15.5l-180 98v29h606v-29l-180 -98q-14 -8 -18.5 -15.5t-4.5 -25.5v-748q0 -211 93.5 -333.5t265.5 -122.5q170 0 271 114.5t101 337.5v709q0 31 -22 47l-191 135v29h514v-29l-186 -135q-22 -16 -22 -47
v-721q0 -163 -52 -282t-165.5 -188t-282.5 -69zM483 1729q0 51 35 87.5t82 36.5q49 0 84 -36.5t35 -87.5q0 -48 -35 -84.5t-84 -36.5q-47 0 -82 36.5t-35 84.5zM870 1729q0 51 34.5 87.5t80.5 36.5q49 0 84 -36.5t35 -87.5q0 -48 -35 -84.5t-84 -36.5q-46 0 -80.5 37
t-34.5 84z" />
    <glyph glyph-name="Yacute" unicode="&#xdd;" horiz-adv-x="1316" 
d="M963 0h-607v29l181 98q14 8 18 15.5t4 25.5v358q0 43 -16 70l-391 678q-13 25 -23 36t-29 23l-110 78v29h555v-29l-166 -96q-20 -11 -6 -39l342 -602l313 579q8 15 7 23.5t-13 15.5l-184 119v29h510v-29l-174 -117q-21 -13 -28.5 -21.5t-21.5 -33.5l-348 -643
q-16 -31 -16 -70v-358q0 -18 4 -25.5t18 -15.5l181 -98v-29zM643 1571h-29l125 317h265v-24z" />
    <glyph glyph-name="Thorn" unicode="&#xde;" horiz-adv-x="1249" 
d="M467 393h190q138 0 227 98t89 273t-81.5 270.5t-215.5 95.5h-209v-737zM664 311h-197v-143q0 -18 4 -25.5t18 -15.5l181 -98v-29h-607v29l181 98q14 8 18 15.5t4 25.5v1104q0 18 -4 25.5t-18 15.5l-181 98v29h404v-228h211q232 0 374 -114.5t142 -323.5q0 -141 -73 -248
t-192.5 -161t-264.5 -54z" />
    <glyph glyph-name="germandbls" unicode="&#xdf;" horiz-adv-x="1261" 
d="M82 0v25l154 92q14 9 18 16.5t4 24.5v745h-152v98h152v121q0 201 107.5 307.5t289.5 106.5q158 0 266.5 -76.5t108.5 -212.5q0 -30 -6.5 -56.5t-38 -73t-88.5 -95.5l-96 -84q-82 -73 -82 -141q0 -44 31 -73.5t96 -55.5l155 -64q220 -88 220 -293q0 -156 -108 -246
t-284 -90q-145 0 -290 60l75 278h25l90 -221q7 -17 14.5 -23.5t22.5 -11.5q32 -8 59 -8q93 0 159.5 63.5t66.5 155.5q0 68 -41 111.5t-125 77.5l-148 59q-83 34 -131.5 86.5t-48.5 120.5q0 54 31 98.5t100 108.5l88 82q96 90 96 211q0 103 -59 171t-158 68q-98 0 -155.5 -74
t-57.5 -221v-1167h-360z" />
    <glyph glyph-name="agrave" unicode="&#xe0;" horiz-adv-x="1048" 
d="M514 557q84 0 172 -20q0 40 1 95t1 64q0 254 -227 254q-29 0 -53 -4q-23 -4 -33 -26l-127 -236h-25l-69 274q163 68 329 68q201 0 289 -89.5t88 -260.5q0 -90 -4 -250.5t-4 -224.5q0 -52 20 -81.5t54 -29.5q52 0 84 47l18 -16q-15 -67 -66 -105.5t-116 -38.5
q-74 0 -118.5 47.5t-47.5 129.5q-44 -77 -123.5 -127t-179.5 -50q-122 0 -200.5 71t-78.5 188q0 140 115.5 230.5t300.5 90.5zM453 88q69 0 131 46.5t96 131.5q4 114 4 201q-65 12 -119 12q-125 0 -199.5 -62.5t-74.5 -160.5q0 -79 46.5 -123.5t115.5 -44.5zM625 1167h-29
l-358 291v25h264z" />
    <glyph glyph-name="aacute" unicode="&#xe1;" horiz-adv-x="1048" 
d="M514 557q84 0 172 -20q0 40 1 95t1 64q0 254 -227 254q-29 0 -53 -4q-23 -4 -33 -26l-127 -236h-25l-69 274q163 68 329 68q201 0 289 -89.5t88 -260.5q0 -90 -4 -250.5t-4 -224.5q0 -52 20 -81.5t54 -29.5q52 0 84 47l18 -16q-15 -67 -66 -105.5t-116 -38.5
q-74 0 -118.5 47.5t-47.5 129.5q-44 -77 -123.5 -127t-179.5 -50q-122 0 -200.5 71t-78.5 188q0 140 115.5 230.5t300.5 90.5zM453 88q69 0 131 46.5t96 131.5q4 114 4 201q-65 12 -119 12q-125 0 -199.5 -62.5t-74.5 -160.5q0 -79 46.5 -123.5t115.5 -44.5zM451 1163h-29
l125 318h264v-25z" />
    <glyph glyph-name="acircumflex" unicode="&#xe2;" horiz-adv-x="1048" 
d="M514 557q84 0 172 -20q0 40 1 95t1 64q0 254 -227 254q-29 0 -53 -4q-23 -4 -33 -26l-127 -236h-25l-69 274q163 68 329 68q201 0 289 -89.5t88 -260.5q0 -90 -4 -250.5t-4 -224.5q0 -52 20 -81.5t54 -29.5q52 0 84 47l18 -16q-15 -67 -66 -105.5t-116 -38.5
q-74 0 -118.5 47.5t-47.5 129.5q-44 -77 -123.5 -127t-179.5 -50q-122 0 -200.5 71t-78.5 188q0 140 115.5 230.5t300.5 90.5zM453 88q69 0 131 46.5t96 131.5q4 114 4 201q-65 12 -119 12q-125 0 -199.5 -62.5t-74.5 -160.5q0 -79 46.5 -123.5t115.5 -44.5zM504 1290
l-283 -129l-16 19l287 315h24l287 -315l-17 -19z" />
    <glyph glyph-name="atilde" unicode="&#xe3;" horiz-adv-x="1048" 
d="M514 557q84 0 172 -20q0 40 1 95t1 64q0 254 -227 254q-29 0 -53 -4q-23 -4 -33 -26l-127 -236h-25l-69 274q163 68 329 68q201 0 289 -89.5t88 -260.5q0 -90 -4 -250.5t-4 -224.5q0 -52 20 -81.5t54 -29.5q52 0 84 47l18 -16q-15 -67 -66 -105.5t-116 -38.5
q-74 0 -118.5 47.5t-47.5 129.5q-44 -77 -123.5 -127t-179.5 -50q-122 0 -200.5 71t-78.5 188q0 140 115.5 230.5t300.5 90.5zM453 88q69 0 131 46.5t96 131.5q4 114 4 201q-65 12 -119 12q-125 0 -199.5 -62.5t-74.5 -160.5q0 -79 46.5 -123.5t115.5 -44.5zM604 1184
q-37 0 -82 27t-86.5 54t-70.5 27q-25 0 -48 -14.5t-37.5 -31.5t-43.5 -56h-25q45 242 195 242q36 0 80.5 -27t86 -53.5t72.5 -26.5q35 0 60.5 22t66.5 78h25q-45 -241 -193 -241z" />
    <glyph glyph-name="adieresis" unicode="&#xe4;" horiz-adv-x="1048" 
d="M514 557q84 0 172 -20q0 40 1 95t1 64q0 254 -227 254q-29 0 -53 -4q-23 -4 -33 -26l-127 -236h-25l-69 274q163 68 329 68q201 0 289 -89.5t88 -260.5q0 -90 -4 -250.5t-4 -224.5q0 -52 20 -81.5t54 -29.5q52 0 84 47l18 -16q-15 -67 -66 -105.5t-116 -38.5
q-74 0 -118.5 47.5t-47.5 129.5q-44 -77 -123.5 -127t-179.5 -50q-122 0 -200.5 71t-78.5 188q0 140 115.5 230.5t300.5 90.5zM453 88q69 0 131 46.5t96 131.5q4 114 4 201q-65 12 -119 12q-125 0 -199.5 -62.5t-74.5 -160.5q0 -79 46.5 -123.5t115.5 -44.5zM193 1321
q0 51 34.5 88t81.5 37q49 0 84 -37t35 -88q0 -48 -35 -84.5t-84 -36.5q-47 0 -81.5 36.5t-34.5 84.5zM580 1321q0 51 34 88t80 37q49 0 84 -37t35 -88q0 -48 -35 -84.5t-84 -36.5q-45 0 -79.5 36.5t-34.5 84.5z" />
    <glyph glyph-name="aring" unicode="&#xe5;" horiz-adv-x="1048" 
d="M514 557q84 0 172 -20q0 40 1 95t1 64q0 254 -227 254q-29 0 -53 -4q-23 -4 -33 -26l-127 -236h-25l-69 274q163 68 329 68q201 0 289 -89.5t88 -260.5q0 -90 -4 -250.5t-4 -224.5q0 -52 20 -81.5t54 -29.5q52 0 84 47l18 -16q-15 -67 -66 -105.5t-116 -38.5
q-74 0 -118.5 47.5t-47.5 129.5q-44 -77 -123.5 -127t-179.5 -50q-122 0 -200.5 71t-78.5 188q0 140 115.5 230.5t300.5 90.5zM453 88q69 0 131 46.5t96 131.5q4 114 4 201q-65 12 -119 12q-125 0 -199.5 -62.5t-74.5 -160.5q0 -79 46.5 -123.5t115.5 -44.5zM639 1360
q0 57 -39 98t-96 41q-58 0 -97.5 -40.5t-39.5 -98.5t39.5 -98.5t97.5 -40.5q57 0 96 41t39 98zM279 1360q0 97 67 157t158 60q89 0 155 -60t66 -157t-66 -157t-155 -60q-91 0 -158 60t-67 157z" />
    <glyph glyph-name="ae" unicode="&#xe6;" horiz-adv-x="1607" 
d="M862 612h453q-13 332 -209 332q-96 0 -165 -88t-79 -244zM379 -23q-122 0 -201.5 71t-79.5 188q0 141 114.5 231t299.5 90q80 0 158 -16q1 23 9.5 79t8.5 93q0 113 -58.5 175t-168.5 62q-29 0 -53 -4q-23 -4 -33 -26l-127 -236h-25l-69 274q163 68 329 68q238 0 324 -135
q129 135 311 135q84 0 151.5 -24.5t121 -76t83 -140t29.5 -207.5v-43h-643q0 -113 27 -198.5t74 -134.5t105 -72.5t126 -23.5q82 0 164.5 35.5t146.5 106.5l21 -17q-54 -127 -159.5 -191.5t-240.5 -64.5q-128 0 -231 57t-160 165q-37 -96 -140.5 -158t-213.5 -62zM453 88
q73 0 142.5 46t106.5 130q-31 92 -34 205q-62 10 -103 10q-125 0 -199.5 -62.5t-74.5 -160.5q0 -79 46.5 -123.5t115.5 -44.5z" />
    <glyph glyph-name="ccedilla" unicode="&#xe7;" horiz-adv-x="968" 
d="M705 -297q0 -89 -64.5 -136.5t-161.5 -47.5q-81 0 -143 41.5t-82 109.5l18 11q66 -74 162 -74q45 0 79 25.5t34 70.5q0 57 -50 79.5t-124 4.5l-11 8l105 185q-172 22 -277.5 152.5t-105.5 344.5q0 252 147 400.5t379 148.5q139 0 279 -47l-82 -293h-25l-120 232
q-11 20 -23 22q-16 4 -37 4q-138 0 -229.5 -112t-91.5 -316q0 -200 95 -306t240 -106q147 0 261 121l22 -20q-42 -101 -140.5 -165.5t-221.5 -64.5q-25 0 -37 2l-6 -120q84 11 147.5 -31.5t63.5 -122.5z" />
    <glyph glyph-name="egrave" unicode="&#xe8;" horiz-adv-x="1024" 
d="M920 535h-644q0 -118 28.5 -205t78 -134t105.5 -68.5t120 -21.5q82 0 165 35.5t147 106.5l20 -17q-54 -127 -159 -191.5t-240 -64.5q-96 0 -178 32.5t-145 95t-98.5 161.5t-35.5 225q0 130 36 233.5t98.5 169t143.5 100t173 34.5q84 0 151.5 -24.5t121 -76t83 -140
t29.5 -207.5v-43zM522 944q-98 0 -165.5 -87.5t-77.5 -244.5h452q-13 332 -209 332zM666 1167h-29l-358 291v25h264z" />
    <glyph glyph-name="eacute" unicode="&#xe9;" horiz-adv-x="1024" 
d="M920 535h-644q0 -118 28.5 -205t78 -134t105.5 -68.5t120 -21.5q82 0 165 35.5t147 106.5l20 -17q-54 -127 -159 -191.5t-240 -64.5q-96 0 -178 32.5t-145 95t-98.5 161.5t-35.5 225q0 130 36 233.5t98.5 169t143.5 100t173 34.5q84 0 151.5 -24.5t121 -76t83 -140
t29.5 -207.5v-43zM522 944q-98 0 -165.5 -87.5t-77.5 -244.5h452q-13 332 -209 332zM492 1163h-29l125 318h264v-25z" />
    <glyph glyph-name="ecircumflex" unicode="&#xea;" horiz-adv-x="1024" 
d="M920 535h-644q0 -118 28.5 -205t78 -134t105.5 -68.5t120 -21.5q82 0 165 35.5t147 106.5l20 -17q-54 -127 -159 -191.5t-240 -64.5q-96 0 -178 32.5t-145 95t-98.5 161.5t-35.5 225q0 130 36 233.5t98.5 169t143.5 100t173 34.5q84 0 151.5 -24.5t121 -76t83 -140
t29.5 -207.5v-43zM522 944q-98 0 -165.5 -87.5t-77.5 -244.5h452q-13 332 -209 332zM545 1290l-283 -129l-16 19l286 315h25l287 -315l-17 -19z" />
    <glyph glyph-name="edieresis" unicode="&#xeb;" horiz-adv-x="1024" 
d="M920 535h-644q0 -118 28.5 -205t78 -134t105.5 -68.5t120 -21.5q82 0 165 35.5t147 106.5l20 -17q-54 -127 -159 -191.5t-240 -64.5q-96 0 -178 32.5t-145 95t-98.5 161.5t-35.5 225q0 130 36 233.5t98.5 169t143.5 100t173 34.5q84 0 151.5 -24.5t121 -76t83 -140
t29.5 -207.5v-43zM522 944q-98 0 -165.5 -87.5t-77.5 -244.5h452q-13 332 -209 332zM233 1321q0 51 35 88t82 37q49 0 84 -37t35 -88q0 -48 -35 -84.5t-84 -36.5q-47 0 -82 36.5t-35 84.5zM621 1321q0 51 34 88t80 37q49 0 84 -37t35 -88q0 -48 -35 -84.5t-84 -36.5
q-45 0 -79.5 36.5t-34.5 84.5z" />
    <glyph glyph-name="igrave" unicode="&#xec;" horiz-adv-x="651" 
d="M258 158v637q0 25 -16 41l-160 141v24h360v-843q0 -17 4.5 -24.5t18.5 -16.5l153 -92v-25h-536v25l154 92q14 9 18 16.5t4 24.5zM469 1167h-29l-358 291v25h264z" />
    <glyph glyph-name="iacute" unicode="&#xed;" horiz-adv-x="651" 
d="M258 158v637q0 25 -16 41l-160 141v24h360v-843q0 -17 4.5 -24.5t18.5 -16.5l153 -92v-25h-536v25l154 92q14 9 18 16.5t4 24.5zM295 1163h-29l125 318h264v-25z" />
    <glyph glyph-name="icircumflex" unicode="&#xee;" horiz-adv-x="651" 
d="M258 158v637q0 25 -16 41l-160 141v24h360v-843q0 -17 4.5 -24.5t18.5 -16.5l153 -92v-25h-536v25l154 92q14 9 18 16.5t4 24.5zM348 1290l-282 -129l-17 19l287 315h24l287 -315l-16 -19z" />
    <glyph glyph-name="idieresis" unicode="&#xef;" horiz-adv-x="651" 
d="M258 158v637q0 25 -16 41l-160 141v24h360v-843q0 -17 4.5 -24.5t18.5 -16.5l153 -92v-25h-536v25l154 92q14 9 18 16.5t4 24.5zM37 1321q0 51 35 88t82 37q49 0 83.5 -37t34.5 -88q0 -48 -34.5 -84.5t-83.5 -36.5q-47 0 -82 36.5t-35 84.5zM424 1321q0 51 34.5 88
t80.5 37q49 0 83.5 -37t34.5 -88q0 -48 -34.5 -84.5t-83.5 -36.5q-46 0 -80.5 37t-34.5 84z" />
    <glyph glyph-name="eth" unicode="&#xf0;" horiz-adv-x="1153" 
d="M956 1470l-208 -129q149 -128 234 -318t85 -417q0 -187 -57 -329t-170 -222t-269 -80q-78 0 -149.5 20t-133.5 62t-107.5 102t-72 145t-26.5 185q0 128 42 232.5t111 169.5t153.5 100t172.5 35q93 0 169 -39.5t110 -114.5q-54 241 -191 410l-252 -156l-39 68l238 145
q-63 65 -122 98.5t-128 55.5l12 43q179 -40 324 -143l233 145zM868 530q0 108 -25 191t-67 130t-91 70t-103 23q-139 0 -212 -117t-73 -319q0 -214 77 -332.5t199 -118.5q127 0 211 127.5t84 345.5z" />
    <glyph glyph-name="ntilde" unicode="&#xf1;" horiz-adv-x="1284" 
d="M1264 0h-537v25l152 92q17 10 20.5 16.5t3.5 24.5q2 68 2 424q0 94 -16.5 159.5t-47 100t-65.5 49t-80 14.5q-157 0 -254 -180v-567q0 -17 4.5 -24.5t18.5 -16.5l153 -92v-25h-536v25l154 92q14 9 18 16.5t4 24.5v637q0 25 -16 41l-160 141v24h338v-196q110 221 334 221
q161 0 249.5 -103.5t88.5 -308.5q0 -56 -5 -456q0 -17 4.5 -24.5t18.5 -16.5l154 -92v-25zM772 1184q-37 0 -82.5 27t-87 54t-70.5 27q-25 0 -48 -14.5t-37.5 -31.5t-43.5 -56h-24q45 242 194 242q36 0 80.5 -27t86.5 -53.5t73 -26.5q35 0 60.5 22t66.5 78h25
q-45 -241 -193 -241z" />
    <glyph glyph-name="ograve" unicode="&#xf2;" horiz-adv-x="1134" 
d="M561 -25q-97 0 -183.5 34.5t-152.5 99t-104.5 163.5t-38.5 220q0 123 39.5 225t107 168.5t156.5 103.5t188 37q97 0 183.5 -34.5t153 -98.5t105 -163t38.5 -220q0 -123 -39.5 -225t-107.5 -169t-157 -104t-188 -37zM575 57q86 0 147 61t89.5 159.5t28.5 222.5
q0 122 -29 220t-93.5 161t-154.5 63q-88 0 -149.5 -61t-90 -158.5t-28.5 -222.5q0 -123 29 -221t93.5 -161t157.5 -63zM688 1167h-29l-358 291v25h264z" />
    <glyph glyph-name="oacute" unicode="&#xf3;" horiz-adv-x="1134" 
d="M561 -25q-97 0 -183.5 34.5t-152.5 99t-104.5 163.5t-38.5 220q0 123 39.5 225t107 168.5t156.5 103.5t188 37q97 0 183.5 -34.5t153 -98.5t105 -163t38.5 -220q0 -123 -39.5 -225t-107.5 -169t-157 -104t-188 -37zM575 57q86 0 147 61t89.5 159.5t28.5 222.5
q0 122 -29 220t-93.5 161t-154.5 63q-88 0 -149.5 -61t-90 -158.5t-28.5 -222.5q0 -123 29 -221t93.5 -161t157.5 -63zM514 1163h-29l125 318h264v-25z" />
    <glyph glyph-name="ocircumflex" unicode="&#xf4;" horiz-adv-x="1134" 
d="M561 -25q-97 0 -183.5 34.5t-152.5 99t-104.5 163.5t-38.5 220q0 123 39.5 225t107 168.5t156.5 103.5t188 37q97 0 183.5 -34.5t153 -98.5t105 -163t38.5 -220q0 -123 -39.5 -225t-107.5 -169t-157 -104t-188 -37zM575 57q86 0 147 61t89.5 159.5t28.5 222.5
q0 122 -29 220t-93.5 161t-154.5 63q-88 0 -149.5 -61t-90 -158.5t-28.5 -222.5q0 -123 29 -221t93.5 -161t157.5 -63zM565 1290l-282 -129l-17 19l287 315h25l286 -315l-16 -19z" />
    <glyph glyph-name="otilde" unicode="&#xf5;" horiz-adv-x="1134" 
d="M561 -25q-97 0 -183.5 34.5t-152.5 99t-104.5 163.5t-38.5 220q0 123 39.5 225t107 168.5t156.5 103.5t188 37q97 0 183.5 -34.5t153 -98.5t105 -163t38.5 -220q0 -123 -39.5 -225t-107.5 -169t-157 -104t-188 -37zM575 57q86 0 147 61t89.5 159.5t28.5 222.5
q0 122 -29 220t-93.5 161t-154.5 63q-88 0 -149.5 -61t-90 -158.5t-28.5 -222.5q0 -123 29 -221t93.5 -161t157.5 -63zM668 1184q-37 0 -82.5 27t-87 54t-70.5 27q-25 0 -48 -14.5t-37.5 -31.5t-43.5 -56h-25q45 242 195 242q36 0 80.5 -27t86.5 -53.5t73 -26.5
q35 0 60.5 22t66.5 78h24q-45 -241 -192 -241z" />
    <glyph glyph-name="odieresis" unicode="&#xf6;" horiz-adv-x="1134" 
d="M561 -25q-97 0 -183.5 34.5t-152.5 99t-104.5 163.5t-38.5 220q0 123 39.5 225t107 168.5t156.5 103.5t188 37q97 0 183.5 -34.5t153 -98.5t105 -163t38.5 -220q0 -123 -39.5 -225t-107.5 -169t-157 -104t-188 -37zM575 57q86 0 147 61t89.5 159.5t28.5 222.5
q0 122 -29 220t-93.5 161t-154.5 63q-88 0 -149.5 -61t-90 -158.5t-28.5 -222.5q0 -123 29 -221t93.5 -161t157.5 -63zM256 1321q0 51 35 88t82 37q49 0 84 -37t35 -88q0 -48 -35 -84.5t-84 -36.5q-47 0 -82 36.5t-35 84.5zM643 1321q0 51 34.5 88t80.5 37q49 0 84 -37
t35 -88q0 -48 -35 -84.5t-84 -36.5q-46 0 -80.5 37t-34.5 84z" />
    <glyph glyph-name="divide" unicode="&#xf7;" 
d="M489 791q0 59 34 94t91 35t91 -34.5t34 -92.5q0 -59 -34 -95t-91 -36t-91 35t-34 94zM1065 444h-901v103h901v-103zM489 201q0 59 34 94t91 35t91 -34.5t34 -92.5q0 -59 -34 -95t-91 -36t-91 35t-34 94z" />
    <glyph glyph-name="oslash" unicode="&#xf8;" horiz-adv-x="1144" 
d="M561 -25q-92 0 -174 31l-80 -182l-67 31l79 182q-110 62 -173.5 178.5t-63.5 276.5q0 123 39.5 225t107 168.5t156.5 103.5t188 37q85 0 170 -29l76 172l68 -30l-76 -172q111 -63 176.5 -180t65.5 -277q0 -123 -39.5 -225t-107.5 -169t-157 -104t-188 -37zM575 57
q86 0 147 61t89.5 159.5t28.5 222.5q0 214 -86 338l-322 -732q62 -49 143 -49zM295 502q0 -211 82 -336l321 731q-56 47 -135 47q-88 0 -149.5 -61t-90 -158.5t-28.5 -222.5z" />
    <glyph glyph-name="ugrave" unicode="&#xf9;" horiz-adv-x="1216" 
d="M1167 0h-323v197q-134 -222 -344 -222q-145 0 -226 98.5t-81 295.5q0 77 2 211t2 215q0 19 -3.5 26.5t-17.5 18.5l-156 137v24h363q-4 -68 -4 -593q0 -47 1.5 -76.5t6.5 -70.5t17.5 -66.5t32 -50t52 -36.5t76.5 -12q76 0 143 49t113 131v519q0 19 -3.5 27t-16.5 18
l-156 137v24h361v-796q0 -15 3.5 -22.5t18.5 -22.5l139 -135v-25zM702 1167h-28l-359 291v25h265z" />
    <glyph glyph-name="uacute" unicode="&#xfa;" horiz-adv-x="1216" 
d="M1167 0h-323v197q-134 -222 -344 -222q-145 0 -226 98.5t-81 295.5q0 77 2 211t2 215q0 19 -3.5 26.5t-17.5 18.5l-156 137v24h363q-4 -68 -4 -593q0 -47 1.5 -76.5t6.5 -70.5t17.5 -66.5t32 -50t52 -36.5t76.5 -12q76 0 143 49t113 131v519q0 19 -3.5 27t-16.5 18
l-156 137v24h361v-796q0 -15 3.5 -22.5t18.5 -22.5l139 -135v-25zM528 1163h-28l125 318h264v-25z" />
    <glyph glyph-name="ucircumflex" unicode="&#xfb;" horiz-adv-x="1216" 
d="M1167 0h-323v197q-134 -222 -344 -222q-145 0 -226 98.5t-81 295.5q0 77 2 211t2 215q0 19 -3.5 26.5t-17.5 18.5l-156 137v24h363q-4 -68 -4 -593q0 -47 1.5 -76.5t6.5 -70.5t17.5 -66.5t32 -50t52 -36.5t76.5 -12q76 0 143 49t113 131v519q0 19 -3.5 27t-16.5 18
l-156 137v24h361v-796q0 -15 3.5 -22.5t18.5 -22.5l139 -135v-25zM582 1290l-283 -129l-16 19l286 315h25l287 -315l-17 -19z" />
    <glyph glyph-name="udieresis" unicode="&#xfc;" horiz-adv-x="1216" 
d="M1167 0h-323v197q-134 -222 -344 -222q-145 0 -226 98.5t-81 295.5q0 77 2 211t2 215q0 19 -3.5 26.5t-17.5 18.5l-156 137v24h363q-4 -68 -4 -593q0 -47 1.5 -76.5t6.5 -70.5t17.5 -66.5t32 -50t52 -36.5t76.5 -12q76 0 143 49t113 131v519q0 19 -3.5 27t-16.5 18
l-156 137v24h361v-796q0 -15 3.5 -22.5t18.5 -22.5l139 -135v-25zM270 1321q0 51 35 88t82 37q49 0 84 -37t35 -88q0 -48 -35 -84.5t-84 -36.5q-47 0 -82 36.5t-35 84.5zM657 1321q0 51 34.5 88t80.5 37q49 0 84 -37t35 -88q0 -48 -35 -84.5t-84 -36.5q-46 0 -80.5 37
t-34.5 84z" />
    <glyph glyph-name="yacute" unicode="&#xfd;" horiz-adv-x="1019" 
d="M141 -502q-56 0 -86 23l72 303h25l100 -139q14 -21 27 -21q24 0 55 45q41 56 67.5 107t55.5 127q11 29 2 49l-344 850q-10 25 -31 49l-84 86v24h461v-24l-139 -98q-12 -8 -14.5 -14.5t1.5 -20.5l248 -647l254 653q8 18 -8 29l-162 98v24h399v-24l-114 -103
q-8 -7 -10.5 -9.5t-6.5 -7t-6.5 -9.5t-5.5 -12l-326 -834q-120 -307 -233 -416q-88 -88 -197 -88zM504 1163h-29l125 318h264v-25z" />
    <glyph glyph-name="thorn" unicode="&#xfe;" horiz-adv-x="1173" 
d="M586 63q126 0 212.5 116.5t86.5 338.5q0 175 -75 283t-196 108q-147 0 -233 -143v-590q78 -113 205 -113zM381 1536v-666q114 156 299 156q83 0 156.5 -33.5t129.5 -95t88.5 -156.5t32.5 -211q0 -130 -40 -237.5t-105.5 -175.5t-147.5 -105t-169 -37q-74 0 -139 26
t-105 71v-379q0 -20 5 -27.5t22 -15.5l237 -107v-24h-625v24l154 92q14 9 18.5 16.5t4.5 24.5v1622q0 26 -19 43l-123 103v24z" />
    <glyph glyph-name="ydieresis" unicode="&#xff;" horiz-adv-x="1019" 
d="M141 -502q-56 0 -86 23l72 303h25l100 -139q14 -21 27 -21q24 0 55 45q41 56 67.5 107t55.5 127q11 29 2 49l-344 850q-10 25 -31 49l-84 86v24h461v-24l-139 -98q-12 -8 -14.5 -14.5t1.5 -20.5l248 -647l254 653q8 18 -8 29l-162 98v24h399v-24l-114 -103
q-8 -7 -10.5 -9.5t-6.5 -7t-6.5 -9.5t-5.5 -12l-326 -834q-120 -307 -233 -416q-88 -88 -197 -88zM246 1321q0 51 34.5 88t81.5 37q49 0 84 -37t35 -88q0 -48 -35 -84.5t-84 -36.5q-47 0 -81.5 36.5t-34.5 84.5zM633 1321q0 51 34.5 88t80.5 37q49 0 83.5 -37t34.5 -88
q0 -48 -34.5 -84.5t-83.5 -36.5q-46 0 -80.5 37t-34.5 84z" />
    <glyph glyph-name="Amacron" unicode="&#x100;" horiz-adv-x="1406" 
d="M1034 168l-104 274h-537l-90 -243q-8 -20 -4 -30.5t25 -23.5l180 -116v-29h-516v29l166 110q22 15 30.5 24t16.5 32l381 1024q8 20 7.5 31t-9.5 28l-78 141v21h254l491 -1276q9 -24 15 -31.5t24 -19.5l127 -84v-29h-565v29l176 102q12 6 14 13t-4 24zM657 1163l-235 -639
h477zM928 1645h-541v114h541v-114z" />
    <glyph glyph-name="amacron" unicode="&#x101;" horiz-adv-x="1048" 
d="M514 557q84 0 172 -20q0 40 1 95t1 64q0 254 -227 254q-29 0 -53 -4q-23 -4 -33 -26l-127 -236h-25l-69 274q163 68 329 68q201 0 289 -89.5t88 -260.5q0 -90 -4 -250.5t-4 -224.5q0 -52 20 -81.5t54 -29.5q52 0 84 47l18 -16q-15 -67 -66 -105.5t-116 -38.5
q-74 0 -118.5 47.5t-47.5 129.5q-44 -77 -123.5 -127t-179.5 -50q-122 0 -200.5 71t-78.5 188q0 140 115.5 230.5t300.5 90.5zM453 88q69 0 131 46.5t96 131.5q4 114 4 201q-65 12 -119 12q-125 0 -199.5 -62.5t-74.5 -160.5q0 -79 46.5 -123.5t115.5 -44.5zM774 1237h-541
v115h541v-115z" />
    <glyph glyph-name="Abreve" unicode="&#x102;" horiz-adv-x="1406" 
d="M1034 168l-104 274h-537l-90 -243q-8 -20 -4 -30.5t25 -23.5l180 -116v-29h-516v29l166 110q22 15 30.5 24t16.5 32l381 1024q8 20 7.5 31t-9.5 28l-78 141v21h254l491 -1276q9 -24 15 -31.5t24 -19.5l127 -84v-29h-565v29l176 102q12 6 14 13t-4 24zM657 1163l-235 -639
h477zM657 1571q-110 0 -180 78t-61 227h24q18 -83 76.5 -122.5t140.5 -39.5q83 0 143.5 39.5t78.5 122.5h24q9 -148 -63 -226.5t-183 -78.5z" />
    <glyph glyph-name="abreve" unicode="&#x103;" horiz-adv-x="1048" 
d="M514 557q84 0 172 -20q0 40 1 95t1 64q0 254 -227 254q-29 0 -53 -4q-23 -4 -33 -26l-127 -236h-25l-69 274q163 68 329 68q201 0 289 -89.5t88 -260.5q0 -90 -4 -250.5t-4 -224.5q0 -52 20 -81.5t54 -29.5q52 0 84 47l18 -16q-15 -67 -66 -105.5t-116 -38.5
q-74 0 -118.5 47.5t-47.5 129.5q-44 -77 -123.5 -127t-179.5 -50q-122 0 -200.5 71t-78.5 188q0 140 115.5 230.5t300.5 90.5zM453 88q69 0 131 46.5t96 131.5q4 114 4 201q-65 12 -119 12q-125 0 -199.5 -62.5t-74.5 -160.5q0 -79 46.5 -123.5t115.5 -44.5zM504 1163
q-53 0 -97.5 18.5t-79 55t-52 96t-13.5 135.5h25q18 -83 76 -122t141 -39t143 39t78 122h25q9 -148 -63 -226.5t-183 -78.5z" />
    <glyph glyph-name="Aogonek" unicode="&#x104;" horiz-adv-x="1406" 
d="M1393 -319l18 -11q-29 -73 -87 -112t-134 -39q-78 0 -133.5 52t-55.5 132q0 87 68.5 165t200.5 132h-422v29l176 102q12 6 14 13t-4 24l-104 274h-537l-90 -243q-8 -20 -4 -30.5t25 -23.5l180 -116v-29h-516v29l166 110q22 15 30.5 24t16.5 32l381 1024q8 20 7.5 31
t-9.5 28l-78 141v21h254l491 -1276q9 -24 15 -31.5t24 -19.5l127 -84v-29q-69 0 -122.5 -26t-82.5 -66.5t-43 -82t-14 -79.5q0 -56 35.5 -90.5t85.5 -34.5q70 0 121 60zM657 1163l-235 -639h477z" />
    <glyph glyph-name="aogonek" unicode="&#x105;" horiz-adv-x="1048" 
d="M514 557q84 0 172 -20q0 40 1 95t1 64q0 254 -227 254q-29 0 -53 -4q-23 -4 -33 -26l-127 -236h-25l-69 274q163 68 329 68q201 0 289 -89.5t88 -260.5q0 -90 -4 -250.5t-4 -224.5q0 -52 20 -81.5t54 -29.5q52 0 84 47l18 -16q-17 -82 -90 -121q-72 -40 -113 -115
t-41 -139q0 -56 35.5 -90.5t85.5 -34.5q70 0 121 60l18 -11q-29 -73 -87 -112t-134 -39q-78 0 -133 52t-55 132q0 78 55.5 149.5t163.5 124.5q-81 0 -126 47t-48 130q-44 -77 -123.5 -127t-179.5 -50q-122 0 -200.5 71t-78.5 188q0 140 115.5 230.5t300.5 90.5zM453 88
q69 0 131 46.5t96 131.5q4 114 4 201q-65 12 -119 12q-125 0 -199.5 -62.5t-74.5 -160.5q0 -79 46.5 -123.5t115.5 -44.5z" />
    <glyph glyph-name="Cacute" unicode="&#x106;" horiz-adv-x="1306" 
d="M795 -31q-174 0 -311 57t-224 159t-132.5 238.5t-45.5 299.5q0 216 88 385.5t254 265.5t385 96q167 0 367 -49v-409h-27l-186 334q-10 20 -17 24.5t-31 9.5q-56 9 -110 9q-123 0 -217.5 -49.5t-153 -138.5t-88 -207t-29.5 -261q0 -321 123 -501.5t369 -180.5q57 0 104 8
q25 4 32 9t16 22l190 340h27v-410q-168 -51 -383 -51zM727 1571h-29l125 317h264v-24z" />
    <glyph glyph-name="cacute" unicode="&#x107;" horiz-adv-x="968" 
d="M281 516q0 -200 95 -306t240 -106q147 0 261 121l22 -20q-42 -101 -140.5 -165.5t-221.5 -64.5q-201 0 -327 133t-126 369q0 252 147 400.5t379 148.5q139 0 279 -47l-82 -293h-25l-120 232q-11 20 -23 22q-16 4 -37 4q-138 0 -229.5 -112t-91.5 -316zM506 1163h-29
l125 318h264v-25z" />
    <glyph glyph-name="Ccircumflex" unicode="&#x108;" horiz-adv-x="1306" 
d="M795 -31q-174 0 -311 57t-224 159t-132.5 238.5t-45.5 299.5q0 216 88 385.5t254 265.5t385 96q167 0 367 -49v-409h-27l-186 334q-10 20 -17 24.5t-31 9.5q-56 9 -110 9q-123 0 -217.5 -49.5t-153 -138.5t-88 -207t-29.5 -261q0 -321 123 -501.5t369 -180.5q57 0 104 8
q25 4 32 9t16 22l190 340h27v-410q-168 -51 -383 -51zM780 1698l-282 -129l-17 18l287 316h25l286 -316l-16 -18z" />
    <glyph glyph-name="ccircumflex" unicode="&#x109;" horiz-adv-x="968" 
d="M281 516q0 -200 95 -306t240 -106q147 0 261 121l22 -20q-42 -101 -140.5 -165.5t-221.5 -64.5q-201 0 -327 133t-126 369q0 252 147 400.5t379 148.5q139 0 279 -47l-82 -293h-25l-120 232q-11 20 -23 22q-16 4 -37 4q-138 0 -229.5 -112t-91.5 -316zM559 1290
l-283 -129l-16 19l287 315h24l287 -315l-16 -19z" />
    <glyph glyph-name="Cdotaccent" unicode="&#x10a;" horiz-adv-x="1306" 
d="M795 -31q-174 0 -311 57t-224 159t-132.5 238.5t-45.5 299.5q0 216 88 385.5t254 265.5t385 96q167 0 367 -49v-409h-27l-186 334q-10 20 -17 24.5t-31 9.5q-56 9 -110 9q-123 0 -217.5 -49.5t-153 -138.5t-88 -207t-29.5 -261q0 -321 123 -501.5t369 -180.5q57 0 104 8
q25 4 32 9t16 22l190 340h27v-410q-168 -51 -383 -51zM651 1761q0 58 37.5 97.5t91.5 39.5q57 0 95 -39t38 -98q0 -56 -38 -94.5t-95 -38.5q-54 0 -91.5 38.5t-37.5 94.5z" />
    <glyph glyph-name="cdotaccent" unicode="&#x10b;" horiz-adv-x="968" 
d="M281 516q0 -200 95 -306t240 -106q147 0 261 121l22 -20q-42 -101 -140.5 -165.5t-221.5 -64.5q-201 0 -327 133t-126 369q0 252 147 400.5t379 148.5q139 0 279 -47l-82 -293h-25l-120 232q-11 20 -23 22q-16 4 -37 4q-138 0 -229.5 -112t-91.5 -316zM430 1354
q0 58 37.5 97.5t91.5 39.5q57 0 95 -39t38 -98q0 -56 -38 -94.5t-95 -38.5q-54 0 -91.5 38.5t-37.5 94.5z" />
    <glyph glyph-name="Ccaron" unicode="&#x10c;" horiz-adv-x="1306" 
d="M795 -31q-174 0 -311 57t-224 159t-132.5 238.5t-45.5 299.5q0 216 88 385.5t254 265.5t385 96q167 0 367 -49v-409h-27l-186 334q-10 20 -17 24.5t-31 9.5q-56 9 -110 9q-123 0 -217.5 -49.5t-153 -138.5t-88 -207t-29.5 -261q0 -321 123 -501.5t369 -180.5q57 0 104 8
q25 4 32 9t16 22l190 340h27v-410q-168 -51 -383 -51zM793 1577h-25l-287 315l17 19l282 -129l283 129l16 -19z" />
    <glyph glyph-name="ccaron" unicode="&#x10d;" horiz-adv-x="968" 
d="M281 516q0 -200 95 -306t240 -106q147 0 261 121l22 -20q-42 -101 -140.5 -165.5t-221.5 -64.5q-201 0 -327 133t-126 369q0 252 147 400.5t379 148.5q139 0 279 -47l-82 -293h-25l-120 232q-11 20 -23 22q-16 4 -37 4q-138 0 -229.5 -112t-91.5 -316zM571 1169h-24
l-287 316l16 18l283 -129l283 129l16 -18z" />
    <glyph glyph-name="Dcaron" unicode="&#x10e;" horiz-adv-x="1452" 
d="M647 0h-584v29l181 98q14 8 18 15.5t4 25.5v1104q0 18 -4 25.5t-18 15.5l-181 98v29h607q153 0 281.5 -47.5t221.5 -135.5t145 -220.5t52 -295.5q0 -153 -46.5 -280.5t-121 -211t-171 -141.5t-193.5 -83t-191 -25zM643 82q76 0 145 22t132.5 71.5t110.5 123.5t74.5 185.5
t27.5 248.5q0 299 -125 462t-346 163h-168q-17 0 -22 -5t-5 -24v-1218q0 -19 5 -24t22 -5h149zM684 1577h-25l-286 315l16 19l283 -129l282 129l17 -19z" />
    <glyph glyph-name="dcaron" unicode="&#x10f;" horiz-adv-x="1310" 
d="M557 92q72 0 138.5 42.5t101.5 123.5v586q-36 42 -94 67t-115 25q-55 0 -106.5 -25t-95.5 -74.5t-70.5 -135.5t-26.5 -197q0 -197 77 -304.5t191 -107.5zM1143 0h-324v178q-43 -94 -127 -148.5t-188 -54.5q-80 0 -154.5 34.5t-133.5 97t-94.5 161t-35.5 217.5
q0 126 39.5 230t105.5 171t150 103.5t176 36.5q136 0 240 -80v352q0 26 -19 43l-123 103v24l326 68v-1331q0 -15 4 -22.5t19 -22.5l139 -135v-25zM1403 1440v-25l-209 -428h-25l19 453h215z" />
    <glyph glyph-name="Dcroat" unicode="&#x110;" horiz-adv-x="1497" 
d="M692 0h-583v29l180 98q14 8 18 15.5t4 25.5v518h-182v82h182v504q0 18 -4 25.5t-18 15.5l-180 98v29h606q153 0 281.5 -47.5t221.5 -135.5t145 -220.5t52 -295.5q0 -153 -46.5 -280.5t-121 -211t-171 -141.5t-193.5 -83t-191 -25zM688 82q76 0 145 22t132.5 71.5
t110.5 123.5t74.5 185.5t27.5 248.5q0 299 -125 462t-346 163h-168q-17 0 -22 -5t-5 -24v-561h274v-82h-274v-575q0 -19 5 -24t22 -5h149z" />
    <glyph glyph-name="dcroat" unicode="&#x111;" horiz-adv-x="1191" 
d="M1143 1128h-162v-923q0 -15 4 -22.5t19 -22.5l139 -135v-25h-324v178q-43 -94 -127 -148.5t-188 -54.5q-80 0 -154.5 34.5t-133.5 97t-94.5 161t-35.5 217.5q0 126 39.5 230t105.5 171t150 103.5t176 36.5q136 0 240 -80v182h-310v78h310v92q0 26 -19 43l-123 103v24
l326 68v-330h162v-78zM557 92q72 0 138.5 42.5t101.5 123.5v586q-36 42 -94 67t-115 25q-55 0 -106.5 -25t-95.5 -74.5t-70.5 -135.5t-26.5 -197q0 -197 77 -304.5t191 -107.5z" />
    <glyph glyph-name="Emacron" unicode="&#x112;" horiz-adv-x="1290" 
d="M954 492h-24l-115 163q-12 18 -20.5 22.5t-28.5 4.5h-299v-571q0 -19 5 -24t22 -5h419q21 0 29 4.5t19 22.5l180 284h26v-393h-1104v29l181 98q14 8 18 15.5t4 25.5v1104q0 18 -4 25.5t-18 15.5l-181 98v29h1092v-396h-27l-165 287q-9 18 -16.5 22.5t-28.5 4.5h-424
q-17 0 -22 -5t-5 -24v-565h299q20 0 28.5 4.5t20.5 22.5l115 161h24v-460zM944 1645h-541v114h541v-114z" />
    <glyph glyph-name="emacron" unicode="&#x113;" horiz-adv-x="1024" 
d="M920 535h-644q0 -118 28.5 -205t78 -134t105.5 -68.5t120 -21.5q82 0 165 35.5t147 106.5l20 -17q-54 -127 -159 -191.5t-240 -64.5q-96 0 -178 32.5t-145 95t-98.5 161.5t-35.5 225q0 130 36 233.5t98.5 169t143.5 100t173 34.5q84 0 151.5 -24.5t121 -76t83 -140
t29.5 -207.5v-43zM522 944q-98 0 -165.5 -87.5t-77.5 -244.5h452q-13 332 -209 332zM815 1237h-541v115h541v-115z" />
    <glyph glyph-name="Ebreve" unicode="&#x114;" horiz-adv-x="1290" 
d="M954 492h-24l-115 163q-12 18 -20.5 22.5t-28.5 4.5h-299v-571q0 -19 5 -24t22 -5h419q21 0 29 4.5t19 22.5l180 284h26v-393h-1104v29l181 98q14 8 18 15.5t4 25.5v1104q0 18 -4 25.5t-18 15.5l-181 98v29h1092v-396h-27l-165 287q-9 18 -16.5 22.5t-28.5 4.5h-424
q-17 0 -22 -5t-5 -24v-565h299q20 0 28.5 4.5t20.5 22.5l115 161h24v-460zM674 1571q-53 0 -97.5 18.5t-79 55t-52 96t-13.5 135.5h25q18 -83 76.5 -122.5t140.5 -39.5q83 0 143 39.5t78 122.5h25q9 -148 -63 -226.5t-183 -78.5z" />
    <glyph glyph-name="ebreve" unicode="&#x115;" horiz-adv-x="1024" 
d="M920 535h-644q0 -118 28.5 -205t78 -134t105.5 -68.5t120 -21.5q82 0 165 35.5t147 106.5l20 -17q-54 -127 -159 -191.5t-240 -64.5q-96 0 -178 32.5t-145 95t-98.5 161.5t-35.5 225q0 130 36 233.5t98.5 169t143.5 100t173 34.5q84 0 151.5 -24.5t121 -76t83 -140
t29.5 -207.5v-43zM522 944q-98 0 -165.5 -87.5t-77.5 -244.5h452q-13 332 -209 332zM545 1163q-53 0 -97.5 18.5t-79 55t-52 96t-13.5 135.5h25q18 -83 76 -122t141 -39t143 39t78 122h25q9 -148 -63 -226.5t-183 -78.5z" />
    <glyph glyph-name="Edotaccent" unicode="&#x116;" horiz-adv-x="1290" 
d="M954 492h-24l-115 163q-12 18 -20.5 22.5t-28.5 4.5h-299v-571q0 -19 5 -24t22 -5h419q21 0 29 4.5t19 22.5l180 284h26v-393h-1104v29l181 98q14 8 18 15.5t4 25.5v1104q0 18 -4 25.5t-18 15.5l-181 98v29h1092v-396h-27l-165 287q-9 18 -16.5 22.5t-28.5 4.5h-424
q-17 0 -22 -5t-5 -24v-565h299q20 0 28.5 4.5t20.5 22.5l115 161h24v-460zM545 1761q0 58 37.5 97.5t91.5 39.5q57 0 95 -39t38 -98q0 -56 -38 -94.5t-95 -38.5q-54 0 -91.5 38.5t-37.5 94.5z" />
    <glyph glyph-name="edotaccent" unicode="&#x117;" horiz-adv-x="1024" 
d="M920 535h-644q0 -118 28.5 -205t78 -134t105.5 -68.5t120 -21.5q82 0 165 35.5t147 106.5l20 -17q-54 -127 -159 -191.5t-240 -64.5q-96 0 -178 32.5t-145 95t-98.5 161.5t-35.5 225q0 130 36 233.5t98.5 169t143.5 100t173 34.5q84 0 151.5 -24.5t121 -76t83 -140
t29.5 -207.5v-43zM522 944q-98 0 -165.5 -87.5t-77.5 -244.5h452q-13 332 -209 332zM416 1354q0 58 37.5 97.5t91.5 39.5q57 0 95 -39t38 -98q0 -56 -38 -94.5t-95 -38.5q-54 0 -91.5 38.5t-37.5 94.5z" />
    <glyph glyph-name="Eogonek" unicode="&#x118;" horiz-adv-x="1290" 
d="M1149 -319l18 -11q-29 -73 -87 -112t-134 -39q-78 0 -133 52t-55 132q0 87 68 165t200 132h-963v29l181 98q14 8 18 15.5t4 25.5v1104q0 18 -4 25.5t-18 15.5l-181 98v29h1092v-396h-27l-165 287q-9 18 -16.5 22.5t-28.5 4.5h-424q-17 0 -22 -5t-5 -24v-565h299
q20 0 28.5 4.5t20.5 22.5l115 161h24v-460h-24l-115 163q-12 18 -20.5 22.5t-28.5 4.5h-299v-571q0 -19 5 -24t22 -5h419q21 0 29 4.5t19 22.5l180 284h26v-393q-69 0 -122 -25t-81.5 -65t-42.5 -81.5t-14 -82.5q0 -56 35.5 -90.5t85.5 -34.5q70 0 121 60z" />
    <glyph glyph-name="eogonek" unicode="&#x119;" horiz-adv-x="1024" 
d="M920 535h-644q0 -118 28.5 -205t78 -134t105.5 -68.5t120 -21.5q82 0 165 35.5t147 106.5l20 -17q-66 -157 -225 -227q-154 -68 -154 -248q0 -64 35 -99.5t86 -35.5q70 0 121 60l18 -11q-29 -73 -87 -112t-134 -39q-78 0 -133 52t-55 132q0 180 204 279q-44 -7 -75 -7
q-96 0 -178 32.5t-145 95t-98.5 161.5t-35.5 225q0 130 36 233.5t98.5 169t143.5 100t173 34.5q84 0 151.5 -24.5t121 -76t83 -140t29.5 -207.5v-43zM522 944q-98 0 -165.5 -87.5t-77.5 -244.5h452q-13 332 -209 332z" />
    <glyph glyph-name="Ecaron" unicode="&#x11a;" horiz-adv-x="1290" 
d="M954 492h-24l-115 163q-12 18 -20.5 22.5t-28.5 4.5h-299v-571q0 -19 5 -24t22 -5h419q21 0 29 4.5t19 22.5l180 284h26v-393h-1104v29l181 98q14 8 18 15.5t4 25.5v1104q0 18 -4 25.5t-18 15.5l-181 98v29h1092v-396h-27l-165 287q-9 18 -16.5 22.5t-28.5 4.5h-424
q-17 0 -22 -5t-5 -24v-565h299q20 0 28.5 4.5t20.5 22.5l115 161h24v-460zM686 1577h-24l-287 315l16 19l283 -129l282 129l17 -19z" />
    <glyph glyph-name="ecaron" unicode="&#x11b;" horiz-adv-x="1024" 
d="M920 535h-644q0 -118 28.5 -205t78 -134t105.5 -68.5t120 -21.5q82 0 165 35.5t147 106.5l20 -17q-54 -127 -159 -191.5t-240 -64.5q-96 0 -178 32.5t-145 95t-98.5 161.5t-35.5 225q0 130 36 233.5t98.5 169t143.5 100t173 34.5q84 0 151.5 -24.5t121 -76t83 -140
t29.5 -207.5v-43zM522 944q-98 0 -165.5 -87.5t-77.5 -244.5h452q-13 332 -209 332zM557 1169h-25l-286 316l16 18l283 -129l282 129l17 -18z" />
    <glyph glyph-name="Gcircumflex" unicode="&#x11c;" horiz-adv-x="1437" 
d="M770 -31q-169 0 -300 54.5t-216 154.5t-128.5 240t-43.5 313q0 215 87.5 381t258.5 262t403 96q214 0 398 -49v-409h-27l-186 334q-9 17 -17 22t-30 10q-53 11 -133 11q-254 0 -387.5 -173t-133.5 -473q0 -219 51 -371t163 -236.5t282 -84.5q82 0 176 23q28 8 34.5 14.5
t6.5 28.5v354q0 18 -4 25.5t-18 15.5l-162 94v29h565v-29l-158 -94q-14 -8 -18 -15.5t-4 -25.5v-502l-187 39q-143 -39 -272 -39zM776 1698l-282 -129l-17 18l287 316h24l287 -316l-16 -18z" />
    <glyph glyph-name="gcircumflex" unicode="&#x11d;" horiz-adv-x="1110" 
d="M510 -502q-79 0 -158 16.5t-146 48t-109 83t-42 114.5q0 77 63 136.5t173 87.5q-70 14 -116 64t-46 114q0 73 60.5 127.5t154.5 79.5q-94 32 -161.5 116.5t-67.5 200.5q0 154 118 247t291 93q145 0 240 -59q21 -12 31 -13t26 11l230 202h24v-262h-223q37 -28 67.5 -87.5
t30.5 -133.5q0 -102 -59.5 -182.5t-155.5 -122t-209 -41.5q-60 0 -112 10q-59 -12 -92 -41t-33 -67q0 -90 178 -90h223q155 0 245.5 -73t90.5 -200q0 -112 -74 -200.5t-190.5 -133.5t-251.5 -45zM532 416q97 0 161.5 73.5t64.5 198.5t-64 192.5t-162 67.5q-97 0 -161 -67.5
t-64 -192.5q0 -126 64.5 -199t160.5 -73zM539 -416q145 0 245.5 64t100.5 166q0 71 -55 108t-175 41l-260 10q-15 1 -22 1.5t-8 0.5t-5 0.5l-12 1.5q-56 -26 -86.5 -73t-30.5 -107q0 -103 88 -158t220 -55zM557 1290l-283 -129l-16 19l287 315h24l287 -315l-16 -19z" />
    <glyph glyph-name="Gbreve" unicode="&#x11e;" horiz-adv-x="1437" 
d="M770 -31q-169 0 -300 54.5t-216 154.5t-128.5 240t-43.5 313q0 215 87.5 381t258.5 262t403 96q214 0 398 -49v-409h-27l-186 334q-9 17 -17 22t-30 10q-53 11 -133 11q-254 0 -387.5 -173t-133.5 -473q0 -219 51 -371t163 -236.5t282 -84.5q82 0 176 23q28 8 34.5 14.5
t6.5 28.5v354q0 18 -4 25.5t-18 15.5l-162 94v29h565v-29l-158 -94q-14 -8 -18 -15.5t-4 -25.5v-502l-187 39q-143 -39 -272 -39zM776 1571q-110 0 -180 78t-61 227h24q18 -83 76.5 -122.5t140.5 -39.5q83 0 143 39.5t78 122.5h25q9 -148 -63 -226.5t-183 -78.5z" />
    <glyph glyph-name="gbreve" unicode="&#x11f;" horiz-adv-x="1110" 
d="M510 -502q-79 0 -158 16.5t-146 48t-109 83t-42 114.5q0 77 63 136.5t173 87.5q-70 14 -116 64t-46 114q0 73 60.5 127.5t154.5 79.5q-94 32 -161.5 116.5t-67.5 200.5q0 154 118 247t291 93q145 0 240 -59q21 -12 31 -13t26 11l230 202h24v-262h-223q37 -28 67.5 -87.5
t30.5 -133.5q0 -102 -59.5 -182.5t-155.5 -122t-209 -41.5q-60 0 -112 10q-59 -12 -92 -41t-33 -67q0 -90 178 -90h223q155 0 245.5 -73t90.5 -200q0 -112 -74 -200.5t-190.5 -133.5t-251.5 -45zM532 416q97 0 161.5 73.5t64.5 198.5t-64 192.5t-162 67.5q-97 0 -161 -67.5
t-64 -192.5q0 -126 64.5 -199t160.5 -73zM539 -416q145 0 245.5 64t100.5 166q0 71 -55 108t-175 41l-260 10q-15 1 -22 1.5t-8 0.5t-5 0.5l-12 1.5q-56 -26 -86.5 -73t-30.5 -107q0 -103 88 -158t220 -55zM557 1163q-53 0 -97.5 18.5t-79 55t-52 96t-13.5 135.5h25
q18 -83 76 -122t141 -39t143 39t78 122h25q9 -148 -63 -226.5t-183 -78.5z" />
    <glyph glyph-name="Gdotaccent" unicode="&#x120;" horiz-adv-x="1437" 
d="M770 -31q-169 0 -300 54.5t-216 154.5t-128.5 240t-43.5 313q0 215 87.5 381t258.5 262t403 96q214 0 398 -49v-409h-27l-186 334q-9 17 -17 22t-30 10q-53 11 -133 11q-254 0 -387.5 -173t-133.5 -473q0 -219 51 -371t163 -236.5t282 -84.5q82 0 176 23q28 8 34.5 14.5
t6.5 28.5v354q0 18 -4 25.5t-18 15.5l-162 94v29h565v-29l-158 -94q-14 -8 -18 -15.5t-4 -25.5v-502l-187 39q-143 -39 -272 -39zM647 1761q0 58 37.5 97.5t91.5 39.5q57 0 95 -39t38 -98q0 -56 -38 -94.5t-95 -38.5q-54 0 -91.5 38.5t-37.5 94.5z" />
    <glyph glyph-name="gdotaccent" unicode="&#x121;" horiz-adv-x="1110" 
d="M510 -502q-79 0 -158 16.5t-146 48t-109 83t-42 114.5q0 77 63 136.5t173 87.5q-70 14 -116 64t-46 114q0 73 60.5 127.5t154.5 79.5q-94 32 -161.5 116.5t-67.5 200.5q0 154 118 247t291 93q145 0 240 -59q21 -12 31 -13t26 11l230 202h24v-262h-223q37 -28 67.5 -87.5
t30.5 -133.5q0 -102 -59.5 -182.5t-155.5 -122t-209 -41.5q-60 0 -112 10q-59 -12 -92 -41t-33 -67q0 -90 178 -90h223q155 0 245.5 -73t90.5 -200q0 -112 -74 -200.5t-190.5 -133.5t-251.5 -45zM532 416q97 0 161.5 73.5t64.5 198.5t-64 192.5t-162 67.5q-97 0 -161 -67.5
t-64 -192.5q0 -126 64.5 -199t160.5 -73zM539 -416q145 0 245.5 64t100.5 166q0 71 -55 108t-175 41l-260 10q-15 1 -22 1.5t-8 0.5t-5 0.5l-12 1.5q-56 -26 -86.5 -73t-30.5 -107q0 -103 88 -158t220 -55zM428 1354q0 58 37.5 97.5t91.5 39.5q57 0 95 -39t38 -98
q0 -56 -38 -94.5t-95 -38.5q-54 0 -91.5 38.5t-37.5 94.5z" />
    <glyph glyph-name="Gcommaaccent" unicode="&#x122;" horiz-adv-x="1437" 
d="M770 -31q-169 0 -300 54.5t-216 154.5t-128.5 240t-43.5 313q0 215 87.5 381t258.5 262t403 96q214 0 398 -49v-409h-27l-186 334q-9 17 -17 22t-30 10q-53 11 -133 11q-254 0 -387.5 -173t-133.5 -473q0 -219 51 -371t163 -236.5t282 -84.5q82 0 176 23q28 8 34.5 14.5
t6.5 28.5v354q0 18 -4 25.5t-18 15.5l-162 94v29h565v-29l-158 -94q-14 -8 -18 -15.5t-4 -25.5v-502l-187 39q-143 -39 -272 -39zM623 -563l-9 22q45 29 77 73.5t32 70.5q0 19 -18 22q-38 6 -61 35.5t-23 73.5q0 47 33.5 79.5t82.5 32.5q54 0 87.5 -36t33.5 -105
q0 -95 -67 -169t-168 -99z" />
    <glyph glyph-name="gcommaaccent" unicode="&#x123;" horiz-adv-x="1110" 
d="M510 -502q-79 0 -158 16.5t-146 48t-109 83t-42 114.5q0 77 63 136.5t173 87.5q-70 14 -116 64t-46 114q0 73 60.5 127.5t154.5 79.5q-94 32 -161.5 116.5t-67.5 200.5q0 154 118 247t291 93q145 0 240 -59q21 -12 31 -13t26 11l230 202h24v-262h-223q37 -28 67.5 -87.5
t30.5 -133.5q0 -102 -59.5 -182.5t-155.5 -122t-209 -41.5q-60 0 -112 10q-59 -12 -92 -41t-33 -67q0 -90 178 -90h223q155 0 245.5 -73t90.5 -200q0 -112 -74 -200.5t-190.5 -133.5t-251.5 -45zM532 416q97 0 161.5 73.5t64.5 198.5t-64 192.5t-162 67.5q-97 0 -161 -67.5
t-64 -192.5q0 -126 64.5 -199t160.5 -73zM539 -416q145 0 245.5 64t100.5 166q0 71 -55 108t-175 41l-260 10q-15 1 -22 1.5t-8 0.5t-5 0.5l-12 1.5q-56 -26 -86.5 -73t-30.5 -107q0 -103 88 -158t220 -55zM680 1569l8 -23q-45 -29 -76.5 -73t-31.5 -70q0 -20 18 -23
q38 -6 61 -35t23 -73q0 -47 -34 -80t-83 -33q-54 0 -87.5 36t-33.5 105q0 95 67.5 169.5t168.5 99.5z" />
    <glyph glyph-name="Hcircumflex" unicode="&#x124;" horiz-adv-x="1605" 
d="M1339 1272v-1104q0 -18 4.5 -25.5t18.5 -15.5l180 -98v-29h-606v29l180 98q14 8 18.5 15.5t4.5 25.5v524h-672v-524q0 -18 4 -25.5t18 -15.5l181 -98v-29h-607v29l181 98q14 8 18 15.5t4 25.5v1104q0 18 -4 25.5t-18 15.5l-181 98v29h607v-29l-181 -98q-14 -8 -18 -15.5
t-4 -25.5v-494h672v494q0 18 -4.5 25.5t-18.5 15.5l-180 98v29h606v-29l-180 -98q-14 -8 -18.5 -15.5t-4.5 -25.5zM803 1698l-283 -129l-16 18l287 316h24l287 -316l-17 -18z" />
    <glyph glyph-name="hcircumflex" unicode="&#x125;" horiz-adv-x="1239" 
d="M860 582q0 323 -209 323q-157 0 -254 -180v-567q0 -17 4.5 -24.5t18.5 -16.5l153 -92v-25h-536v25l153 92q14 9 18.5 16.5t4.5 24.5v1140q0 27 -18 43l-123 103v24l325 68v-705q63 97 136 146t180 49q159 0 246.5 -103.5t87.5 -308.5q0 -56 -5 -456q0 -17 4.5 -24.5
t18.5 -16.5l154 -92v-25h-537v25l152 92q17 10 20.5 16.5t3.5 24.5q2 68 2 424zM301 1688l-283 -129l-16 18l287 315h24l287 -315l-16 -18z" />
    <glyph glyph-name="Hbar" unicode="&#x126;" horiz-adv-x="1605" 
d="M1339 1272v-230h183v-81h-183v-793q0 -18 4.5 -25.5t18.5 -15.5l180 -98v-29h-606v29l180 98q14 8 18.5 15.5t4.5 25.5v442h-672v-442q0 -18 4 -25.5t18 -15.5l181 -98v-29h-607v29l181 98q14 8 18 15.5t4 25.5v793h-182v81h182v230q0 18 -4 25.5t-18 15.5l-181 98v29
h607v-29l-181 -98q-14 -8 -18 -15.5t-4 -25.5v-230h672v230q0 18 -4.5 25.5t-18.5 15.5l-180 98v29h606v-29l-180 -98q-14 -8 -18.5 -15.5t-4.5 -25.5zM467 961v-265h672v265h-672z" />
    <glyph glyph-name="hbar" unicode="&#x127;" horiz-adv-x="1239" 
d="M860 582q0 323 -209 323q-157 0 -254 -180v-567q0 -17 4.5 -24.5t18.5 -16.5l153 -92v-25h-536v25l153 92q14 9 18.5 16.5t4.5 24.5v970h-162v78h162v92q0 27 -18 43l-123 103v24l325 68v-330h310v-78h-310v-297q63 97 136 146t180 49q159 0 246.5 -103.5t87.5 -308.5
q0 -56 -5 -456q0 -17 4.5 -24.5t18.5 -16.5l154 -92v-25h-537v25l152 92q17 10 20.5 16.5t3.5 24.5q2 68 2 424z" />
    <glyph glyph-name="Itilde" unicode="&#x128;" horiz-adv-x="733" 
d="M670 0h-607v29l181 98q14 8 18 15.5t4 25.5v1104q0 18 -4 25.5t-18 15.5l-181 98v29h607v-29l-181 -98q-14 -8 -18 -15.5t-4 -25.5v-1104q0 -18 4 -25.5t18 -15.5l181 -98v-29zM467 1591q-37 0 -82.5 27.5t-87 54.5t-70.5 27q-25 0 -48 -15t-37 -31.5t-44 -56.5h-24
q45 242 194 242q44 0 124 -53t116 -53q35 0 60.5 22t66.5 78h24q-45 -242 -192 -242z" />
    <glyph glyph-name="itilde" unicode="&#x129;" horiz-adv-x="651" 
d="M258 158v637q0 25 -16 41l-160 141v24h360v-843q0 -17 4.5 -24.5t18.5 -16.5l153 -92v-25h-536v25l154 92q14 9 18 16.5t4 24.5zM449 1184q-37 0 -82.5 27t-87 54t-70.5 27q-25 0 -48 -14.5t-37.5 -31.5t-43.5 -56h-25q45 242 195 242q36 0 80.5 -27t86 -53.5t72.5 -26.5
q35 0 60.5 22t66.5 78h25q-45 -241 -192 -241z" />
    <glyph glyph-name="Imacron" unicode="&#x12a;" horiz-adv-x="733" 
d="M670 0h-607v29l181 98q14 8 18 15.5t4 25.5v1104q0 18 -4 25.5t-18 15.5l-181 98v29h607v-29l-181 -98q-14 -8 -18 -15.5t-4 -25.5v-1104q0 -18 4 -25.5t18 -15.5l181 -98v-29zM637 1645h-541v114h541v-114z" />
    <glyph glyph-name="imacron" unicode="&#x12b;" horiz-adv-x="651" 
d="M258 158v637q0 25 -16 41l-160 141v24h360v-843q0 -17 4.5 -24.5t18.5 -16.5l153 -92v-25h-536v25l154 92q14 9 18 16.5t4 24.5zM618 1237h-540v115h540v-115z" />
    <glyph glyph-name="Ibreve" unicode="&#x12c;" horiz-adv-x="733" 
d="M670 0h-607v29l181 98q14 8 18 15.5t4 25.5v1104q0 18 -4 25.5t-18 15.5l-181 98v29h607v-29l-181 -98q-14 -8 -18 -15.5t-4 -25.5v-1104q0 -18 4 -25.5t18 -15.5l181 -98v-29zM367 1571q-53 0 -97.5 18.5t-79 55t-52 96t-13.5 135.5h25q18 -83 76.5 -122.5t140.5 -39.5
q83 0 143 39.5t78 122.5h24q9 -148 -62.5 -226.5t-182.5 -78.5z" />
    <glyph glyph-name="ibreve" unicode="&#x12d;" horiz-adv-x="651" 
d="M258 158v637q0 25 -16 41l-160 141v24h360v-843q0 -17 4.5 -24.5t18.5 -16.5l153 -92v-25h-536v25l154 92q14 9 18 16.5t4 24.5zM348 1163q-53 0 -97.5 18.5t-79 55t-52 96t-13.5 135.5h25q18 -83 76 -122t141 -39t143 39t78 122h25q9 -148 -63 -226.5t-183 -78.5z" />
    <glyph glyph-name="Iogonek" unicode="&#x12e;" horiz-adv-x="733" 
d="M557 -319l18 -11q-29 -73 -87 -112t-134 -39q-78 0 -133 52t-55 132q0 87 68 165t200 132h-371v29l181 98q14 8 18 15.5t4 25.5v1104q0 18 -4 25.5t-18 15.5l-181 98v29h607v-29l-181 -98q-14 -8 -18 -15.5t-4 -25.5v-1104q0 -18 4 -25.5t18 -15.5l181 -98v-29h-99
q-58 0 -105 -19.5t-74 -48t-45.5 -64.5t-25 -66t-6.5 -56q0 -56 35.5 -90.5t85.5 -34.5q70 0 121 60z" />
    <glyph glyph-name="iogonek" unicode="&#x12f;" horiz-adv-x="651" 
d="M539 -319l18 -11q-29 -73 -87 -112t-134 -39q-78 0 -133.5 52t-55.5 132q0 87 68.5 165t200.5 132h-334v25l154 92q14 9 18 16.5t4 24.5v637q0 25 -16 41l-160 141v24h360v-843q0 -17 4.5 -24.5t18.5 -16.5l153 -92v-25h-86q-47 0 -87 -17.5t-66.5 -45t-45.5 -61.5
t-27.5 -67.5t-8.5 -62.5q0 -56 35.5 -90.5t85.5 -34.5q70 0 121 60zM186 1354q0 58 37.5 97.5t91.5 39.5q57 0 95.5 -39.5t38.5 -97.5q0 -56 -38.5 -94.5t-95.5 -38.5q-54 0 -91.5 38.5t-37.5 94.5z" />
    <glyph glyph-name="Idotaccent" unicode="&#x130;" horiz-adv-x="733" 
d="M670 0h-607v29l181 98q14 8 18 15.5t4 25.5v1104q0 18 -4 25.5t-18 15.5l-181 98v29h607v-29l-181 -98q-14 -8 -18 -15.5t-4 -25.5v-1104q0 -18 4 -25.5t18 -15.5l181 -98v-29zM238 1761q0 58 37.5 97.5t91.5 39.5q57 0 95 -39t38 -98q0 -56 -38 -94.5t-95 -38.5
q-54 0 -91.5 38.5t-37.5 94.5z" />
    <glyph glyph-name="dotlessi" unicode="&#x131;" horiz-adv-x="651" 
d="M258 158v637q0 25 -16 41l-160 141v24h360v-843q0 -17 4.5 -24.5t18.5 -16.5l153 -92v-25h-536v25l154 92q14 9 18 16.5t4 24.5z" />
    <glyph glyph-name="IJ" unicode="&#x132;" horiz-adv-x="1392" 
d="M670 0h-607v29l181 98q14 8 18 15.5t4 25.5v1104q0 18 -4 25.5t-18 15.5l-181 98v29h607v-29l-181 -98q-14 -8 -18 -15.5t-4 -25.5v-1104q0 -18 4 -25.5t18 -15.5l181 -98v-29zM1163 29q0 -199 -107.5 -310.5t-312.5 -158.5l-10 26q230 98 230 432v1254q0 18 -4.5 25.5
t-18.5 15.5l-180 98v29h606v-29l-180 -98q-14 -8 -18.5 -15.5t-4.5 -25.5v-1243z" />
    <glyph glyph-name="ij" unicode="&#x133;" horiz-adv-x="1220" 
d="M186 1354q0 58 37.5 97.5t91.5 39.5q57 0 95.5 -39.5t38.5 -97.5q0 -56 -38.5 -94.5t-95.5 -38.5q-54 0 -91.5 38.5t-37.5 94.5zM258 158v637q0 25 -16 41l-160 141v24h360v-843q0 -17 4.5 -24.5t18.5 -16.5l153 -92v-25h-536v25l154 92q14 9 18 16.5t4 24.5zM1057 27
q0 -257 -125 -393t-332 -136l-4 31q130 23 203 149.5t73 329.5v787q0 25 -16 41l-160 141v24h361v-974zM799 1356q0 57 38 96t93 39q54 0 92.5 -39t38.5 -96t-38 -96t-93 -39q-57 0 -94 39t-37 96z" />
    <glyph glyph-name="Jcircumflex" unicode="&#x134;" horiz-adv-x="659" 
d="M430 29q0 -199 -107.5 -310.5t-312.5 -158.5l-10 26q229 97 229 432v1254q0 18 -4 25.5t-18 15.5l-180 98v29h606v-29l-180 -98q-14 -8 -18.5 -15.5t-4.5 -25.5v-1243zM330 1698l-283 -129l-16 18l286 316h25l287 -316l-17 -18z" />
    <glyph glyph-name="jcircumflex" unicode="&#x135;" horiz-adv-x="565" 
d="M406 27q0 -257 -125 -393t-332 -136l-4 31q130 23 203 149.5t73 329.5v787q0 25 -16 41l-160 141v24h361v-974zM313 1290l-282 -129l-17 19l287 315h25l286 -315l-16 -19z" />
    <glyph glyph-name="Kcommaaccent" unicode="&#x136;" horiz-adv-x="1366" 
d="M467 752v-584q0 -18 4 -25.5t18 -15.5l181 -98v-29h-607v29l181 98q14 8 18 15.5t4 25.5v1104q0 18 -4 25.5t-18 15.5l-181 98v29h607v-29l-181 -98q-14 -8 -18 -15.5t-4 -25.5v-520l498 503q18 18 18.5 27t-16.5 23l-127 106v29h536v-29l-235 -123q-31 -15 -43 -23.5
t-37 -33.5l-402 -408l461 -626q21 -29 32 -38.5t40 -25.5l180 -100v-33h-352zM643 -563l-8 22q45 29 76.5 73t31.5 71q0 19 -18 22q-38 6 -61 35.5t-23 73.5q0 47 34 79.5t83 32.5q54 0 87.5 -36t33.5 -105q0 -94 -67.5 -168.5t-168.5 -99.5z" />
    <glyph glyph-name="kcommaaccent" unicode="&#x137;" horiz-adv-x="1095" 
d="M1118 0h-299l-350 477q-25 35 -37.5 45t-34.5 10v-374q0 -17 4.5 -24.5t18.5 -16.5l153 -92v-25h-536v25l153 92q14 9 18.5 16.5t4.5 24.5v1140q0 27 -18 43l-123 103v24l325 68v-979l373 293q24 18 0 33l-139 94v24h436v-24l-451 -359q-15 -13 -4 -30l326 -443
q17 -25 47 -41l133 -79v-25zM502 -543l-8 23q45 29 76.5 73t31.5 70q0 20 -18 23q-38 6 -61 35t-23 73q0 47 33.5 80t82.5 33q54 0 87.5 -36t33.5 -105q0 -95 -67 -169.5t-168 -99.5z" />
    <glyph glyph-name="kgreenlandic" unicode="&#x138;" horiz-adv-x="1095" 
d="M1098 0h-299l-330 477q-25 35 -37.5 45t-34.5 10v-374q0 -17 4.5 -24.5t18.5 -16.5l153 -92v-25h-536v25l153 92q14 9 18.5 16.5t4.5 24.5v637q0 27 -18 43l-158 139v24h360v-444l387 295q24 18 0 33l-133 92v24h436v-24l-471 -359q-15 -13 -4 -30l316 -455
q19 -28 43 -41l127 -67v-25z" />
    <glyph glyph-name="Lacute" unicode="&#x139;" horiz-adv-x="1157" 
d="M494 82h354q25 0 34 4.5t19 22.5l174 303h27v-412h-1039v29l181 98q14 8 18 15.5t4 25.5v1104q0 18 -4 25.5t-18 15.5l-181 98v29h607v-29l-181 -98q-14 -8 -18 -15.5t-4 -25.5v-1161q0 -19 5 -24t22 -5zM313 1571h-28l125 317h264v-24z" />
    <glyph glyph-name="lacute" unicode="&#x13a;" horiz-adv-x="610" 
d="M573 0h-536v25l153 92q14 9 18.5 16.5t4.5 24.5v1140q0 27 -18 43l-123 103v24l325 68v-1378q0 -17 4.5 -24.5t18.5 -16.5l153 -92v-25zM254 1602h-29l125 317h264v-25z" />
    <glyph glyph-name="Lcommaaccent" unicode="&#x13b;" horiz-adv-x="1157" 
d="M494 82h354q25 0 34 4.5t19 22.5l174 303h27v-412h-1039v29l181 98q14 8 18 15.5t4 25.5v1104q0 18 -4 25.5t-18 15.5l-181 98v29h607v-29l-181 -98q-14 -8 -18 -15.5t-4 -25.5v-1161q0 -19 5 -24t22 -5zM512 -563l-8 22q45 29 76.5 73t31.5 71q0 19 -18 22
q-38 6 -61 35.5t-23 73.5q0 47 34 79.5t83 32.5q54 0 87.5 -36t33.5 -105q0 -94 -67.5 -168.5t-168.5 -99.5z" />
    <glyph glyph-name="lcommaaccent" unicode="&#x13c;" horiz-adv-x="610" 
d="M573 0h-536v25l153 92q14 9 18.5 16.5t4.5 24.5v1140q0 27 -18 43l-123 103v24l325 68v-1378q0 -17 4.5 -24.5t18.5 -16.5l153 -92v-25zM197 -543l-9 23q45 29 77 73t32 70q0 20 -18 23q-38 6 -61 35t-23 73q0 47 33.5 80t82.5 33q54 0 87.5 -36t33.5 -105
q0 -95 -67 -169.5t-168 -99.5z" />
    <glyph glyph-name="Lcaron" unicode="&#x13d;" horiz-adv-x="1157" 
d="M494 82h354q25 0 34 4.5t19 22.5l174 303h27v-412h-1039v29l181 98q14 8 18 15.5t4 25.5v1104q0 18 -4 25.5t-18 15.5l-181 98v29h607v-29l-181 -98q-14 -8 -18 -15.5t-4 -25.5v-1161q0 -19 5 -24t22 -5zM1069 1440v-25l-209 -428h-24l18 453h215z" />
    <glyph glyph-name="lcaron" unicode="&#x13e;" horiz-adv-x="727" 
d="M573 0h-536v25l153 92q14 9 18.5 16.5t4.5 24.5v1140q0 27 -18 43l-123 103v24l325 68v-1378q0 -17 4.5 -24.5t18.5 -16.5l153 -92v-25zM819 1440v-25l-209 -428h-24l18 453h215z" />
    <glyph glyph-name="Ldot" unicode="&#x13f;" horiz-adv-x="1157" 
d="M494 82h354q25 0 34 4.5t19 22.5l174 303h27v-412h-1039v29l181 98q14 8 18 15.5t4 25.5v1104q0 18 -4 25.5t-18 15.5l-181 98v29h607v-29l-181 -98q-14 -8 -18 -15.5t-4 -25.5v-1161q0 -19 5 -24t22 -5zM737 784q0 58 37.5 98t91.5 40q57 0 95 -39.5t38 -98.5
q0 -56 -38 -94.5t-95 -38.5q-54 0 -91.5 38.5t-37.5 94.5z" />
    <glyph glyph-name="ldot" unicode="&#x140;" horiz-adv-x="851" 
d="M573 0h-536v25l153 92q14 9 18.5 16.5t4.5 24.5v1140q0 27 -18 43l-123 103v24l325 68v-1378q0 -17 4.5 -24.5t18.5 -16.5l153 -92v-25zM600 680q0 58 37.5 97.5t91.5 39.5q57 0 95 -39t38 -98q0 -56 -38 -94.5t-95 -38.5q-54 0 -91.5 38.5t-37.5 94.5z" />
    <glyph glyph-name="Lslash" unicode="&#x141;" horiz-adv-x="1185" 
d="M522 82h355q25 0 34 4.5t19 22.5l174 303h26v-412h-1038v29l180 98q14 8 18.5 15.5t4.5 25.5v430l-186 -80l-31 76l217 94v584q0 18 -4.5 25.5t-18.5 15.5l-180 98v29h606v-29l-180 -98q-14 -8 -18 -15.5t-4 -25.5v-496l249 109l31 -76l-280 -123v-575q0 -19 4.5 -24
t21.5 -5z" />
    <glyph glyph-name="lslash" unicode="&#x142;" horiz-adv-x="661" 
d="M596 0h-537v25l154 92q14 9 18.5 16.5t4.5 24.5v463l-191 -86l-31 73l222 99v591q0 26 -19 43l-123 103v24l326 68v-750l198 88l31 -73l-229 -101v-542q0 -17 4 -24.5t18 -16.5l154 -92v-25z" />
    <glyph glyph-name="Nacute" unicode="&#x143;" horiz-adv-x="1529" 
d="M1300 1229v-1229h-94l-841 1231v-1020q0 -19 4.5 -28.5t17.5 -18.5l191 -135v-29h-515v29l187 135q22 16 22 47v1051q0 18 -4 25.5t-18 15.5l-180 108v29h391l747 -1098v887q0 31 -22 47l-191 135v29h514v-29l-186 -135q-23 -17 -23 -47zM731 1571h-29l125 317h265v-24z
" />
    <glyph glyph-name="nacute" unicode="&#x144;" horiz-adv-x="1284" 
d="M1264 0h-537v25l152 92q17 10 20.5 16.5t3.5 24.5q2 68 2 424q0 94 -16.5 159.5t-47 100t-65.5 49t-80 14.5q-157 0 -254 -180v-567q0 -17 4.5 -24.5t18.5 -16.5l153 -92v-25h-536v25l154 92q14 9 18 16.5t4 24.5v637q0 25 -16 41l-160 141v24h338v-196q110 221 334 221
q161 0 249.5 -103.5t88.5 -308.5q0 -56 -5 -456q0 -17 4.5 -24.5t18.5 -16.5l154 -92v-25zM618 1163h-28l125 318h264v-25z" />
    <glyph glyph-name="Ncommaaccent" unicode="&#x145;" horiz-adv-x="1529" 
d="M1300 1229v-1229h-94l-841 1231v-1020q0 -19 4.5 -28.5t17.5 -18.5l191 -135v-29h-515v29l187 135q22 16 22 47v1051q0 18 -4 25.5t-18 15.5l-180 108v29h391l747 -1098v887q0 31 -22 47l-191 135v29h514v-29l-186 -135q-23 -17 -23 -47zM674 -563l-8 22q45 29 76.5 73
t31.5 71q0 19 -18 22q-38 6 -61 35.5t-23 73.5q0 47 33.5 79.5t82.5 32.5q54 0 87.5 -36t33.5 -105q0 -95 -67 -169t-168 -99z" />
    <glyph glyph-name="ncommaaccent" unicode="&#x146;" horiz-adv-x="1284" 
d="M1264 0h-537v25l152 92q17 10 20.5 16.5t3.5 24.5q2 68 2 424q0 94 -16.5 159.5t-47 100t-65.5 49t-80 14.5q-157 0 -254 -180v-567q0 -17 4.5 -24.5t18.5 -16.5l153 -92v-25h-536v25l154 92q14 9 18 16.5t4 24.5v637q0 25 -16 41l-160 141v24h338v-196q110 221 334 221
q161 0 249.5 -103.5t88.5 -308.5q0 -56 -5 -456q0 -17 4.5 -24.5t18.5 -16.5l154 -92v-25zM561 -563l-8 22q45 29 77 73.5t32 70.5q0 19 -19 22q-38 6 -61 35.5t-23 73.5q0 47 34 79.5t83 32.5q54 0 87.5 -36t33.5 -105q0 -94 -67.5 -168.5t-168.5 -99.5z" />
    <glyph glyph-name="Ncaron" unicode="&#x147;" horiz-adv-x="1529" 
d="M1300 1229v-1229h-94l-841 1231v-1020q0 -19 4.5 -28.5t17.5 -18.5l191 -135v-29h-515v29l187 135q22 16 22 47v1051q0 18 -4 25.5t-18 15.5l-180 108v29h391l747 -1098v887q0 31 -22 47l-191 135v29h514v-29l-186 -135q-23 -17 -23 -47zM797 1577h-25l-287 315l17 19
l282 -129l283 129l16 -19z" />
    <glyph glyph-name="ncaron" unicode="&#x148;" horiz-adv-x="1284" 
d="M1264 0h-537v25l152 92q17 10 20.5 16.5t3.5 24.5q2 68 2 424q0 94 -16.5 159.5t-47 100t-65.5 49t-80 14.5q-157 0 -254 -180v-567q0 -17 4.5 -24.5t18.5 -16.5l153 -92v-25h-536v25l154 92q14 9 18 16.5t4 24.5v637q0 25 -16 41l-160 141v24h338v-196q110 221 334 221
q161 0 249.5 -103.5t88.5 -308.5q0 -56 -5 -456q0 -17 4.5 -24.5t18.5 -16.5l154 -92v-25zM684 1169h-25l-286 316l16 18l283 -129l282 129l17 -18z" />
    <glyph glyph-name="napostrophe" unicode="&#x149;" horiz-adv-x="1445" 
d="M1425 0h-536v25l151 92q17 10 21 17t4 24q2 68 2 424q0 94 -16.5 159.5t-47 100t-65.5 49t-80 14.5q-157 0 -254 -180v-567q0 -17 4.5 -24.5t18.5 -16.5l153 -92v-25h-536v25l153 92q14 9 18.5 16.5t4.5 24.5v637q0 24 -17 41l-159 141v24h338v-196q110 221 333 221
q161 0 249.5 -103.5t88.5 -308.5q0 -136 -4 -456q0 -17 4.5 -24.5t18.5 -16.5l153 -92v-25zM250 1343q0 -130 -80.5 -231.5t-206.5 -126.5l-10 21q164 96 164 237q0 24 -6 32t-23 13q-56 14 -84.5 48t-28.5 77q0 51 35 87t92 36q64 0 106 -49t42 -144z" />
    <glyph glyph-name="Eng" unicode="&#x14a;" horiz-adv-x="1437" 
d="M1284 1028v-999q0 -199 -107.5 -310.5t-312.5 -158.5l-10 26q229 97 229 432v977q0 185 -76 265.5t-216 80.5q-107 0 -193.5 -49.5t-130.5 -130.5v-993q0 -18 4 -25.5t18 -15.5l181 -98v-29h-607v29l181 98q14 8 18 15.5t4 25.5v1104q0 18 -4 25.5t-18 15.5l-181 98v29
h404v-160q54 85 152.5 137.5t228.5 52.5q208 0 322 -115t114 -327z" />
    <glyph glyph-name="eng" unicode="&#x14b;" horiz-adv-x="1275" 
d="M907 8v574q0 323 -211 323q-157 0 -254 -180v-567q0 -17 4.5 -24.5t18.5 -16.5l153 -92v-25h-536v25l154 92q14 9 18 16.5t4 24.5v637q0 25 -16 41l-160 141v24h338v-196q110 221 334 221q161 0 249.5 -103.5t88.5 -308.5v-587q0 -257 -125 -393t-332 -136l-4 31
q130 23 203 149.5t73 329.5z" />
    <glyph glyph-name="Omacron" unicode="&#x14c;" horiz-adv-x="1490" 
d="M745 1470q139 0 260 -50.5t211 -144t141.5 -235.5t51.5 -315q0 -167 -51.5 -309t-140.5 -239.5t-211 -152.5t-261 -55t-260 50.5t-210.5 143.5t-141 235t-51.5 315q0 167 51.5 309t140 240t210.5 153t261 55zM739 1389q-188 0 -304 -170t-116 -490q0 -323 119 -500.5
t314 -177.5q188 0 303.5 169t115.5 489q0 323 -118.5 501.5t-313.5 178.5zM1016 1645h-541v114h541v-114z" />
    <glyph glyph-name="omacron" unicode="&#x14d;" horiz-adv-x="1134" 
d="M561 -25q-97 0 -183.5 34.5t-152.5 99t-104.5 163.5t-38.5 220q0 123 39.5 225t107 168.5t156.5 103.5t188 37q97 0 183.5 -34.5t153 -98.5t105 -163t38.5 -220q0 -123 -39.5 -225t-107.5 -169t-157 -104t-188 -37zM575 57q86 0 147 61t89.5 159.5t28.5 222.5
q0 122 -29 220t-93.5 161t-154.5 63q-88 0 -149.5 -61t-90 -158.5t-28.5 -222.5q0 -123 29 -221t93.5 -161t157.5 -63zM838 1237h-541v115h541v-115z" />
    <glyph glyph-name="Obreve" unicode="&#x14e;" horiz-adv-x="1490" 
d="M745 1470q139 0 260 -50.5t211 -144t141.5 -235.5t51.5 -315q0 -167 -51.5 -309t-140.5 -239.5t-211 -152.5t-261 -55t-260 50.5t-210.5 143.5t-141 235t-51.5 315q0 167 51.5 309t140 240t210.5 153t261 55zM739 1389q-188 0 -304 -170t-116 -490q0 -323 119 -500.5
t314 -177.5q188 0 303.5 169t115.5 489q0 323 -118.5 501.5t-313.5 178.5zM745 1571q-110 0 -180 78t-61 227h24q18 -83 76.5 -122.5t140.5 -39.5q83 0 143.5 39.5t78.5 122.5h24q9 -148 -63 -226.5t-183 -78.5z" />
    <glyph glyph-name="obreve" unicode="&#x14f;" horiz-adv-x="1134" 
d="M561 -25q-97 0 -183.5 34.5t-152.5 99t-104.5 163.5t-38.5 220q0 123 39.5 225t107 168.5t156.5 103.5t188 37q97 0 183.5 -34.5t153 -98.5t105 -163t38.5 -220q0 -123 -39.5 -225t-107.5 -169t-157 -104t-188 -37zM575 57q86 0 147 61t89.5 159.5t28.5 222.5
q0 122 -29 220t-93.5 161t-154.5 63q-88 0 -149.5 -61t-90 -158.5t-28.5 -222.5q0 -123 29 -221t93.5 -161t157.5 -63zM567 1163q-110 0 -180 78t-61 227h24q18 -83 76 -122t141 -39t143 39t78 122h25q9 -148 -63 -226.5t-183 -78.5z" />
    <glyph glyph-name="Ohungarumlaut" unicode="&#x150;" horiz-adv-x="1490" 
d="M745 1470q139 0 260 -50.5t211 -144t141.5 -235.5t51.5 -315q0 -167 -51.5 -309t-140.5 -239.5t-211 -152.5t-261 -55t-260 50.5t-210.5 143.5t-141 235t-51.5 315q0 167 51.5 309t140 240t210.5 153t261 55zM739 1389q-188 0 -304 -170t-116 -490q0 -323 119 -500.5
t314 -177.5q188 0 303.5 169t115.5 489q0 323 -118.5 501.5t-313.5 178.5zM627 1909h221v-25l-297 -305h-25zM928 1909h221v-25l-297 -305h-25z" />
    <glyph glyph-name="ohungarumlaut" unicode="&#x151;" horiz-adv-x="1134" 
d="M561 -25q-97 0 -183.5 34.5t-152.5 99t-104.5 163.5t-38.5 220q0 123 39.5 225t107 168.5t156.5 103.5t188 37q97 0 183.5 -34.5t153 -98.5t105 -163t38.5 -220q0 -123 -39.5 -225t-107.5 -169t-157 -104t-188 -37zM575 57q86 0 147 61t89.5 159.5t28.5 222.5
q0 122 -29 220t-93.5 161t-154.5 63q-88 0 -149.5 -61t-90 -158.5t-28.5 -222.5q0 -123 29 -221t93.5 -161t157.5 -63zM449 1501h221v-24l-297 -306h-25zM750 1501h221v-24l-297 -306h-25z" />
    <glyph glyph-name="OE" unicode="&#x152;" horiz-adv-x="2037" 
d="M1919 0h-813q-60 0 -174.5 -8t-163.5 -8q-312 0 -499 196t-187 533q0 341 190 542t496 201q48 0 162.5 -8t175.5 -8h782v-381h-26l-166 272q-10 19 -17.5 23t-27.5 4h-404q-17 0 -21.5 -5t-4.5 -24v-567h292q21 0 29.5 4.5t20.5 21.5l114 160h25v-456h-25l-114 161
q-12 17 -21 22t-29 5h-292v-569q0 -19 4.5 -24t21.5 -5h418q21 0 28.5 4.5t18.5 22.5l180 276h27v-385zM799 66q121 0 190 30q19 8 25 16.5t6 30.5v1155q0 22 -6 29.5t-25 15.5q-63 31 -198 31q-221 0 -346.5 -162t-125.5 -489q0 -325 125 -491t355 -166z" />
    <glyph glyph-name="oe" unicode="&#x153;" horiz-adv-x="1783" 
d="M571 57q130 0 199.5 124t69.5 313q0 125 -29 224.5t-92.5 162.5t-153.5 63q-89 0 -151 -61t-90.5 -157.5t-28.5 -219.5q0 -125 29.5 -224.5t93 -162t153.5 -62.5zM1300 -25q-118 0 -214 47.5t-156 141.5q-63 -92 -159 -140.5t-212 -48.5q-97 0 -183 34.5t-151.5 99
t-104 163.5t-38.5 220q0 123 39.5 225t107 169t157 103.5t189.5 36.5q115 0 209.5 -48.5t153.5 -139.5q63 91 158 139.5t198 48.5q84 0 151.5 -24.5t121 -76t83 -140t29.5 -207.5v-43h-643q0 -118 28.5 -205t78 -134t105.5 -68.5t120 -21.5q82 0 164.5 35.5t146.5 106.5
l21 -17q-54 -127 -159.5 -191.5t-240.5 -64.5zM1282 944q-98 0 -166 -87.5t-78 -244.5h453q-13 332 -209 332z" />
    <glyph glyph-name="Racute" unicode="&#x154;" horiz-adv-x="1370" 
d="M1346 0h-299l-334 614q-10 16 -18.5 19.5t-30.5 3.5h-197v-469q0 -18 4 -25.5t18 -15.5l181 -98v-29h-607v29l181 98q14 8 18 15.5t4 25.5v1104q0 18 -4 25.5t-18 15.5l-181 98v29h621q145 0 257 -41t178.5 -126.5t66.5 -205.5q0 -139 -81.5 -237.5t-213.5 -129.5
l287 -524q25 -38 49 -57l119 -90v-29zM467 1329v-610h205q56 0 107 19t92.5 57t66.5 102t25 147q0 152 -84.5 233t-206.5 81h-178q-17 0 -22 -5t-5 -24zM623 1571h-29l125 317h264v-24z" />
    <glyph glyph-name="racute" unicode="&#x155;" horiz-adv-x="903" 
d="M707 0h-625v25l154 92q14 9 18 16.5t4 24.5v637q0 25 -16 41l-160 141v24h338v-276q106 301 303 301q62 0 125 -31l-70 -299h-24l-99 181q-6 11 -10 13.5t-14 2.5q-27 0 -58 -31q-83 -83 -131 -229v-459q0 -20 5 -27.5t22 -15.5l238 -106v-25zM446 1163h-28l125 318h264
v-25z" />
    <glyph glyph-name="Rcommaaccent" unicode="&#x156;" horiz-adv-x="1370" 
d="M1346 0h-299l-334 614q-10 16 -18.5 19.5t-30.5 3.5h-197v-469q0 -18 4 -25.5t18 -15.5l181 -98v-29h-607v29l181 98q14 8 18 15.5t4 25.5v1104q0 18 -4 25.5t-18 15.5l-181 98v29h621q145 0 257 -41t178.5 -126.5t66.5 -205.5q0 -139 -81.5 -237.5t-213.5 -129.5
l287 -524q25 -38 49 -57l119 -90v-29zM467 1329v-610h205q56 0 107 19t92.5 57t66.5 102t25 147q0 152 -84.5 233t-206.5 81h-178q-17 0 -22 -5t-5 -24zM606 -563l-8 22q45 29 77 73.5t32 70.5q0 19 -19 22q-38 6 -61 35.5t-23 73.5q0 47 34 79.5t83 32.5q54 0 87.5 -36
t33.5 -105q0 -94 -67.5 -168.5t-168.5 -99.5z" />
    <glyph glyph-name="rcommaaccent" unicode="&#x157;" horiz-adv-x="903" 
d="M707 0h-625v25l154 92q14 9 18 16.5t4 24.5v637q0 25 -16 41l-160 141v24h338v-276q106 301 303 301q62 0 125 -31l-70 -299h-24l-99 181q-6 11 -10 13.5t-14 2.5q-27 0 -58 -31q-83 -83 -131 -229v-459q0 -20 5 -27.5t22 -15.5l238 -106v-25zM256 -563l-8 22
q45 29 76.5 73t31.5 71q0 19 -18 22q-38 6 -61 35.5t-23 73.5q0 47 34 79.5t83 32.5q54 0 87.5 -36t33.5 -105q0 -94 -67.5 -168.5t-168.5 -99.5z" />
    <glyph glyph-name="Rcaron" unicode="&#x158;" horiz-adv-x="1370" 
d="M1346 0h-299l-334 614q-10 16 -18.5 19.5t-30.5 3.5h-197v-469q0 -18 4 -25.5t18 -15.5l181 -98v-29h-607v29l181 98q14 8 18 15.5t4 25.5v1104q0 18 -4 25.5t-18 15.5l-181 98v29h621q145 0 257 -41t178.5 -126.5t66.5 -205.5q0 -139 -81.5 -237.5t-213.5 -129.5
l287 -524q25 -38 49 -57l119 -90v-29zM467 1329v-610h205q56 0 107 19t92.5 57t66.5 102t25 147q0 152 -84.5 233t-206.5 81h-178q-17 0 -22 -5t-5 -24zM688 1577h-24l-287 315l16 19l283 -129l282 129l17 -19z" />
    <glyph glyph-name="rcaron" unicode="&#x159;" horiz-adv-x="903" 
d="M707 0h-625v25l154 92q14 9 18 16.5t4 24.5v637q0 25 -16 41l-160 141v24h338v-276q106 301 303 301q62 0 125 -31l-70 -299h-24l-99 181q-6 11 -10 13.5t-14 2.5q-27 0 -58 -31q-83 -83 -131 -229v-459q0 -20 5 -27.5t22 -15.5l238 -106v-25zM512 1169h-25l-286 316
l16 18l283 -129l282 129l17 -18z" />
    <glyph glyph-name="Sacute" unicode="&#x15a;" horiz-adv-x="1159" 
d="M524 -31q-218 0 -401 66v407h27l174 -342q10 -18 17.5 -25.5t25.5 -11.5q73 -16 151 -16q163 0 261 75t98 200q0 104 -62 167t-192 117l-174 72q-312 126 -312 389q0 185 143 294t371 109q185 0 324 -38v-385h-27l-166 309q-13 27 -41 30q-47 7 -92 7q-154 0 -242 -77.5
t-88 -195.5q0 -86 52 -148.5t168 -111.5l188 -78q64 -27 109.5 -50.5t92.5 -57.5t75.5 -71.5t46.5 -89.5t18 -114q0 -194 -145 -312t-400 -118zM559 1571h-29l125 317h265v-24z" />
    <glyph glyph-name="sacute" unicode="&#x15b;" horiz-adv-x="950" 
d="M686 244q0 59 -41.5 92.5t-122.5 60.5l-168 56q-233 78 -233 274q0 134 108.5 216.5t274.5 82.5q142 0 307 -53l-70 -271h-24l-111 222q-6 12 -10 15.5t-16 6.5q-27 6 -76 6q-99 0 -162 -49.5t-63 -130.5q0 -108 180 -162l180 -57q215 -68 215 -258q0 -150 -115 -235
t-293 -85q-174 0 -352 66l86 287h25l84 -217q11 -27 17.5 -35.5t21.5 -12.5q51 -14 114 -14q64 0 117.5 21t89.5 66t37 108zM424 1163h-29l125 318h264v-25z" />
    <glyph glyph-name="Scircumflex" unicode="&#x15c;" horiz-adv-x="1159" 
d="M524 -31q-218 0 -401 66v407h27l174 -342q10 -18 17.5 -25.5t25.5 -11.5q73 -16 151 -16q163 0 261 75t98 200q0 104 -62 167t-192 117l-174 72q-312 126 -312 389q0 185 143 294t371 109q185 0 324 -38v-385h-27l-166 309q-13 27 -41 30q-47 7 -92 7q-154 0 -242 -77.5
t-88 -195.5q0 -86 52 -148.5t168 -111.5l188 -78q64 -27 109.5 -50.5t92.5 -57.5t75.5 -71.5t46.5 -89.5t18 -114q0 -194 -145 -312t-400 -118zM612 1698l-282 -129l-17 18l287 316h25l286 -316l-16 -18z" />
    <glyph glyph-name="scircumflex" unicode="&#x15d;" horiz-adv-x="950" 
d="M686 244q0 59 -41.5 92.5t-122.5 60.5l-168 56q-233 78 -233 274q0 134 108.5 216.5t274.5 82.5q142 0 307 -53l-70 -271h-24l-111 222q-6 12 -10 15.5t-16 6.5q-27 6 -76 6q-99 0 -162 -49.5t-63 -130.5q0 -108 180 -162l180 -57q215 -68 215 -258q0 -150 -115 -235
t-293 -85q-174 0 -352 66l86 287h25l84 -217q11 -27 17.5 -35.5t21.5 -12.5q51 -14 114 -14q64 0 117.5 21t89.5 66t37 108zM477 1290l-282 -129l-17 19l287 315h24l287 -315l-16 -19z" />
    <glyph glyph-name="Scedilla" unicode="&#x15e;" horiz-adv-x="1159" 
d="M524 -31q-218 0 -401 66v407h27l174 -342q10 -18 17.5 -25.5t25.5 -11.5q73 -16 151 -16q163 0 261 75t98 200q0 104 -62 167t-192 117l-174 72q-312 126 -312 389q0 185 143 294t371 109q185 0 324 -38v-385h-27l-166 309q-13 27 -41 30q-47 7 -92 7q-154 0 -242 -77.5
t-88 -195.5q0 -86 52 -148.5t168 -111.5l188 -78q64 -27 109.5 -50.5t92.5 -57.5t75.5 -71.5t46.5 -89.5t18 -114q0 -182 -128 -297.5t-357 -130.5l-6 -114q84 11 147 -31.5t63 -122.5q0 -89 -64 -136.5t-161 -47.5q-81 0 -143 41.5t-82 109.5l18 11q66 -74 162 -74
q45 0 79 25.5t34 70.5q0 57 -50 79.5t-124 4.5l-11 8l99 174h-21z" />
    <glyph glyph-name="scedilla" unicode="&#x15f;" horiz-adv-x="950" 
d="M686 -297q0 -89 -64 -136.5t-161 -47.5q-81 0 -143 41.5t-82 109.5l18 11q66 -74 162 -74q45 0 78.5 25.5t33.5 70.5q0 57 -50 79.5t-124 4.5l-10 8l102 180q-174 0 -352 66l86 287h25l84 -217q11 -27 17.5 -35.5t21.5 -12.5q51 -14 114 -14q64 0 117.5 21t89.5 66
t37 108q0 59 -41.5 92.5t-122.5 60.5l-168 56q-233 78 -233 274q0 134 108.5 216.5t274.5 82.5q142 0 307 -53l-70 -271h-24l-111 222q-6 12 -10 15.5t-16 6.5q-27 6 -76 6q-99 0 -162 -49.5t-63 -130.5q0 -108 180 -162l180 -57q215 -68 215 -258q0 -143 -103.5 -226.5
t-269.5 -91.5l-6 -120q84 11 147.5 -31.5t63.5 -122.5z" />
    <glyph glyph-name="Scaron" unicode="&#x160;" horiz-adv-x="1159" 
d="M524 -31q-218 0 -401 66v407h27l174 -342q10 -18 17.5 -25.5t25.5 -11.5q73 -16 151 -16q163 0 261 75t98 200q0 104 -62 167t-192 117l-174 72q-312 126 -312 389q0 185 143 294t371 109q185 0 324 -38v-385h-27l-166 309q-13 27 -41 30q-47 7 -92 7q-154 0 -242 -77.5
t-88 -195.5q0 -86 52 -148.5t168 -111.5l188 -78q64 -27 109.5 -50.5t92.5 -57.5t75.5 -71.5t46.5 -89.5t18 -114q0 -194 -145 -312t-400 -118zM625 1577h-25l-287 315l17 19l282 -129l283 129l16 -19z" />
    <glyph glyph-name="scaron" unicode="&#x161;" horiz-adv-x="950" 
d="M686 244q0 59 -41.5 92.5t-122.5 60.5l-168 56q-233 78 -233 274q0 134 108.5 216.5t274.5 82.5q142 0 307 -53l-70 -271h-24l-111 222q-6 12 -10 15.5t-16 6.5q-27 6 -76 6q-99 0 -162 -49.5t-63 -130.5q0 -108 180 -162l180 -57q215 -68 215 -258q0 -150 -115 -235
t-293 -85q-174 0 -352 66l86 287h25l84 -217q11 -27 17.5 -35.5t21.5 -12.5q51 -14 114 -14q64 0 117.5 21t89.5 66t37 108zM489 1169h-24l-287 316l17 18l282 -129l283 129l16 -18z" />
    <glyph glyph-name="Tcommaaccent" unicode="&#x162;" horiz-adv-x="1298" 
d="M1245 1440v-412h-26l-168 299q-13 22 -22 26.5t-32 4.5h-247v-1190q0 -18 4 -25.5t18 -15.5l180 -98v-29h-606v29l180 98q14 8 18.5 15.5t4.5 25.5v1190h-248q-23 0 -31.5 -4.5t-21.5 -26.5l-168 -299h-27v412h1192zM539 -563l-9 22q45 29 77 73.5t32 70.5q0 19 -18 22
q-38 6 -61 35.5t-23 73.5q0 47 33.5 79.5t82.5 32.5q54 0 87.5 -36t33.5 -105q0 -95 -67 -169t-168 -99z" />
    <glyph glyph-name="tcommaaccent" unicode="&#x163;" horiz-adv-x="786" 
d="M379 1358h24v-357h338v-98h-338v-635q0 -79 41 -124.5t111 -45.5q103 0 178 97l23 -15q-33 -98 -110.5 -151.5t-176.5 -53.5q-117 0 -183.5 72.5t-66.5 208.5v647h-162v98h125q26 0 34 5t20 32zM291 -563l-8 22q45 29 76.5 73t31.5 71q0 19 -18 22q-38 6 -61 35.5
t-23 73.5q0 47 34 79.5t83 32.5q54 0 87 -36t33 -105q0 -95 -67 -169t-168 -99z" />
    <glyph glyph-name="Tcaron" unicode="&#x164;" horiz-adv-x="1298" 
d="M1245 1440v-412h-26l-168 299q-13 22 -22 26.5t-32 4.5h-247v-1190q0 -18 4 -25.5t18 -15.5l180 -98v-29h-606v29l180 98q14 8 18.5 15.5t4.5 25.5v1190h-248q-23 0 -31.5 -4.5t-21.5 -26.5l-168 -299h-27v412h1192zM662 1577h-25l-287 315l17 19l282 -129l283 129
l16 -19z" />
    <glyph glyph-name="tcaron" unicode="&#x165;" horiz-adv-x="788" 
d="M754 1440v-25l-197 -346h-25l19 371h203zM379 1358h24v-357h338v-98h-338v-635q0 -79 41 -124.5t111 -45.5q103 0 178 97l23 -15q-33 -98 -110.5 -151.5t-176.5 -53.5q-117 0 -183.5 72.5t-66.5 208.5v647h-162v98h125q26 0 34 5t20 32z" />
    <glyph glyph-name="Tbar" unicode="&#x166;" horiz-adv-x="1298" 
d="M1245 1440v-412h-26l-168 299q-13 22 -22 26.5t-32 4.5h-247v-613h303v-81h-303v-496q0 -18 4 -25.5t18 -15.5l180 -98v-29h-606v29l180 98q14 8 18.5 15.5t4.5 25.5v496h-303v81h303v613h-248q-23 0 -31.5 -4.5t-21.5 -26.5l-168 -299h-27v412h1192z" />
    <glyph glyph-name="tbar" unicode="&#x167;" horiz-adv-x="786" 
d="M379 1358h24v-357h338v-98h-338v-160h338v-77h-338v-398q0 -79 41 -124.5t111 -45.5q103 0 178 97l23 -15q-33 -98 -110.5 -151.5t-176.5 -53.5q-117 0 -183.5 72.5t-66.5 208.5v410h-162v77h162v160h-162v98h125q26 0 34 5t20 32z" />
    <glyph glyph-name="Utilde" unicode="&#x168;" horiz-adv-x="1480" 
d="M760 -31q-277 0 -400.5 133t-123.5 387v783q0 18 -4.5 25.5t-18.5 15.5l-180 98v29h606v-29l-180 -98q-14 -8 -18.5 -15.5t-4.5 -25.5v-748q0 -211 93.5 -333.5t265.5 -122.5q170 0 271 114.5t101 337.5v709q0 31 -22 47l-191 135v29h514v-29l-186 -135q-22 -16 -22 -47
v-721q0 -163 -52 -282t-165.5 -188t-282.5 -69zM895 1591q-37 0 -82.5 27.5t-87 54.5t-70.5 27q-25 0 -48 -15t-37 -31.5t-44 -56.5h-24q45 242 194 242q44 0 124 -53t116 -53q35 0 60.5 22t66.5 78h24q-45 -242 -192 -242z" />
    <glyph glyph-name="utilde" unicode="&#x169;" horiz-adv-x="1216" 
d="M1167 0h-323v197q-134 -222 -344 -222q-145 0 -226 98.5t-81 295.5q0 77 2 211t2 215q0 19 -3.5 26.5t-17.5 18.5l-156 137v24h363q-4 -68 -4 -593q0 -47 1.5 -76.5t6.5 -70.5t17.5 -66.5t32 -50t52 -36.5t76.5 -12q76 0 143 49t113 131v519q0 19 -3.5 27t-16.5 18
l-156 137v24h361v-796q0 -15 3.5 -22.5t18.5 -22.5l139 -135v-25zM682 1184q-37 0 -82.5 27t-87 54t-70.5 27q-25 0 -48 -14.5t-37.5 -31.5t-43.5 -56h-24q45 242 194 242q36 0 80.5 -27t86.5 -53.5t73 -26.5q35 0 60.5 22t66.5 78h24q-45 -241 -192 -241z" />
    <glyph glyph-name="Umacron" unicode="&#x16a;" horiz-adv-x="1480" 
d="M760 -31q-277 0 -400.5 133t-123.5 387v783q0 18 -4.5 25.5t-18.5 15.5l-180 98v29h606v-29l-180 -98q-14 -8 -18.5 -15.5t-4.5 -25.5v-748q0 -211 93.5 -333.5t265.5 -122.5q170 0 271 114.5t101 337.5v709q0 31 -22 47l-191 135v29h514v-29l-186 -135q-22 -16 -22 -47
v-721q0 -163 -52 -282t-165.5 -188t-282.5 -69zM1065 1645h-541v114h541v-114z" />
    <glyph glyph-name="umacron" unicode="&#x16b;" horiz-adv-x="1216" 
d="M1167 0h-323v197q-134 -222 -344 -222q-145 0 -226 98.5t-81 295.5q0 77 2 211t2 215q0 19 -3.5 26.5t-17.5 18.5l-156 137v24h363q-4 -68 -4 -593q0 -47 1.5 -76.5t6.5 -70.5t17.5 -66.5t32 -50t52 -36.5t76.5 -12q76 0 143 49t113 131v519q0 19 -3.5 27t-16.5 18
l-156 137v24h361v-796q0 -15 3.5 -22.5t18.5 -22.5l139 -135v-25zM852 1237h-541v115h541v-115z" />
    <glyph glyph-name="Ubreve" unicode="&#x16c;" horiz-adv-x="1480" 
d="M760 -31q-277 0 -400.5 133t-123.5 387v783q0 18 -4.5 25.5t-18.5 15.5l-180 98v29h606v-29l-180 -98q-14 -8 -18.5 -15.5t-4.5 -25.5v-748q0 -211 93.5 -333.5t265.5 -122.5q170 0 271 114.5t101 337.5v709q0 31 -22 47l-191 135v29h514v-29l-186 -135q-22 -16 -22 -47
v-721q0 -163 -52 -282t-165.5 -188t-282.5 -69zM795 1571q-53 0 -97.5 18.5t-79 55t-52 96t-13.5 135.5h25q18 -83 76.5 -122.5t140.5 -39.5q83 0 143 39.5t78 122.5h24q9 -148 -62.5 -226.5t-182.5 -78.5z" />
    <glyph glyph-name="ubreve" unicode="&#x16d;" horiz-adv-x="1216" 
d="M1167 0h-323v197q-134 -222 -344 -222q-145 0 -226 98.5t-81 295.5q0 77 2 211t2 215q0 19 -3.5 26.5t-17.5 18.5l-156 137v24h363q-4 -68 -4 -593q0 -47 1.5 -76.5t6.5 -70.5t17.5 -66.5t32 -50t52 -36.5t76.5 -12q76 0 143 49t113 131v519q0 19 -3.5 27t-16.5 18
l-156 137v24h361v-796q0 -15 3.5 -22.5t18.5 -22.5l139 -135v-25zM582 1163q-53 0 -97.5 18.5t-79 55t-52 96t-13.5 135.5h25q18 -83 76 -122t141 -39t143 39t78 122h24q9 -148 -62.5 -226.5t-182.5 -78.5z" />
    <glyph glyph-name="Uring" unicode="&#x16e;" horiz-adv-x="1480" 
d="M760 -31q-277 0 -400.5 133t-123.5 387v783q0 18 -4.5 25.5t-18.5 15.5l-180 98v29h606v-29l-180 -98q-14 -8 -18.5 -15.5t-4.5 -25.5v-748q0 -211 93.5 -333.5t265.5 -122.5q170 0 271 114.5t101 337.5v709q0 31 -22 47l-191 135v29h514v-29l-186 -135q-22 -16 -22 -47
v-721q0 -163 -52 -282t-165.5 -188t-282.5 -69zM930 1767q0 57 -39 98.5t-96 41.5q-58 0 -98 -41t-40 -99q0 -57 40 -98t98 -41q57 0 96 41t39 98zM569 1767q0 97 67.5 157.5t158.5 60.5q89 0 155 -60.5t66 -157.5t-66 -157t-155 -60q-91 0 -158.5 60t-67.5 157z" />
    <glyph glyph-name="uring" unicode="&#x16f;" horiz-adv-x="1216" 
d="M1167 0h-323v197q-134 -222 -344 -222q-145 0 -226 98.5t-81 295.5q0 77 2 211t2 215q0 19 -3.5 26.5t-17.5 18.5l-156 137v24h363q-4 -68 -4 -593q0 -47 1.5 -76.5t6.5 -70.5t17.5 -66.5t32 -50t52 -36.5t76.5 -12q76 0 143 49t113 131v519q0 19 -3.5 27t-16.5 18
l-156 137v24h361v-796q0 -15 3.5 -22.5t18.5 -22.5l139 -135v-25zM717 1360q0 57 -39 98t-96 41q-58 0 -98 -41t-40 -98t40 -98t98 -41q57 0 96 41t39 98zM356 1360q0 97 67.5 157t158.5 60q89 0 155 -60t66 -157t-66 -157t-155 -60q-91 0 -158.5 60t-67.5 157z" />
    <glyph glyph-name="Uhungarumlaut" unicode="&#x170;" horiz-adv-x="1480" 
d="M760 -31q-277 0 -400.5 133t-123.5 387v783q0 18 -4.5 25.5t-18.5 15.5l-180 98v29h606v-29l-180 -98q-14 -8 -18.5 -15.5t-4.5 -25.5v-748q0 -211 93.5 -333.5t265.5 -122.5q170 0 271 114.5t101 337.5v709q0 31 -22 47l-191 135v29h514v-29l-186 -135q-22 -16 -22 -47
v-721q0 -163 -52 -282t-165.5 -188t-282.5 -69zM676 1909h221v-25l-297 -305h-25zM977 1909h221v-25l-297 -305h-24z" />
    <glyph glyph-name="uhungarumlaut" unicode="&#x171;" horiz-adv-x="1216" 
d="M1167 0h-323v197q-134 -222 -344 -222q-145 0 -226 98.5t-81 295.5q0 77 2 211t2 215q0 19 -3.5 26.5t-17.5 18.5l-156 137v24h363q-4 -68 -4 -593q0 -47 1.5 -76.5t6.5 -70.5t17.5 -66.5t32 -50t52 -36.5t76.5 -12q76 0 143 49t113 131v519q0 19 -3.5 27t-16.5 18
l-156 137v24h361v-796q0 -15 3.5 -22.5t18.5 -22.5l139 -135v-25zM463 1501h221v-24l-297 -306h-25zM764 1501h221v-24l-297 -306h-24z" />
    <glyph glyph-name="Uogonek" unicode="&#x172;" horiz-adv-x="1480" 
d="M981 -319l18 -11q-29 -73 -87 -112t-134 -39q-78 0 -133 52t-55 132q0 79 57.5 150t179.5 118q-5 0 -33.5 -1t-33.5 -1q-277 0 -400.5 133t-123.5 387v783q0 18 -4.5 25.5t-18.5 15.5l-180 98v29h606v-29l-180 -98q-14 -8 -18.5 -15.5t-4.5 -25.5v-748
q0 -211 93.5 -333.5t265.5 -122.5q170 0 271 114.5t101 337.5v709q0 31 -22 47l-191 135v29h514v-29l-186 -135q-22 -16 -22 -47v-721q0 -220 -91 -352t-292 -199q-63 -21 -100.5 -80.5t-37.5 -130.5q0 -56 35.5 -90.5t85.5 -34.5q70 0 121 60z" />
    <glyph glyph-name="uogonek" unicode="&#x173;" horiz-adv-x="1216" 
d="M1167 0q-68 0 -120.5 -26t-80.5 -66.5t-41.5 -81.5t-13.5 -80q0 -56 35.5 -90.5t85.5 -34.5q70 0 121 60l18 -11q-29 -73 -87 -112t-134 -39q-78 0 -133 52t-55 132q0 87 68 165t200 132h-186v197q-134 -222 -344 -222q-145 0 -226 98.5t-81 295.5q0 77 2 211t2 215
q0 19 -3.5 26.5t-17.5 18.5l-156 137v24h363q-4 -68 -4 -593q0 -47 1.5 -76.5t6.5 -70.5t17.5 -66.5t32 -50t52 -36.5t76.5 -12q76 0 143 49t113 131v519q0 19 -3.5 27t-16.5 18l-156 137v24h361v-796q0 -15 3.5 -22.5t18.5 -22.5l139 -135v-25z" />
    <glyph glyph-name="Wcircumflex" unicode="&#x174;" horiz-adv-x="2015" 
d="M606 0l-450 1274q-9 25 -15 32.5t-26 20.5l-125 84v29h561v-29l-172 -102q-12 -6 -14 -13t4 -24l331 -977l277 764l-66 215q-7 22 -14.5 31t-26.5 22l-118 84v29h548v-29l-172 -102q-12 -6 -13.5 -13t3.5 -24l285 -969l338 938q7 22 3 31.5t-24 21.5l-180 117v29h516v-29
l-166 -111q-22 -12 -30 -21.5t-17 -33.5l-457 -1245h-81l-283 915l-334 -915h-82zM1022 1698l-283 -129l-16 18l287 316h24l287 -316l-16 -18z" />
    <glyph glyph-name="wcircumflex" unicode="&#x175;" horiz-adv-x="1583" 
d="M315 879q-20 -12 -12 -35l234 -623l211 524l-35 97q-10 25 -31 49l-84 86v24h455v-24l-142 -98q-20 -12 -12 -35l219 -617l256 623q8 18 -8 29l-162 98v24h400v-24l-115 -103q-8 -7 -10.5 -9.5t-6.5 -7t-6.5 -9.5t-5.5 -12l-342 -836h-88l-239 633l-259 -633h-88
l-329 842q-10 25 -31 49l-84 86v24h459v-24zM799 1290l-283 -129l-16 19l286 315h25l287 -315l-17 -19z" />
    <glyph glyph-name="Ycircumflex" unicode="&#x176;" horiz-adv-x="1316" 
d="M963 0h-607v29l181 98q14 8 18 15.5t4 25.5v358q0 43 -16 70l-391 678q-13 25 -23 36t-29 23l-110 78v29h555v-29l-166 -96q-20 -11 -6 -39l342 -602l313 579q8 15 7 23.5t-13 15.5l-184 119v29h510v-29l-174 -117q-21 -13 -28.5 -21.5t-21.5 -33.5l-348 -643
q-16 -31 -16 -70v-358q0 -18 4 -25.5t18 -15.5l181 -98v-29zM696 1698l-282 -129l-17 18l287 316h25l286 -316l-16 -18z" />
    <glyph glyph-name="ycircumflex" unicode="&#x177;" horiz-adv-x="1019" 
d="M141 -502q-56 0 -86 23l72 303h25l100 -139q14 -21 27 -21q24 0 55 45q41 56 67.5 107t55.5 127q11 29 2 49l-344 850q-10 25 -31 49l-84 86v24h461v-24l-139 -98q-12 -8 -14.5 -14.5t1.5 -20.5l248 -647l254 653q8 18 -8 29l-162 98v24h399v-24l-114 -103
q-8 -7 -10.5 -9.5t-6.5 -7t-6.5 -9.5t-5.5 -12l-326 -834q-120 -307 -233 -416q-88 -88 -197 -88zM557 1290l-283 -129l-16 19l287 315h24l287 -315l-16 -19z" />
    <glyph glyph-name="Ydieresis" unicode="&#x178;" horiz-adv-x="1316" 
d="M963 0h-607v29l181 98q14 8 18 15.5t4 25.5v358q0 43 -16 70l-391 678q-13 25 -23 36t-29 23l-110 78v29h555v-29l-166 -96q-20 -11 -6 -39l342 -602l313 579q8 15 7 23.5t-13 15.5l-184 119v29h510v-29l-174 -117q-21 -13 -28.5 -21.5t-21.5 -33.5l-348 -643
q-16 -31 -16 -70v-358q0 -18 4 -25.5t18 -15.5l181 -98v-29zM385 1729q0 51 35 87.5t82 36.5q49 0 84 -36.5t35 -87.5q0 -48 -35 -84.5t-84 -36.5q-47 0 -82 36.5t-35 84.5zM772 1729q0 51 34.5 87.5t80.5 36.5q49 0 84 -36.5t35 -87.5q0 -48 -35 -84.5t-84 -36.5
q-46 0 -80.5 37t-34.5 84z" />
    <glyph glyph-name="Zacute" unicode="&#x179;" horiz-adv-x="1153" 
d="M1071 0h-1005v29l786 1329h-514q-20 0 -27.5 -4t-17.5 -23l-164 -307h-27v416h1002v-29l-789 -1329h527q20 0 27.5 4t17.5 23l178 323h27zM559 1571h-29l125 317h265v-24z" />
    <glyph glyph-name="zacute" unicode="&#x17a;" horiz-adv-x="946" 
d="M686 102l156 244h24l-22 -346h-764v25l569 893h-311q-18 0 -24.5 -3.5t-14.5 -15.5l-154 -244h-24v346h764v-24l-576 -893h338q19 0 25 3t14 15zM449 1163h-29l125 318h264v-25z" />
    <glyph glyph-name="Zdotaccent" unicode="&#x17b;" horiz-adv-x="1153" 
d="M1071 0h-1005v29l786 1329h-514q-20 0 -27.5 -4t-17.5 -23l-164 -307h-27v416h1002v-29l-789 -1329h527q20 0 27.5 4t17.5 23l178 323h27zM483 1761q0 58 37.5 97.5t91.5 39.5q57 0 95 -39t38 -98q0 -56 -38 -94.5t-95 -38.5q-54 0 -91.5 38.5t-37.5 94.5z" />
    <glyph glyph-name="zdotaccent" unicode="&#x17c;" horiz-adv-x="946" 
d="M686 102l156 244h24l-22 -346h-764v25l569 893h-311q-18 0 -24.5 -3.5t-14.5 -15.5l-154 -244h-24v346h764v-24l-576 -893h338q19 0 25 3t14 15zM373 1354q0 58 37.5 97.5t91.5 39.5q57 0 95 -39t38 -98q0 -56 -38 -94.5t-95 -38.5q-54 0 -91.5 38.5t-37.5 94.5z" />
    <glyph glyph-name="Zcaron" unicode="&#x17d;" horiz-adv-x="1153" 
d="M1071 0h-1005v29l786 1329h-514q-20 0 -27.5 -4t-17.5 -23l-164 -307h-27v416h1002v-29l-789 -1329h527q20 0 27.5 4t17.5 23l178 323h27zM625 1577h-25l-287 315l17 19l282 -129l283 129l16 -19z" />
    <glyph glyph-name="zcaron" unicode="&#x17e;" horiz-adv-x="946" 
d="M686 102l156 244h24l-22 -346h-764v25l569 893h-311q-18 0 -24.5 -3.5t-14.5 -15.5l-154 -244h-24v346h764v-24l-576 -893h338q19 0 25 3t14 15zM514 1169h-25l-286 316l16 18l283 -129l282 129l17 -18z" />
    <glyph glyph-name="florin" unicode="&#x192;" horiz-adv-x="796" 
d="M106 684h166l50 277q22 125 60 227t93.5 181.5t132.5 123t170 43.5q130 0 223 -45l-104 -274h-27l-67 213q-6 20 -14 26t-31 6q-126 0 -203 -202q-28 -77 -57 -246l-58 -330h265v-86h-279l-80 -469q-16 -95 -40 -179t-65 -169t-93 -146t-127.5 -99t-165.5 -38
q-126 0 -193 45l105 273h26l64 -199q9 -31 17 -39t28 -8q100 0 176 178q46 109 84 315l94 535h-150v86z" />
    <glyph glyph-name="uni01B5" unicode="&#x1b5;" horiz-adv-x="1153" 
d="M197 686v82h305l350 590h-514q-20 0 -27.5 -4t-17.5 -23l-164 -307h-27v416h1002v-29l-383 -643h252v-82h-299l-359 -604h527q20 0 27.5 4t17.5 23l178 323h27l-21 -432h-1005v29l389 657h-258z" />
    <glyph glyph-name="uni01B6" unicode="&#x1b6;" horiz-adv-x="946" 
d="M203 463v78h207l239 377h-311q-18 0 -24.5 -3.5t-14.5 -15.5l-154 -244h-24v346h764v-24l-281 -436h162v-78h-209l-248 -379h338q19 0 25 3t14 15l156 244h24l-22 -346h-764v25l282 438h-159z" />
    <glyph glyph-name="Aringacute" unicode="&#x1fa;" horiz-adv-x="1406" 
d="M1034 168l-104 274h-537l-90 -243q-8 -20 -4 -30.5t25 -23.5l180 -116v-29h-516v29l166 110q22 15 30.5 24t16.5 32l381 1024q8 20 7.5 31t-9.5 28l-78 141v21h254l491 -1276q9 -24 15 -31.5t24 -19.5l127 -84v-29h-565v29l176 102q12 6 14 13t-4 24zM657 1163l-235 -639
h477zM432 1767q0 66 51 162l154 299h244v-24l-320 -244q42 25 96 25q89 0 155.5 -60.5t66.5 -157.5t-66.5 -157t-155.5 -60q-91 0 -158 60t-67 157zM793 1767q0 57 -39.5 98.5t-96.5 41.5q-58 0 -97.5 -41t-39.5 -99t39.5 -98.5t97.5 -40.5q57 0 96.5 41t39.5 98z" />
    <glyph glyph-name="aringacute" unicode="&#x1fb;" horiz-adv-x="1048" 
d="M514 557q84 0 172 -20q0 40 1 95t1 64q0 254 -227 254q-29 0 -53 -4q-23 -4 -33 -26l-127 -236h-25l-69 274q163 68 329 68q201 0 289 -89.5t88 -260.5q0 -90 -4 -250.5t-4 -224.5q0 -52 20 -81.5t54 -29.5q52 0 84 47l18 -16q-15 -67 -66 -105.5t-116 -38.5
q-74 0 -118.5 47.5t-47.5 129.5q-44 -77 -123.5 -127t-179.5 -50q-122 0 -200.5 71t-78.5 188q0 140 115.5 230.5t300.5 90.5zM453 88q69 0 131 46.5t96 131.5q4 114 4 201q-65 12 -119 12q-125 0 -199.5 -62.5t-74.5 -160.5q0 -79 46.5 -123.5t115.5 -44.5zM299 1360
q0 66 51 162l154 299h244v-25l-320 -244q42 25 96 25q89 0 155 -60t66 -157t-66 -157t-155 -60q-91 0 -158 60t-67 157zM659 1360q0 57 -39 98t-96 41q-58 0 -97.5 -40.5t-39.5 -98.5t39.5 -98.5t97.5 -40.5q57 0 96 41t39 98z" />
    <glyph glyph-name="AEacute" unicode="&#x1fc;" horiz-adv-x="2015" 
d="M-31 0v29l162 98q42 25 66 63l725 1082q19 30 -7 47l-112 92v29h1067v-396h-27l-166 287q-10 19 -17.5 23t-27.5 4h-413q-17 0 -22 -5t-5 -24v-608h299q20 0 28.5 4.5t20.5 22.5l115 161h24v-460h-24l-115 163q-12 18 -20.5 22.5t-28.5 4.5h-299v-528q0 -19 5 -24t22 -5
h419q22 0 30.5 5t17.5 22l180 284h26v-393h-1093v29l180 98q14 8 18 15.5t4 25.5v274h-522l-172 -258q-13 -24 -10 -33t25 -22l170 -100v-29h-523zM532 524h469v705zM1274 1571h-29l125 317h264v-24z" />
    <glyph glyph-name="aeacute" unicode="&#x1fd;" horiz-adv-x="1607" 
d="M862 612h453q-13 332 -209 332q-96 0 -165 -88t-79 -244zM379 -23q-122 0 -201.5 71t-79.5 188q0 141 114.5 231t299.5 90q80 0 158 -16q1 23 9.5 79t8.5 93q0 113 -58.5 175t-168.5 62q-29 0 -53 -4q-23 -4 -33 -26l-127 -236h-25l-69 274q163 68 329 68q238 0 324 -135
q129 135 311 135q84 0 151.5 -24.5t121 -76t83 -140t29.5 -207.5v-43h-643q0 -113 27 -198.5t74 -134.5t105 -72.5t126 -23.5q82 0 164.5 35.5t146.5 106.5l21 -17q-54 -127 -159.5 -191.5t-240.5 -64.5q-128 0 -231 57t-160 165q-37 -96 -140.5 -158t-213.5 -62zM453 88
q73 0 142.5 46t106.5 130q-31 92 -34 205q-62 10 -103 10q-125 0 -199.5 -62.5t-74.5 -160.5q0 -79 46.5 -123.5t115.5 -44.5zM756 1163h-29l125 318h264v-25z" />
    <glyph glyph-name="Oslashacute" unicode="&#x1fe;" horiz-adv-x="1490" 
d="M745 1470q137 0 261 -51l81 187l78 -31l-86 -193q154 -89 242 -258t88 -399q0 -167 -51.5 -309t-140.5 -239.5t-211 -152.5t-261 -55q-141 0 -268 54l-84 -189l-78 31l86 194q-149 90 -234 257.5t-85 396.5q0 167 51.5 309t140 240t210.5 153t261 55zM1171 709
q0 363 -149 542l-498 -1122q101 -78 228 -78q188 0 303.5 169t115.5 489zM739 1389q-188 0 -304 -170t-116 -490q0 -356 142 -534l497 1120q-95 74 -219 74zM692 1602h-28l124 317h265v-25z" />
    <glyph glyph-name="oslashacute" unicode="&#x1ff;" horiz-adv-x="1144" 
d="M561 -25q-92 0 -174 31l-80 -182l-67 31l79 182q-110 62 -173.5 178.5t-63.5 276.5q0 123 39.5 225t107 168.5t156.5 103.5t188 37q85 0 170 -29l76 172l68 -30l-76 -172q111 -63 176.5 -180t65.5 -277q0 -123 -39.5 -225t-107.5 -169t-157 -104t-188 -37zM575 57
q86 0 147 61t89.5 159.5t28.5 222.5q0 214 -86 338l-322 -732q62 -49 143 -49zM295 502q0 -211 82 -336l321 731q-56 47 -135 47q-88 0 -149.5 -61t-90 -158.5t-28.5 -222.5zM514 1163h-29l125 318h264v-25z" />
    <glyph glyph-name="Scommaaccent" unicode="&#x218;" horiz-adv-x="1159" 
d="M524 -31q-218 0 -401 66v407h27l174 -342q10 -18 17.5 -25.5t25.5 -11.5q73 -16 151 -16q163 0 261 75t98 200q0 104 -62 167t-192 117l-174 72q-312 126 -312 389q0 185 143 294t371 109q185 0 324 -38v-385h-27l-166 309q-13 27 -41 30q-47 7 -92 7q-154 0 -242 -77.5
t-88 -195.5q0 -86 52 -148.5t168 -111.5l188 -78q64 -27 109.5 -50.5t92.5 -57.5t75.5 -71.5t46.5 -89.5t18 -114q0 -194 -145 -312t-400 -118zM430 -563l-8 22q45 29 76.5 73t31.5 71q0 19 -18 22q-38 6 -61 35.5t-23 73.5q0 47 34 79.5t83 32.5q54 0 87.5 -36t33.5 -105
q0 -94 -67.5 -168.5t-168.5 -99.5z" />
    <glyph glyph-name="scommaaccent" unicode="&#x219;" horiz-adv-x="950" 
d="M686 244q0 59 -41.5 92.5t-122.5 60.5l-168 56q-233 78 -233 274q0 134 108.5 216.5t274.5 82.5q142 0 307 -53l-70 -271h-24l-111 222q-6 12 -10 15.5t-16 6.5q-27 6 -76 6q-99 0 -162 -49.5t-63 -130.5q0 -108 180 -162l180 -57q215 -68 215 -258q0 -150 -115 -235
t-293 -85q-174 0 -352 66l86 287h25l84 -217q11 -27 17.5 -35.5t21.5 -12.5q51 -14 114 -14q64 0 117.5 21t89.5 66t37 108zM340 -563l-8 22q45 29 76.5 73t31.5 71q0 19 -18 22q-38 6 -61 35.5t-23 73.5q0 47 34 79.5t83 32.5q54 0 87 -36t33 -105q0 -95 -67 -169t-168 -99
z" />
    <glyph glyph-name="uni021A" unicode="&#x21a;" horiz-adv-x="1298" 
d="M1245 1440v-412h-26l-168 299q-13 22 -22 26.5t-32 4.5h-247v-1190q0 -18 4 -25.5t18 -15.5l180 -98v-29h-606v29l180 98q14 8 18.5 15.5t4.5 25.5v1190h-248q-23 0 -31.5 -4.5t-21.5 -26.5l-168 -299h-27v412h1192zM539 -563l-9 22q45 29 77 73.5t32 70.5q0 19 -18 22
q-38 6 -61 35.5t-23 73.5q0 47 33.5 79.5t82.5 32.5q54 0 87.5 -36t33.5 -105q0 -95 -67 -169t-168 -99z" />
    <glyph glyph-name="uni021B" unicode="&#x21b;" horiz-adv-x="786" 
d="M379 1358h24v-357h338v-98h-338v-635q0 -79 41 -124.5t111 -45.5q103 0 178 97l23 -15q-33 -98 -110.5 -151.5t-176.5 -53.5q-117 0 -183.5 72.5t-66.5 208.5v647h-162v98h125q26 0 34 5t20 32zM291 -563l-8 22q45 29 76.5 73t31.5 71q0 19 -18 22q-38 6 -61 35.5
t-23 73.5q0 47 34 79.5t83 32.5q54 0 87 -36t33 -105q0 -95 -67 -169t-168 -99z" />
    <glyph glyph-name="dotlessj" unicode="&#x237;" horiz-adv-x="565" 
d="M406 27q0 -257 -125 -393t-332 -136l-4 31q130 23 203 149.5t73 329.5v787q0 25 -16 41l-160 141v24h361v-974z" />
    <glyph glyph-name="circumflex" unicode="&#x2c6;" horiz-adv-x="823" 
d="M412 1290l-283 -129l-16 19l286 315h25l287 -315l-17 -19z" />
    <glyph glyph-name="caron" unicode="&#x2c7;" horiz-adv-x="823" 
d="M424 1169h-25l-286 316l16 18l283 -129l282 129l17 -18z" />
    <glyph glyph-name="breve" unicode="&#x2d8;" horiz-adv-x="745" 
d="M371 1163q-53 0 -97.5 18.5t-79 55t-52 96t-13.5 135.5h25q18 -83 76 -122t141 -39t143 39t78 122h24q9 -148 -62.5 -226.5t-182.5 -78.5z" />
    <glyph glyph-name="dotaccent" unicode="&#x2d9;" horiz-adv-x="487" 
d="M113 1354q0 58 37.5 97.5t91.5 39.5q57 0 95 -39t38 -98q0 -56 -38 -94.5t-95 -38.5q-54 0 -91.5 38.5t-37.5 94.5z" />
    <glyph glyph-name="ring" unicode="&#x2da;" horiz-adv-x="671" 
d="M473 1360q0 57 -39 98t-96 41q-58 0 -97.5 -40.5t-39.5 -98.5t39.5 -98.5t97.5 -40.5q57 0 96 41t39 98zM113 1360q0 97 67 157t158 60q89 0 155 -60t66 -157t-66 -157t-155 -60q-91 0 -158 60t-67 157z" />
    <glyph glyph-name="ogonek" unicode="&#x2db;" horiz-adv-x="634" 
d="M504 -319l18 -11q-29 -73 -87 -112t-134 -39q-78 0 -133 52t-55 132q0 87 68 165t200 132h35q-76 -44 -115 -116.5t-39 -137.5q0 -56 35.5 -90.5t85.5 -34.5q70 0 121 60z" />
    <glyph glyph-name="tilde" unicode="&#x2dc;" horiz-adv-x="823" 
d="M512 1184q-37 0 -82.5 27t-87 54t-70.5 27q-25 0 -48 -14.5t-37.5 -31.5t-43.5 -56h-24q45 242 194 242q36 0 80.5 -27t86.5 -53.5t73 -26.5q35 0 60.5 22t66.5 78h25q-45 -241 -193 -241z" />
    <glyph glyph-name="hungarumlaut" unicode="&#x2dd;" horiz-adv-x="847" 
d="M213 1501h221v-24l-297 -306h-24zM514 1501h221v-24l-297 -306h-24z" />
    <glyph glyph-name="pi" unicode="&#x3c0;" horiz-adv-x="1345" 
d="M1264 0h-537v25l154 92q14 9 18 16.5t4 24.5v762h-461v-762q0 -17 4.5 -24.5t18.5 -16.5l153 -92v-25h-536v25l154 92q14 9 18 16.5t4 24.5v637q0 25 -16 41l-160 141v24h1182v-24l-160 -141q-17 -17 -17 -41v-637q0 -17 4.5 -24.5t18.5 -16.5l154 -92v-25z" />
    <glyph glyph-name="Wgrave" unicode="&#x1e80;" horiz-adv-x="2015" 
d="M606 0l-450 1274q-9 25 -15 32.5t-26 20.5l-125 84v29h561v-29l-172 -102q-12 -6 -14 -13t4 -24l331 -977l277 764l-66 215q-7 22 -14.5 31t-26.5 22l-118 84v29h548v-29l-172 -102q-12 -6 -13.5 -13t3.5 -24l285 -969l338 938q7 22 3 31.5t-24 21.5l-180 117v29h516v-29
l-166 -111q-22 -12 -30 -21.5t-17 -33.5l-457 -1245h-81l-283 915l-334 -915h-82zM1143 1575h-29l-358 291v24h264z" />
    <glyph glyph-name="wgrave" unicode="&#x1e81;" horiz-adv-x="1583" 
d="M315 879q-20 -12 -12 -35l234 -623l211 524l-35 97q-10 25 -31 49l-84 86v24h455v-24l-142 -98q-20 -12 -12 -35l219 -617l256 623q8 18 -8 29l-162 98v24h400v-24l-115 -103q-8 -7 -10.5 -9.5t-6.5 -7t-6.5 -9.5t-5.5 -12l-342 -836h-88l-239 633l-259 -633h-88
l-329 842q-10 25 -31 49l-84 86v24h459v-24zM920 1167h-29l-359 291v25h265z" />
    <glyph glyph-name="Wacute" unicode="&#x1e82;" horiz-adv-x="2015" 
d="M606 0l-450 1274q-9 25 -15 32.5t-26 20.5l-125 84v29h561v-29l-172 -102q-12 -6 -14 -13t4 -24l331 -977l277 764l-66 215q-7 22 -14.5 31t-26.5 22l-118 84v29h548v-29l-172 -102q-12 -6 -13.5 -13t3.5 -24l285 -969l338 938q7 22 3 31.5t-24 21.5l-180 117v29h516v-29
l-166 -111q-22 -12 -30 -21.5t-17 -33.5l-457 -1245h-81l-283 915l-334 -915h-82zM969 1571h-29l125 317h264v-24z" />
    <glyph glyph-name="wacute" unicode="&#x1e83;" horiz-adv-x="1583" 
d="M315 879q-20 -12 -12 -35l234 -623l211 524l-35 97q-10 25 -31 49l-84 86v24h455v-24l-142 -98q-20 -12 -12 -35l219 -617l256 623q8 18 -8 29l-162 98v24h400v-24l-115 -103q-8 -7 -10.5 -9.5t-6.5 -7t-6.5 -9.5t-5.5 -12l-342 -836h-88l-239 633l-259 -633h-88
l-329 842q-10 25 -31 49l-84 86v24h459v-24zM745 1163h-28l125 318h264v-25z" />
    <glyph glyph-name="Wdieresis" unicode="&#x1e84;" horiz-adv-x="2015" 
d="M606 0l-450 1274q-9 25 -15 32.5t-26 20.5l-125 84v29h561v-29l-172 -102q-12 -6 -14 -13t4 -24l331 -977l277 764l-66 215q-7 22 -14.5 31t-26.5 22l-118 84v29h548v-29l-172 -102q-12 -6 -13.5 -13t3.5 -24l285 -969l338 938q7 22 3 31.5t-24 21.5l-180 117v29h516v-29
l-166 -111q-22 -12 -30 -21.5t-17 -33.5l-457 -1245h-81l-283 915l-334 -915h-82zM711 1729q0 51 34.5 87.5t81.5 36.5q49 0 84 -36.5t35 -87.5q0 -48 -35 -84.5t-84 -36.5q-47 0 -81.5 36.5t-34.5 84.5zM1098 1729q0 51 34 87.5t80 36.5q49 0 84 -36.5t35 -87.5
q0 -48 -35 -84.5t-84 -36.5q-45 0 -79.5 36.5t-34.5 84.5z" />
    <glyph glyph-name="wdieresis" unicode="&#x1e85;" horiz-adv-x="1583" 
d="M315 879q-20 -12 -12 -35l234 -623l211 524l-35 97q-10 25 -31 49l-84 86v24h455v-24l-142 -98q-20 -12 -12 -35l219 -617l256 623q8 18 -8 29l-162 98v24h400v-24l-115 -103q-8 -7 -10.5 -9.5t-6.5 -7t-6.5 -9.5t-5.5 -12l-342 -836h-88l-239 633l-259 -633h-88
l-329 842q-10 25 -31 49l-84 86v24h459v-24zM487 1321q0 51 35 88t82 37q49 0 84 -37t35 -88q0 -48 -35 -84.5t-84 -36.5q-47 0 -82 36.5t-35 84.5zM874 1321q0 51 34.5 88t80.5 37q49 0 84 -37t35 -88q0 -48 -35 -84.5t-84 -36.5q-46 0 -80.5 37t-34.5 84z" />
    <glyph glyph-name="uni1E8A" unicode="&#x1e8a;" horiz-adv-x="1376" 
d="M29 0v29l188 123q35 22 55 55l324 493l-389 564q-14 22 -25 32t-32 23l-140 92v29h545v-29l-127 -74q-26 -16 -4 -47l297 -454l276 419q18 29 -4 43l-166 113v29h508v-29l-188 -123q-35 -22 -55 -55l-316 -481l393 -576q14 -22 25 -32t33 -23l139 -92v-29h-545v29l127 73
q26 16 4 48l-301 466l-284 -432q-18 -29 4 -43l166 -112v-29h-508zM557 1761q0 58 37.5 97.5t91.5 39.5q57 0 95 -39t38 -98q0 -56 -38 -94.5t-95 -38.5q-54 0 -91.5 38.5t-37.5 94.5z" />
    <glyph glyph-name="uni1E8B" unicode="&#x1e8b;" horiz-adv-x="1060" 
d="M31 0v25l121 90q32 23 57 55l237 309l-266 367q-16 26 -37 41l-120 90v24h456v-24l-100 -64q-17 -10 -19 -19t9 -24l198 -276l199 260q16 20 -4 33l-135 90v24h403v-24l-121 -90q-30 -22 -57 -56l-238 -307l269 -368q20 -29 37 -41l122 -90v-25h-458v25l100 63
q17 10 19 19t-9 24l-198 279l-201 -263q-16 -19 4 -32l135 -90v-25h-403zM403 1354q0 58 37.5 97.5t91.5 39.5q57 0 95.5 -39.5t38.5 -97.5q0 -56 -38.5 -94.5t-95.5 -38.5q-54 0 -91.5 38.5t-37.5 94.5z" />
    <glyph glyph-name="Ygrave" unicode="&#x1ef2;" horiz-adv-x="1316" 
d="M963 0h-607v29l181 98q14 8 18 15.5t4 25.5v358q0 43 -16 70l-391 678q-13 25 -23 36t-29 23l-110 78v29h555v-29l-166 -96q-20 -11 -6 -39l342 -602l313 579q8 15 7 23.5t-13 15.5l-184 119v29h510v-29l-174 -117q-21 -13 -28.5 -21.5t-21.5 -33.5l-348 -643
q-16 -31 -16 -70v-358q0 -18 4 -25.5t18 -15.5l181 -98v-29zM817 1575h-29l-358 291v24h264z" />
    <glyph glyph-name="ygrave" unicode="&#x1ef3;" horiz-adv-x="1019" 
d="M141 -502q-56 0 -86 23l72 303h25l100 -139q14 -21 27 -21q24 0 55 45q41 56 67.5 107t55.5 127q11 29 2 49l-344 850q-10 25 -31 49l-84 86v24h461v-24l-139 -98q-12 -8 -14.5 -14.5t1.5 -20.5l248 -647l254 653q8 18 -8 29l-162 98v24h399v-24l-114 -103
q-8 -7 -10.5 -9.5t-6.5 -7t-6.5 -9.5t-5.5 -12l-326 -834q-120 -307 -233 -416q-88 -88 -197 -88zM678 1167h-29l-358 291v25h264z" />
    <glyph glyph-name="endash" unicode="&#x2013;" horiz-adv-x="1126" 
d="M1065 451h-1004v110h1004v-110z" />
    <glyph glyph-name="emdash" unicode="&#x2014;" horiz-adv-x="2150" 
d="M2089 451h-2028v110h2028v-110z" />
    <glyph glyph-name="quoteleft" unicode="&#x2018;" horiz-adv-x="491" 
d="M100 1194q0 130 80.5 231.5t206.5 126.5l10 -20q-164 -96 -164 -238q0 -24 6 -32t23 -13q56 -14 84.5 -48t28.5 -77q0 -51 -35 -87t-92 -36q-64 0 -106 49t-42 144z" />
    <glyph glyph-name="quoteright" unicode="&#x2019;" horiz-adv-x="491" 
d="M391 1343q0 -130 -80.5 -231.5t-206.5 -126.5l-10 21q164 96 164 237q0 24 -6 32t-23 13q-56 14 -84 47.5t-28 77.5q0 51 35 87t92 36q64 0 105.5 -49t41.5 -144z" />
    <glyph glyph-name="quotesinglbase" unicode="&#x201a;" horiz-adv-x="491" 
d="M391 72q0 -130 -80.5 -232t-206.5 -127l-10 21q164 96 164 237q0 24 -6 32t-23 13q-56 14 -84 47.5t-28 77.5q0 51 35 87t92 36q64 0 105.5 -48.5t41.5 -143.5z" />
    <glyph glyph-name="quotedblleft" unicode="&#x201c;" horiz-adv-x="874" 
d="M483 1186q5 144 77.5 238.5t209.5 127.5l10 -20q-164 -96 -164 -238q0 -24 6 -32t23 -13q56 -14 84.5 -48t28.5 -77q0 -51 -35 -87t-90 -36q-64 0 -107 48.5t-43 136.5zM100 1186q5 144 77.5 238.5t209.5 127.5l10 -20q-164 -96 -164 -238q0 -24 6 -32t23 -13
q56 -14 84.5 -48t28.5 -77q0 -51 -35 -87t-90 -36q-64 0 -107 48.5t-43 136.5z" />
    <glyph glyph-name="quotedblright" unicode="&#x201d;" horiz-adv-x="874" 
d="M391 1343q0 -130 -80.5 -231.5t-206.5 -126.5l-10 21q164 96 164 237q0 24 -6 32t-23 13q-56 14 -84 47.5t-28 77.5q0 51 35 87t92 36q64 0 105.5 -49t41.5 -144zM774 1343q0 -130 -80.5 -231.5t-206.5 -126.5l-10 21q164 96 164 237q0 24 -6 32t-23 13q-56 14 -84 47.5
t-28 77.5q0 51 35 87t92 36q64 0 105.5 -49t41.5 -144z" />
    <glyph glyph-name="quotedblbase" unicode="&#x201e;" horiz-adv-x="874" 
d="M391 72q0 -130 -80.5 -232t-206.5 -127l-10 21q164 96 164 237q0 24 -6 32t-23 13q-56 14 -84 47.5t-28 77.5q0 51 35 87t92 36q64 0 105.5 -48.5t41.5 -143.5zM774 72q0 -130 -80.5 -232t-206.5 -127l-10 21q164 96 164 237q0 24 -6 32t-23 13q-56 14 -84 47.5t-28 77.5
q0 51 35 87t92 36q64 0 105.5 -48.5t41.5 -143.5z" />
    <glyph glyph-name="dagger" unicode="&#x2020;" horiz-adv-x="839" 
d="M82 1024v92h285v324h106v-324h285v-92h-285v-758h-106v758h-285z" />
    <glyph glyph-name="daggerdbl" unicode="&#x2021;" horiz-adv-x="839" 
d="M758 590h-285v-324h-106v324h-285v92h285v342h-285v92h285v324h106v-324h285v-92h-285v-342h285v-92z" />
    <glyph glyph-name="bullet" unicode="&#x2022;" horiz-adv-x="714" 
d="M129 641q0 99 65 167.5t162 68.5q99 0 164.5 -68.5t65.5 -167.5t-65.5 -167t-164.5 -68q-97 0 -162 68t-65 167z" />
    <glyph glyph-name="ellipsis" unicode="&#x2026;" horiz-adv-x="1658" 
d="M137 125q0 60 39.5 101.5t99.5 41.5t100 -41.5t40 -101.5t-40 -101.5t-100 -41.5t-99.5 41.5t-39.5 101.5zM690 125q0 60 39.5 101.5t99.5 41.5t100 -41.5t40 -101.5t-40 -101.5t-100 -41.5t-99.5 41.5t-39.5 101.5zM1243 125q0 60 39.5 101.5t99.5 41.5t100 -41.5
t40 -101.5t-40 -101.5t-100 -41.5t-99.5 41.5t-39.5 101.5z" />
    <glyph glyph-name="perthousand" unicode="&#x2030;" horiz-adv-x="2373" 
d="M387 1395q-135 0 -135 -322q0 -317 135 -317q137 0 137 315q0 324 -137 324zM387 1456q143 0 228 -97.5t85 -287.5q0 -191 -82.5 -285t-230.5 -94q-143 0 -227 95t-84 284q0 187 85 286t226 99zM1186 686q-135 0 -135 -321q0 -318 135 -318q137 0 137 315q0 324 -137 324
zM1186 748q143 0 228 -98t85 -288q0 -191 -82.5 -284.5t-230.5 -93.5q-143 0 -227.5 94.5t-84.5 283.5q0 187 85.5 286.5t226.5 99.5zM1919 686q-135 0 -135 -321q0 -318 135 -318q137 0 137 315q0 324 -137 324zM1919 748q143 0 228 -98t85 -288q0 -191 -82.5 -284.5
t-230.5 -93.5q-143 0 -227 94.5t-84 283.5q0 187 85 286.5t226 99.5zM1303 1425l-922 -1456l-74 47l922 1457z" />
    <glyph glyph-name="guilsinglleft" unicode="&#x2039;" horiz-adv-x="550" 
d="M440 133l-368 391v17l368 391l19 -19l-191 -381l191 -380z" />
    <glyph glyph-name="guilsinglright" unicode="&#x203a;" horiz-adv-x="550" 
d="M479 524l-368 -391l-19 19l191 380l-191 381l19 19l368 -391v-17z" />
    <glyph glyph-name="fraction" unicode="&#x2044;" horiz-adv-x="135" 
d="M565 1425l-921 -1456l-74 47l922 1457z" />
    <glyph glyph-name="uni2070" unicode="&#x2070;" horiz-adv-x="696" 
d="M346 1395q-135 0 -135 -322q0 -317 135 -317q137 0 137 315q0 324 -137 324zM346 1456q143 0 228 -97.5t85 -287.5q0 -191 -82.5 -285t-230.5 -94q-143 0 -227 95t-84 284q0 187 85 286t226 99z" />
    <glyph glyph-name="uni2074" unicode="&#x2074;" horiz-adv-x="696" 
d="M594 709h-336v24l76 41q14 7 14 25v86h-317v14l329 541h146v-492h39q18 0 26 13l72 100h25l-19 -176h-143v-86q0 -18 14 -25l74 -41v-24zM348 948v348l-207 -348h207z" />
    <glyph glyph-name="uni2075" unicode="&#x2075;" horiz-adv-x="696" 
d="M301 692q-125 0 -223 37l63 209h25l80 -168q6 -10 16 -12t37 -2q59 0 103 46t44 118q0 73 -45.5 116t-128.5 43q-70 0 -135 -30h-14l12 389q74 -4 322 -4q34 0 49.5 4.5t28.5 21.5l28 31h23l-13 -109q-6 -45 -28 -60t-74 -15q-14 0 -114.5 1t-157.5 1l-9 -187
q86 33 170 33q113 0 185.5 -60t72.5 -163q0 -111 -85 -175.5t-232 -64.5z" />
    <glyph glyph-name="uni2076" unicode="&#x2076;" horiz-adv-x="696" 
d="M393 1456q123 0 209 -35l-63 -188h-21l-84 147q-9 13 -41 13q-159 0 -162 -306q26 34 76 54t107 20q94 0 156.5 -60t62.5 -161q0 -111 -76.5 -179.5t-196.5 -68.5q-139 0 -218 100t-79 275q0 187 89 288t241 101zM344 1083q-71 0 -113 -57q4 -140 40.5 -206t90.5 -66
q50 0 80.5 49t30.5 117q0 74 -33.5 118.5t-95.5 44.5z" />
    <glyph glyph-name="uni2077" unicode="&#x2077;" horiz-adv-x="696" 
d="M379 709h-195v20q183 385 301 582h-286q-27 0 -39 -15l-62 -69h-24l24 213h523v-21l-68 -88q-19 -26 -25 -45q-76 -233 -149 -577z" />
    <glyph glyph-name="uni2078" unicode="&#x2078;" horiz-adv-x="696" 
d="M342 692q-104 0 -187 51.5t-83 133.5q0 59 48.5 105.5t119.5 70.5l-17 8q-133 67 -133 190q0 93 73 149t179 56q102 0 175 -46.5t73 -127.5q0 -63 -46.5 -101.5t-113.5 -56.5l43 -20q152 -72 152 -193q0 -95 -81 -157t-202 -62zM358 993l-77 39q-37 -21 -59.5 -58
t-22.5 -83q0 -59 41.5 -96t107.5 -37q58 0 96.5 32.5t38.5 73.5q0 39 -29.5 67t-95.5 62zM219 1303q0 -73 105 -125l69 -35q74 62 74 135q0 52 -34 83.5t-91 31.5q-52 0 -87.5 -26.5t-35.5 -63.5z" />
    <glyph glyph-name="uni2079" unicode="&#x2079;" horiz-adv-x="696" 
d="M303 692q-123 0 -209 35l64 188h20l84 -147q8 -12 41 -12q156 0 162 305q-26 -34 -75.5 -54t-106.5 -20q-94 0 -157 60t-63 161q0 111 76.5 179.5t196.5 68.5q139 0 218 -100t79 -275q0 -187 -89 -288t-241 -101zM352 1065q71 0 113 57q-6 140 -41.5 206.5t-89.5 66.5
q-50 0 -80.5 -49t-30.5 -117q0 -74 33.5 -119t95.5 -45z" />
    <glyph glyph-name="parenleft.sups" unicode="&#x207d;" horiz-adv-x="509" 
d="M276 1049q0 -161 41 -291t123 -207l-10 -19q-140 62 -228.5 205t-88.5 312t88.5 311.5t228.5 204.5l10 -19q-82 -77 -123 -206.5t-41 -290.5z" />
    <glyph glyph-name="parenright.sups" unicode="&#x207e;" horiz-adv-x="509" 
d="M233 1049q0 161 -40.5 290.5t-122.5 206.5l10 19q140 -62 228.5 -204.5t88.5 -311.5t-88.5 -312t-228.5 -205l-10 19q82 77 122.5 207t40.5 291z" />
    <glyph glyph-name="uni2080" unicode="&#x2080;" horiz-adv-x="696" 
d="M346 686q-135 0 -135 -321q0 -318 135 -318q137 0 137 315q0 324 -137 324zM346 748q143 0 228 -98t85 -288q0 -191 -82.5 -284.5t-230.5 -93.5q-143 0 -227 94.5t-84 283.5q0 187 85 286.5t226 99.5z" />
    <glyph glyph-name="uni2081" unicode="&#x2081;" horiz-adv-x="696" 
d="M586 0h-469v20l145 76q10 5 10 21v481q0 13 -12 18l-139 58v20l309 58v-635q0 -16 10 -21l146 -76v-20z" />
    <glyph glyph-name="uni2082" unicode="&#x2082;" horiz-adv-x="696" 
d="M305 684q-21 0 -29 -4.5t-14 -17.5l-86 -160h-24l-60 198q113 48 238 48q129 0 196.5 -56.5t67.5 -150.5q0 -27 -7 -54t-16 -49t-29.5 -49.5t-34.5 -45.5t-46 -46t-48 -42.5t-56 -44.5t-55.5 -41.5t-59.5 -43.5h239q23 0 32 3.5t22 18.5l55 72h24l-30 -219h-502v25
l141 155q105 116 153 197t48 166q0 66 -31 103.5t-88 37.5z" />
    <glyph glyph-name="uni2083" unicode="&#x2083;" horiz-adv-x="696" 
d="M326 748q127 0 195.5 -49.5t68.5 -131.5q0 -74 -48.5 -118.5t-125.5 -59.5q89 -6 145.5 -54.5t56.5 -125.5q0 -101 -83 -163t-232 -62q-145 0 -231 36l69 207h23l82 -164q6 -11 15 -13.5t32 -2.5q68 0 110.5 49t42.5 109q0 151 -180 157v27q80 12 120 58.5t40 117.5
q0 55 -33 87t-92 32q-38 0 -47 -14l-88 -168h-25l-59 200q119 46 244 46z" />
    <glyph glyph-name="uni2084" unicode="&#x2084;" horiz-adv-x="696" 
d="M594 0h-336v25l76 41q14 7 14 24v86h-317v14l329 541h146v-491h39q19 0 26 12l72 100h25l-19 -176h-143v-86q0 -17 14 -24l74 -41v-25zM348 240v348l-207 -348h207z" />
    <glyph glyph-name="uni2085" unicode="&#x2085;" horiz-adv-x="696" 
d="M301 -14q-125 0 -223 37l63 208h25l80 -168q6 -10 16 -12t37 -2q59 0 103 46t44 118q0 73 -45.5 116.5t-128.5 43.5q-68 0 -135 -31h-14l12 389q74 -4 322 -4q33 0 49 5t29 22l28 30h23l-13 -108q-6 -46 -28 -61t-74 -15q-14 0 -114.5 1t-157.5 1l-9 -186q86 33 170 33
q113 0 185.5 -60.5t72.5 -163.5q0 -111 -85 -175t-232 -64z" />
    <glyph glyph-name="uni2086" unicode="&#x2086;" horiz-adv-x="696" 
d="M393 748q123 0 209 -35l-63 -189h-21l-84 148q-8 12 -41 12q-156 0 -162 -301q28 32 77.5 51t105.5 19q94 0 156.5 -60.5t62.5 -161.5q0 -111 -76.5 -179t-196.5 -68q-139 0 -218 99.5t-79 274.5q0 187 89 288.5t241 101.5zM344 375q-71 0 -113 -58q4 -140 40.5 -206
t90.5 -66q50 0 80.5 49t30.5 117q0 74 -33.5 119t-95.5 45z" />
    <glyph glyph-name="uni2087" unicode="&#x2087;" horiz-adv-x="696" 
d="M379 0h-195v20q183 385 301 582h-286q-27 0 -39 -14l-62 -70h-24l24 213h523v-20l-68 -88q-19 -26 -25 -45q-76 -231 -149 -578z" />
    <glyph glyph-name="uni2088" unicode="&#x2088;" horiz-adv-x="696" 
d="M342 -16q-104 0 -187 51t-83 133q0 59 48.5 105.5t119.5 70.5l-17 8q-133 66 -133 191q0 93 73 149t179 56q101 0 174.5 -47t73.5 -128q0 -63 -46.5 -101t-113.5 -56l43 -21q152 -72 152 -192q0 -95 -81 -157t-202 -62zM358 285l-77 39q-37 -21 -59.5 -58.5t-22.5 -83.5
q0 -59 41.5 -96t107.5 -37q58 0 96.5 32.5t38.5 74.5q0 39 -29.5 67t-95.5 62zM219 594q0 -73 105 -125l69 -35q74 62 74 135q0 52 -34 83.5t-91 31.5q-52 0 -87.5 -26.5t-35.5 -63.5z" />
    <glyph glyph-name="uni2089" unicode="&#x2089;" horiz-adv-x="696" 
d="M303 -16q-126 0 -209 34l64 189h20l84 -148q8 -12 41 -12q156 0 162 299q-28 -31 -78 -49t-104 -18q-94 0 -157 60t-63 161q0 111 76.5 179.5t196.5 68.5q139 0 218 -100t79 -275q0 -187 -89 -288t-241 -101zM352 356q71 0 113 58q-6 140 -41.5 206t-89.5 66
q-50 0 -80.5 -49t-30.5 -117q0 -74 33.5 -119t95.5 -45z" />
    <glyph glyph-name="Euro" unicode="&#x20ac;" horiz-adv-x="1331" 
d="M842 -31q-143 0 -256.5 41t-189.5 116t-122.5 172.5t-64.5 217.5h-158v82h148q-2 27 -2 82q0 39 2 59h-148v82h156q42 246 206 391.5t443 145.5q182 0 346 -47v-393h-24l-174 315q-15 30 -52 35q-49 8 -98 8q-199 0 -313 -124.5t-142 -330.5h490v-82h-498v-51
q0 -32 4 -90h494v-82h-486q72 -465 457 -465q36 0 82 6q29 4 38.5 10t18.5 23l179 320h24v-394q-161 -47 -360 -47z" />
    <glyph glyph-name="trademark" unicode="&#x2122;" horiz-adv-x="1624" 
d="M1522 829h-303v23l84 45q10 5 10 21v6v409l-211 -502h-10l-211 500v-391q0 -27 14 -37l76 -51v-23h-252v23l74 51q16 14 16 37v408q0 16 -8 22l-82 43v27h237l164 -385l166 385h236v-27l-84 -43q-11 -7 -11 -22v-424q0 -22 6 -26q1 0 3 -1l86 -45v-23zM518 829h-301v23
l78 47q14 7 14 29v440h-98q-13 0 -21 -10l-73 -119h-25v201h553v-201h-29l-73 119q-4 10 -19 10h-98v-440q0 -22 14 -29l78 -47v-23z" />
    <glyph glyph-name="Omega" unicode="&#x2126;" horiz-adv-x="1521" 
d="M1419 0h-585v201q319 134 319 628q0 270 -103.5 415t-287.5 145q-185 0 -289 -145.5t-104 -414.5q0 -494 319 -628v-201h-586v391h27l180 -285q11 -18 18.5 -22t28.5 -4h252v90q-215 73 -343 239t-128 416q0 149 53 273t141.5 204t200 124t230.5 44t229.5 -43.5
t198.5 -123.5t141 -204.5t53 -273.5q0 -248 -127 -414.5t-344 -240.5v-90h252q21 0 28.5 4t18.5 22l181 285h26v-391z" />
    <glyph glyph-name="uni2153" unicode="&#x2153;" horiz-adv-x="1527" 
d="M1262 1425l-922 -1456l-74 47l922 1457zM586 709h-469v20l145 76q10 5 10 20v482q0 13 -12 18l-139 57v21l309 57v-635q0 -15 10 -20l146 -76v-20zM1157 748q127 0 195.5 -49.5t68.5 -131.5q0 -74 -48.5 -118.5t-125.5 -59.5q89 -6 146 -54.5t57 -125.5q0 -101 -83 -163
t-232 -62q-146 0 -232 36l70 207h22l82 -164q6 -11 15 -13.5t32 -2.5q68 0 111 49t43 109q0 151 -180 157v27q80 12 119.5 58.5t39.5 117.5q0 55 -32.5 87t-91.5 32q-39 0 -48 -14l-88 -168h-24l-60 200q119 46 244 46z" />
    <glyph glyph-name="uni2154" unicode="&#x2154;" horiz-adv-x="1527" 
d="M305 1393q-20 0 -28 -5t-15 -18l-86 -160h-24l-60 199q110 47 238 47q129 0 196.5 -56.5t67.5 -150.5q0 -34 -11.5 -69t-25.5 -61.5t-47 -62t-53 -55.5t-69 -58t-69 -53t-77 -56h239q23 0 32 3.5t22 18.5l55 72h24l-30 -219h-502v24l141 156q105 117 153 197t48 165
q0 66 -31 104t-88 38zM1262 1425l-922 -1456l-74 47l922 1457zM1157 748q127 0 195.5 -49.5t68.5 -131.5q0 -74 -48.5 -118.5t-125.5 -59.5q89 -6 146 -54.5t57 -125.5q0 -101 -83 -163t-232 -62q-146 0 -232 36l70 207h22l82 -164q6 -11 15 -13.5t32 -2.5q68 0 111 49
t43 109q0 151 -180 157v27q80 12 119.5 58.5t39.5 117.5q0 55 -32.5 87t-91.5 32q-39 0 -48 -14l-88 -168h-24l-60 200q119 46 244 46z" />
    <glyph glyph-name="uni2155" unicode="&#x2155;" horiz-adv-x="1527" 
d="M1133 -14q-126 0 -224 37l64 208h24l80 -168q6 -10 16 -12t37 -2q60 0 104 46t44 118q0 73 -45.5 116.5t-128.5 43.5q-68 0 -135 -31h-15l13 389q74 -4 321 -4q33 0 49 5t29 22l29 30h22l-12 -108q-6 -46 -28 -61t-74 -15q-14 0 -115 1t-158 1l-8 -186q86 33 170 33
q113 0 185.5 -60.5t72.5 -163.5q0 -111 -85 -175t-232 -64zM586 709h-469v20l145 76q10 5 10 20v482q0 13 -12 18l-139 57v21l309 57v-635q0 -15 10 -20l146 -76v-20zM1262 1425l-922 -1456l-74 47l922 1457z" />
    <glyph glyph-name="uni2156" unicode="&#x2156;" horiz-adv-x="1527" 
d="M1133 -14q-126 0 -224 37l64 208h24l80 -168q6 -10 16 -12t37 -2q60 0 104 46t44 118q0 73 -45.5 116.5t-128.5 43.5q-68 0 -135 -31h-15l13 389q74 -4 321 -4q33 0 49 5t29 22l29 30h22l-12 -108q-6 -46 -28 -61t-74 -15q-14 0 -115 1t-158 1l-8 -186q86 33 170 33
q113 0 185.5 -60.5t72.5 -163.5q0 -111 -85 -175t-232 -64zM305 1393q-20 0 -28 -5t-15 -18l-86 -160h-24l-60 199q110 47 238 47q129 0 196.5 -56.5t67.5 -150.5q0 -34 -11.5 -69t-25.5 -61.5t-47 -62t-53 -55.5t-69 -58t-69 -53t-77 -56h239q23 0 32 3.5t22 18.5l55 72h24
l-30 -219h-502v24l141 156q105 117 153 197t48 165q0 66 -31 104t-88 38zM1262 1425l-922 -1456l-74 47l922 1457z" />
    <glyph glyph-name="uni2157" unicode="&#x2157;" horiz-adv-x="1527" 
d="M1133 -14q-126 0 -224 37l64 208h24l80 -168q6 -10 16 -12t37 -2q60 0 104 46t44 118q0 73 -45.5 116.5t-128.5 43.5q-68 0 -135 -31h-15l13 389q74 -4 321 -4q33 0 49 5t29 22l29 30h22l-12 -108q-6 -46 -28 -61t-74 -15q-14 0 -115 1t-158 1l-8 -186q86 33 170 33
q113 0 185.5 -60.5t72.5 -163.5q0 -111 -85 -175t-232 -64zM326 1456q127 0 195.5 -49t68.5 -131q0 -74 -48.5 -118.5t-125.5 -59.5q89 -6 145.5 -54.5t56.5 -125.5q0 -101 -83 -163.5t-232 -62.5q-143 0 -231 37l69 207h23l82 -164q6 -11 15 -13.5t32 -2.5q68 0 110.5 48.5
t42.5 108.5q0 152 -180 158v27q80 12 120 58.5t40 117.5q0 55 -33 87t-92 32q-37 0 -47 -15l-88 -168h-25l-59 201q117 45 244 45zM1262 1425l-922 -1456l-74 47l922 1457z" />
    <glyph glyph-name="uni2158" unicode="&#x2158;" horiz-adv-x="1527" 
d="M594 709h-336v24l76 41q14 7 14 25v86h-317v14l329 541h146v-492h39q18 0 26 13l72 100h25l-19 -176h-143v-86q0 -18 14 -25l74 -41v-24zM348 948v348l-207 -348h207zM1133 -14q-126 0 -224 37l64 208h24l80 -168q6 -10 16 -12t37 -2q60 0 104 46t44 118
q0 73 -45.5 116.5t-128.5 43.5q-68 0 -135 -31h-15l13 389q74 -4 321 -4q33 0 49 5t29 22l29 30h22l-12 -108q-6 -46 -28 -61t-74 -15q-14 0 -115 1t-158 1l-8 -186q86 33 170 33q113 0 185.5 -60.5t72.5 -163.5q0 -111 -85 -175t-232 -64zM1262 1425l-922 -1456l-74 47
l922 1457z" />
    <glyph glyph-name="uni2159" unicode="&#x2159;" horiz-adv-x="1527" 
d="M1225 748q123 0 209 -35l-64 -189h-20l-84 148q-8 12 -41 12q-156 0 -162 -301q28 32 77 51t105 19q94 0 156.5 -60.5t62.5 -161.5q0 -111 -76 -179t-196 -68q-139 0 -218 99.5t-79 274.5q0 187 89 288.5t241 101.5zM1176 375q-71 0 -113 -58q4 -140 40.5 -206t90.5 -66
q50 0 80.5 49t30.5 117q0 74 -33.5 119t-95.5 45zM586 709h-469v20l145 76q10 5 10 20v482q0 13 -12 18l-139 57v21l309 57v-635q0 -15 10 -20l146 -76v-20zM1262 1425l-922 -1456l-74 47l922 1457z" />
    <glyph glyph-name="uni215A" unicode="&#x215a;" horiz-adv-x="1527" 
d="M1262 1425l-922 -1456l-74 47l922 1457zM1225 748q123 0 209 -35l-64 -189h-20l-84 148q-8 12 -41 12q-156 0 -162 -301q28 32 77 51t105 19q94 0 156.5 -60.5t62.5 -161.5q0 -111 -76 -179t-196 -68q-139 0 -218 99.5t-79 274.5q0 187 89 288.5t241 101.5zM1176 375
q-71 0 -113 -58q4 -140 40.5 -206t90.5 -66q50 0 80.5 49t30.5 117q0 74 -33.5 119t-95.5 45zM301 692q-125 0 -223 37l63 209h25l80 -168q6 -10 16 -12t37 -2q59 0 103 46t44 118q0 73 -45.5 116t-128.5 43q-70 0 -135 -30h-14l12 389q74 -4 322 -4q34 0 49.5 4.5
t28.5 21.5l28 31h23l-13 -109q-6 -45 -28 -60t-74 -15q-14 0 -114.5 1t-157.5 1l-9 -187q86 33 170 33q113 0 185.5 -60t72.5 -163q0 -111 -85 -175.5t-232 -64.5z" />
    <glyph glyph-name="uni215B" unicode="&#x215b;" horiz-adv-x="1527" 
d="M1174 -16q-104 0 -187.5 51t-83.5 133q0 59 48.5 105.5t119.5 70.5l-16 8q-133 66 -133 191q0 93 73 149t179 56q101 0 174 -47t73 -128q0 -63 -46 -101t-113 -56l43 -21q151 -72 151 -192q0 -95 -80.5 -157t-201.5 -62zM1190 285l-78 39q-37 -21 -59.5 -58.5
t-22.5 -83.5q0 -59 42 -96t108 -37q58 0 96.5 32.5t38.5 74.5q0 39 -29.5 67t-95.5 62zM1051 594q0 -74 104 -125l70 -35q73 62 73 135q0 53 -33.5 84t-90.5 31q-52 0 -87.5 -26.5t-35.5 -63.5zM586 709h-469v20l145 76q10 5 10 20v482q0 13 -12 18l-139 57v21l309 57v-635
q0 -15 10 -20l146 -76v-20zM1262 1425l-922 -1456l-74 47l922 1457z" />
    <glyph glyph-name="uni215C" unicode="&#x215c;" horiz-adv-x="1527" 
d="M1174 -16q-104 0 -187.5 51t-83.5 133q0 59 48.5 105.5t119.5 70.5l-16 8q-133 66 -133 191q0 93 73 149t179 56q101 0 174 -47t73 -128q0 -63 -46 -101t-113 -56l43 -21q151 -72 151 -192q0 -95 -80.5 -157t-201.5 -62zM1190 285l-78 39q-37 -21 -59.5 -58.5
t-22.5 -83.5q0 -59 42 -96t108 -37q58 0 96.5 32.5t38.5 74.5q0 39 -29.5 67t-95.5 62zM1051 594q0 -74 104 -125l70 -35q73 62 73 135q0 53 -33.5 84t-90.5 31q-52 0 -87.5 -26.5t-35.5 -63.5zM319 1456q127 0 196 -49t69 -131q0 -74 -48.5 -118.5t-125.5 -59.5
q89 -6 145.5 -54.5t56.5 -125.5q0 -101 -83 -163.5t-232 -62.5q-143 0 -231 37l69 207h23l82 -164q6 -11 15 -13.5t32 -2.5q68 0 110.5 48.5t42.5 108.5q0 152 -180 158v27q80 12 120 58.5t40 117.5q0 55 -33 87t-92 32q-37 0 -47 -15l-88 -168h-25l-59 201q117 45 243 45z
M1262 1425l-922 -1456l-74 47l922 1457z" />
    <glyph glyph-name="uni215D" unicode="&#x215d;" horiz-adv-x="1527" 
d="M1174 -16q-104 0 -187.5 51t-83.5 133q0 59 48.5 105.5t119.5 70.5l-16 8q-133 66 -133 191q0 93 73 149t179 56q101 0 174 -47t73 -128q0 -63 -46 -101t-113 -56l43 -21q151 -72 151 -192q0 -95 -80.5 -157t-201.5 -62zM1190 285l-78 39q-37 -21 -59.5 -58.5
t-22.5 -83.5q0 -59 42 -96t108 -37q58 0 96.5 32.5t38.5 74.5q0 39 -29.5 67t-95.5 62zM1051 594q0 -74 104 -125l70 -35q73 62 73 135q0 53 -33.5 84t-90.5 31q-52 0 -87.5 -26.5t-35.5 -63.5zM1262 1425l-922 -1456l-74 47l922 1457zM301 692q-125 0 -223 37l63 209h25
l80 -168q6 -10 16 -12t37 -2q59 0 103 46t44 118q0 73 -45.5 116t-128.5 43q-70 0 -135 -30h-14l12 389q74 -4 322 -4q34 0 49.5 4.5t28.5 21.5l28 31h23l-13 -109q-6 -45 -28 -60t-74 -15q-14 0 -114.5 1t-157.5 1l-9 -187q86 33 170 33q113 0 185.5 -60t72.5 -163
q0 -111 -85 -175.5t-232 -64.5z" />
    <glyph glyph-name="uni215E" unicode="&#x215e;" horiz-adv-x="1527" 
d="M1174 -16q-104 0 -187.5 51t-83.5 133q0 59 48.5 105.5t119.5 70.5l-16 8q-133 66 -133 191q0 93 73 149t179 56q101 0 174 -47t73 -128q0 -63 -46 -101t-113 -56l43 -21q151 -72 151 -192q0 -95 -80.5 -157t-201.5 -62zM1190 285l-78 39q-37 -21 -59.5 -58.5
t-22.5 -83.5q0 -59 42 -96t108 -37q58 0 96.5 32.5t38.5 74.5q0 39 -29.5 67t-95.5 62zM1051 594q0 -74 104 -125l70 -35q73 62 73 135q0 53 -33.5 84t-90.5 31q-52 0 -87.5 -26.5t-35.5 -63.5zM1262 1425l-922 -1456l-74 47l922 1457zM440 709h-194v20q183 385 301 582
h-287q-26 0 -39 -15l-61 -69h-25l25 213h522v-21l-68 -88q-17 -24 -24 -45q-79 -242 -150 -577z" />
    <glyph glyph-name="partialdiff" unicode="&#x2202;" horiz-adv-x="1148" 
d="M1067 606q0 -187 -57 -329t-170 -222t-269 -80q-78 0 -149.5 20t-133.5 62t-107.5 102t-72 145t-26.5 185q0 128 42 232.5t111 169.5t153.5 100t172.5 35q93 0 169 -39.5t110 -114.5q-25 106 -60.5 191.5t-92.5 167.5t-142.5 148t-198.5 114l12 43q209 -48 368 -173.5
t250 -321t91 -435.5zM868 530q0 108 -25 191t-67 130t-91 70t-103 23q-139 0 -212 -117t-73 -319q0 -214 77 -332.5t199 -118.5q127 0 211 127.5t84 345.5z" />
    <glyph glyph-name="Delta" unicode="&#x2206;" 
d="M35 0l459 1225q14 36 0 63l-82 131v21h254l557 -1440h-1188zM567 1163l-399 -1081h813z" />
    <glyph glyph-name="product" unicode="&#x220f;" horiz-adv-x="1605" 
d="M1542 0h-606v29l180 98q14 8 18.5 15.5t4.5 25.5v1186h-672v-1186q0 -18 4 -25.5t18 -15.5l181 -98v-29h-607v29l181 98q14 8 18 15.5t4 25.5v1104q0 18 -4 25.5t-18 15.5l-181 98v29h1479v-29l-180 -98q-14 -8 -18.5 -15.5t-4.5 -25.5v-1104q0 -18 4.5 -25.5t18.5 -15.5
l180 -98v-29z" />
    <glyph glyph-name="summation" unicode="&#x2211;" horiz-adv-x="1220" 
d="M1085 0h-1022v31l541 671l-541 709v29h1002v-359h-27l-166 250q-10 19 -17.5 23t-27.5 4h-483l438 -580l-499 -616h626q21 0 28.5 3.5t16.5 16.5l129 197h27z" />
    <glyph glyph-name="minus" unicode="&#x2212;" 
d="M1065 444h-901v103h901v-103z" />
    <glyph glyph-name="radical" unicode="&#x221a;" 
d="M1067 1505l-537 -1536h-24l-320 910l162 59l209 -590l416 1184z" />
    <glyph glyph-name="infinity" unicode="&#x221e;" horiz-adv-x="1548" 
d="M170 502q0 -83 60.5 -150t152.5 -67q45 0 89.5 17t88.5 52.5t75.5 66t78.5 81.5q-47 51 -78.5 81.5t-75.5 66t-88.5 52.5t-89.5 17q-92 0 -152.5 -67t-60.5 -150zM1378 502q0 83 -60.5 150t-152.5 67q-45 0 -89 -17t-88.5 -52.5t-75.5 -66t-78 -81.5q47 -51 78 -81.5
t75.5 -66t88.5 -52.5t89 -17q92 0 152.5 67t60.5 150zM774 575q41 42 58.5 60t55 52.5t62.5 50.5t61 35.5t72.5 27.5t75.5 8q79 0 149.5 -32.5t119.5 -104.5t49 -170t-49 -170t-119.5 -104.5t-149.5 -32.5q-34 0 -67 7.5t-59 17t-58 30.5t-51.5 35.5t-52 45t-47.5 46
t-50 51.5q-35 -36 -50 -51.5t-47.5 -46t-52 -45t-51.5 -35.5t-58 -30.5t-59 -17t-67 -7.5q-58 0 -113 19.5t-101.5 56t-74.5 97t-28 134.5t28 134.5t74.5 97t101.5 56t113 19.5q39 0 75.5 -8t72.5 -27.5t61 -35.5t62.5 -50.5t55 -52.5t58.5 -60z" />
    <glyph glyph-name="integral" unicode="&#x222b;" horiz-adv-x="802" 
d="M203 -502q-58 0 -129 12t-117 29l100 279h25l88 -215q7 -18 12.5 -22.5t18.5 -4.5q54 0 83 67.5t29 194.5v1299q0 160 77.5 246.5t209.5 86.5q59 0 130 -11.5t116 -28.5l-101 -279h-24l-88 215q-7 18 -12.5 22.5t-18.5 4.5q-54 0 -83.5 -68t-29.5 -195v-1298
q0 -160 -77 -247t-209 -87z" />
    <glyph glyph-name="approxequal" unicode="&#x2248;" 
d="M850 584q-62 0 -129.5 22.5t-116.5 50t-109 50t-108 22.5q-119 0 -188 -111l-86 54q97 157 266 157q62 0 129.5 -22.5t116.5 -50t109 -50t108 -22.5q119 0 188 111l86 -54q-97 -157 -266 -157zM850 219q-62 0 -129.5 23t-116.5 50t-109 50t-108 23q-119 0 -188 -111
l-86 53q44 71 111 114.5t155 43.5q62 0 129.5 -23t116.5 -50t109 -50t108 -23q119 0 188 111l86 -53q-44 -71 -111 -114.5t-155 -43.5z" />
    <glyph glyph-name="notequal" unicode="&#x2260;" 
d="M1065 268h-524l-115 -205l-86 50l88 155h-264v103h321l144 256h-465v102h524l125 221l86 -51l-96 -170h262v-102h-322l-143 -256h465v-103z" />
    <glyph glyph-name="lessequal" unicode="&#x2264;" 
d="M997 315l-833 291v25l833 291l37 -97l-596 -202v-9l596 -202zM1065 39h-901v102h901v-102z" />
    <glyph glyph-name="greaterequal" unicode="&#x2265;" 
d="M231 315l-36 97l596 202v9l-596 202l36 97l834 -291v-25zM1065 39h-901v102h901v-102z" />
    <glyph glyph-name="lozenge" unicode="&#x25ca;" horiz-adv-x="1005" 
d="M516 1495l389 -831l-389 -834h-24l-390 834l390 831h24zM500 1284l-289 -620l289 -623h8l289 623l-289 620h-8z" />
    <glyph glyph-name="commaaccent" unicode="&#xf6c3;" horiz-adv-x="468" 
d="M121 -563l-8 22q45 29 76.5 73t31.5 71q0 19 -18 22q-38 6 -61 35.5t-23 73.5q0 47 34 79.5t83 32.5q54 0 87 -36t33 -105q0 -95 -67 -169t-168 -99z" />
    <glyph glyph-name="apple" unicode="&#xf8ff;" horiz-adv-x="2506" 
d="M1659 893q-48 -115 -126 -174.5t-200 -59.5q-22 0 -81.5 3.5t-77.5 3.5q-98 0 -152 -44.5t-96 -138.5q-26 -58 -54.5 -100.5t-69.5 -79.5t-97 -56.5t-127 -19.5q-25 0 -83.5 4.5t-80.5 4.5q-105 0 -170.5 -56t-65.5 -137q0 -31 2 -43h-76q-2 14 -2 43q0 117 88 192.5
t226 75.5q24 0 84 -4t80 -4q186 0 266 197q98 237 328 237q21 0 81 -3t78 -3q95 0 150 43.5t98 134.5q26 58 54.5 100.5t69.5 79.5t97 56.5t127 19.5q25 0 84 -4t82 -4q102 0 168 56t66 137q0 31 -2 43h75q2 -14 2 -43q0 -117 -87.5 -193t-223.5 -76q-25 0 -85 4.5t-81 4.5
q-184 0 -268 -197z" />
    <glyph glyph-name="cent.alt" horiz-adv-x="987" 
d="M94 477q0 221 113.5 363.5t302.5 175.5v211h82v-201h26q135 0 281 -49l-82 -291h-24l-121 232q-7 14 -12.5 18t-16.5 6q-14 2 -45 2q-59 0 -113 -27.5t-98 -79.5t-70 -135.5t-26 -185.5q0 -200 94.5 -306t239.5 -106q149 0 262 121l22 -20q-40 -92 -122 -152.5
t-195 -72.5v-207h-82v204h-14q-177 14 -289.5 146.5t-112.5 353.5z" />
    <glyph glyph-name="dollar.alt" horiz-adv-x="1148" 
d="M516 -31q-219 0 -393 66v407h27l178 -350q7 -14 14 -19t23 -10q63 -16 147 -16q334 0 334 264q0 102 -55.5 157t-186.5 95l-155 47q-61 19 -113.5 49t-97.5 74.5t-71 108t-26 139.5q0 154 103.5 254.5t294.5 118.5v153h82v-149q150 0 321 -39v-385h-27l-167 315
q-13 23 -52 27q-41 6 -88 6q-146 0 -222.5 -66.5t-76.5 -177.5q0 -99 61.5 -159.5t180.5 -96.5l156 -47q75 -22 130.5 -49.5t103 -69t72.5 -101.5t25 -136q0 -164 -109.5 -272.5t-307.5 -131.5v-155h-82v149h-23z" />
    <glyph glyph-name="ringacute" horiz-adv-x="671" 
d="M113 1360q0 66 51 162l153 299h244v-25l-319 -244q42 25 96 25q89 0 155 -60t66 -157t-66 -157t-155 -60q-91 0 -158 60t-67 157zM473 1360q0 57 -39 98t-96 41q-58 0 -97.5 -40.5t-39.5 -98.5t39.5 -98.5t97.5 -40.5q57 0 96 41t39 98z" />
    <glyph glyph-name="commatop" horiz-adv-x="468" 
d="M348 1569l8 -23q-45 -29 -76.5 -73t-31.5 -70q0 -20 18 -23q38 -6 61 -35t23 -73q0 -47 -34 -80t-83 -33q-54 0 -87 36t-33 105q0 95 67 169.5t168 99.5z" />
    <glyph glyph-name="caron.slovak" horiz-adv-x="458" 
d="M346 1440v-25l-209 -428h-24l18 453h215z" />
    <glyph glyph-name="Jacute" horiz-adv-x="659" 
d="M430 29q0 -199 -107.5 -310.5t-312.5 -158.5l-10 26q229 97 229 432v1254q0 18 -4 25.5t-18 15.5l-180 98v29h606v-29l-180 -98q-14 -8 -18.5 -15.5t-4.5 -25.5v-1243zM283 1602h-29l125 317h264v-25z" />
    <glyph glyph-name="i.trk" horiz-adv-x="651" 
d="M186 1354q0 58 37.5 97.5t91.5 39.5q57 0 95.5 -39.5t38.5 -97.5q0 -56 -38.5 -94.5t-95.5 -38.5q-54 0 -91.5 38.5t-37.5 94.5zM258 158v637q0 25 -16 41l-160 141v24h360v-843q0 -17 4.5 -24.5t18.5 -16.5l153 -92v-25h-536v25l154 92q14 9 18 16.5t4 24.5z" />
    <glyph glyph-name="jacute" horiz-adv-x="565" 
d="M406 27q0 -257 -125 -393t-332 -136l-4 31q130 23 203 149.5t73 329.5v787q0 25 -16 41l-160 141v24h361v-974zM260 1163h-29l125 318h265v-25z" />
    <glyph glyph-name="zero.lf" horiz-adv-x="1323" 
d="M662 1391q-147 0 -232.5 -163t-85.5 -507q0 -177 23.5 -308t67 -209t100 -115.5t127.5 -37.5q147 0 232 161.5t85 504.5q0 347 -85 510.5t-232 163.5zM662 1470q113 0 208.5 -46t168.5 -136.5t114 -236.5t41 -334q0 -370 -143 -559t-389 -189q-113 0 -209 46.5t-169 137
t-114 236t-41 332.5q0 179 41.5 322.5t114 236t169 141.5t208.5 49z" />
    <glyph glyph-name="one.lf" horiz-adv-x="849" 
d="M778 0h-659v25l209 104q17 7 21.5 15t4.5 26v1063q0 19 -5.5 25.5t-22.5 11.5l-228 65v25l445 110v-1300q0 -18 4.5 -26t21.5 -15l209 -104v-25z" />
    <glyph glyph-name="two.lf" horiz-adv-x="1085" 
d="M915 0h-847v29l309 336q197 215 272.5 365.5t75.5 303.5q0 164 -68.5 259.5t-205.5 95.5q-34 0 -78 -7q-19 -3 -25.5 -7.5t-13.5 -20.5l-135 -299h-25l-78 329q183 86 373 86q215 0 341 -116t126 -305q0 -86 -39 -180.5t-81 -162t-150.5 -181t-162.5 -164t-202 -184.5
q-11 -10 -16 -15h440q33 0 43 5t29 30l116 161h27z" />
    <glyph glyph-name="three.lf" horiz-adv-x="1114" 
d="M475 1470q218 0 341.5 -97t123.5 -263q0 -247 -281 -342q144 -6 246.5 -103.5t102.5 -246.5q0 -202 -150.5 -325.5t-411.5 -123.5q-211 0 -362 64l80 338h24l136 -287q12 -24 34 -29q29 -6 86 -6q155 0 256 104t101 259q0 87 -28.5 150.5t-79.5 98.5t-114.5 49.5
t-140.5 10.5v45q139 19 218 107t79 233q0 130 -70 206.5t-208 76.5q-13 0 -43 -3.5t-35 -3.5q-18 -3 -24 -7t-15 -21l-135 -299h-25l-78 329q183 86 373 86z" />
    <glyph glyph-name="four.lf" horiz-adv-x="1236" 
d="M1016 0h-520v25l145 92q16 11 20.5 18.5t4.5 24.5v188h-613v25l629 1067h164v-1000h96q19 0 29 5t22 22l148 229h24l-35 -348h-284v-188q0 -18 4 -24.5t22 -18.5l144 -92v-25zM666 440v799l-461 -799h461z" />
    <glyph glyph-name="five.lf" horiz-adv-x="1097" 
d="M463 -31q-221 0 -379 64l80 327h24l138 -278q11 -22 32 -27q37 -6 101 -6q149 0 247.5 107t98.5 284q0 145 -92.5 236.5t-261.5 91.5q-145 0 -250 -78h-23l15 742q323 -5 509 -5q70 0 95 8t49 38l61 96h25l-19 -211q-6 -66 -31 -85.5t-89 -19.5q-34 0 -215 1t-287 1
l-12 -456q129 80 276 80q215 0 336 -124.5t121 -320.5q0 -208 -147 -336.5t-402 -128.5z" />
    <glyph glyph-name="six.lf" horiz-adv-x="1196" 
d="M694 1470q203 0 342 -59l-78 -319h-24l-137 266q-11 21 -33 26q-44 7 -72 7q-190 0 -277.5 -178.5t-84.5 -524.5q46 87 142 142t218 55q175 0 289.5 -117.5t114.5 -314.5q0 -107 -37 -198.5t-100 -153.5t-147 -97t-177 -35q-228 0 -366 201t-138 545q0 360 153 557.5
t412 197.5zM623 778q-91 0 -170 -49.5t-121 -130.5q16 -285 97.5 -417t203.5 -132q117 0 190.5 106.5t73.5 266.5t-74.5 258t-199.5 98z" />
    <glyph glyph-name="seven.lf" horiz-adv-x="980" 
d="M489 0h-227v25q134 368 284.5 744t209.5 497h-494q-37 0 -52.5 -6t-33.5 -27l-110 -154h-25l33 361h887v-25l-91 -102q-29 -33 -43 -60q-33 -82 -66.5 -186.5t-74.5 -262.5t-62.5 -243.5t-72.5 -300t-62 -260.5z" />
    <glyph glyph-name="eight.lf" horiz-adv-x="1138" 
d="M578 -31q-203 0 -338.5 109t-135.5 260q0 126 94.5 220.5t233.5 148.5l-49 26q-240 130 -240 357q0 117 61 205.5t156 131.5t207 43q110 0 204.5 -42t154 -123t59.5 -185q0 -66 -25.5 -122.5t-70 -97t-97 -68.5t-114.5 -46l92 -47q57 -30 100.5 -62t85 -76t64 -101.5
t22.5 -124.5q0 -109 -57 -201t-164.5 -148.5t-242.5 -56.5zM641 598l-160 82q-192 -119 -192 -328q0 -137 82 -220t209 -83q117 0 194.5 79t77.5 198q0 92 -52 153t-159 119zM311 1143q0 -162 193 -266l125 -66q184 104 184 307q0 134 -72.5 203.5t-175.5 69.5t-178.5 -67.5
t-75.5 -180.5z" />
    <glyph glyph-name="nine.lf" horiz-adv-x="1196" 
d="M506 -31q-201 0 -342 60l78 319h24l137 -266q11 -22 33 -27q38 -6 72 -6q190 0 277.5 178.5t84.5 524.5q-46 -87 -142 -142t-218 -55q-175 0 -289.5 117.5t-114.5 314.5q0 214 134 348.5t327 134.5q228 0 366 -200.5t138 -544.5q0 -360 -153 -558t-412 -198zM578 662
q91 0 169.5 49.5t120.5 130.5q-16 285 -97.5 417t-203.5 132q-117 0 -190.5 -106.5t-73.5 -266.5q0 -159 75 -257.5t200 -98.5z" />
    <glyph glyph-name="dollar.lf" horiz-adv-x="1159" 
d="M561 -242v211h-37q-218 0 -401 66v407h27l174 -342q10 -18 17.5 -25.5t25.5 -11.5q73 -16 151 -16q29 0 43 2v582l-112 47q-312 126 -312 389q0 165 116 271t308 128v211h82v-207q193 0 332 -38v-385h-27l-166 309q-13 27 -41 30q-47 7 -98 7v-576l84 -35q64 -27 109 -50
t92.5 -57t76 -71.5t46.5 -89.5t18 -115q0 -169 -112 -282.5t-314 -139.5v-219h-82zM319 1120q0 -87 55 -150.5t187 -119.5v534q-115 -21 -178.5 -93t-63.5 -171zM877 322q0 100 -58 162.5t-176 113.5v-539q108 27 171 96.5t63 166.5z" />
    <glyph glyph-name="dollar.lf_alt" horiz-adv-x="1159" 
d="M524 -31q-218 0 -401 66v407h27l174 -342q10 -18 17.5 -25.5t25.5 -11.5q73 -16 151 -16q163 0 261 75t98 200q0 104 -62 167t-192 117l-174 72q-312 126 -312 389q0 165 116 271t308 128v211h82v-207q193 0 332 -38v-385h-27l-166 309q-13 27 -41 30q-47 7 -92 7
q-154 0 -242 -77.5t-88 -195.5q0 -86 52 -148.5t168 -111.5l188 -78q64 -27 109 -50t92.5 -57t76 -71.5t46.5 -89.5t18 -115q0 -169 -112 -282.5t-314 -139.5v-219h-82v211h-37z" />
    <glyph glyph-name="cent.lf" horiz-adv-x="987" 
d="M510 -31v205h-14q-177 14 -289.5 155t-112.5 371t113.5 378.5t302.5 181.5v210h82v-200h26q135 0 281 -49l-82 -301h-24l-121 241q-7 15 -12.5 19t-16.5 6q-14 2 -51 2v-887h33q149 0 262 121l22 -21q-40 -92 -122 -152.5t-195 -72.5v-207h-82zM291 739
q0 -165 59.5 -272.5t159.5 -147.5v852q-96 -40 -157.5 -150.5t-61.5 -281.5z" />
    <glyph glyph-name="cent.lf_alt" horiz-adv-x="989" 
d="M889 422l22 -21q-40 -92 -122 -152.5t-195 -72.5v-207h-82v205h-14q-177 14 -290.5 154t-113.5 370t113.5 379t304.5 183v210h82v-200h27q134 0 280 -49l-82 -301h-24l-121 241q-7 15 -12.5 19t-16.5 6q-14 2 -47 2q-124 0 -215.5 -120.5t-91.5 -330.5q0 -209 95 -322.5
t239 -113.5q151 0 264 121z" />
    <glyph glyph-name="sterling.lf" horiz-adv-x="1103" 
d="M909 182l117 158h27l-27 -340h-934v31l117 112q40 40 65 105.5t25 142.5q0 63 -31 170h-176v82h154q-25 65 -38.5 105.5t-25.5 104t-12 124.5q0 151 69.5 264.5t183.5 171t253 57.5q155 0 280 -49l-88 -297h-24l-121 236q-9 19 -18 24t-35 5q-147 0 -236.5 -93.5
t-89.5 -246.5q0 -63 15.5 -128.5t44.5 -151.5t40 -126h291v-82h-272q8 -62 8 -94q0 -59 -13.5 -106.5t-43 -86.5t-54 -63t-67.5 -59h549q28 0 39.5 4.5t27.5 25.5z" />
    <glyph glyph-name="yen.lf" horiz-adv-x="1316" 
d="M266 512v82h279l-393 680q-13 25 -23 36t-29 23l-110 78v29h555v-29l-166 -96q-20 -11 -6 -39l342 -602l313 579q8 15 7 23.5t-13 15.5l-184 119v29h510v-29l-174 -117q-21 -13 -28.5 -21.5t-21.5 -33.5l-350 -645h279v-82h-293v-141h293v-82h-293v-121q0 -18 4 -25.5
t18 -15.5l181 -98v-29h-607v29l181 98q14 8 18 15.5t4 25.5v121h-293v82h293v141h-293z" />
    <glyph glyph-name="Euro.lf" horiz-adv-x="1431" 
d="M53 801v82h166q45 265 235.5 426t477.5 161q166 0 366 -49v-409h-26l-187 334q-10 20 -17 24.5t-30 9.5q-55 9 -110 9q-210 0 -330 -136t-149 -370h442v-82h-449q-2 -23 -2 -68q0 -51 2 -74h449v-81h-442q27 -252 147 -389.5t336 -137.5q57 0 104 8q24 4 31 8.5t16 22.5
l191 340h26v-410q-168 -51 -382 -51q-154 0 -279.5 45t-212 126.5t-139.5 192t-72 245.5h-162v81h154q-2 20 -2 64q0 51 2 78h-154z" />
    <glyph glyph-name="zero.tf" 
d="M614 1391q-142 0 -224.5 -163t-82.5 -507q0 -346 82.5 -508t224.5 -162t225 161.5t83 504.5q0 177 -23 309t-65 210.5t-96.5 116.5t-123.5 38zM614 1470q111 0 204.5 -46t165 -136.5t111.5 -236.5t40 -334q0 -370 -140 -559t-381 -189q-111 0 -204.5 46.5t-164.5 137
t-111 236t-40 332.5q0 179 40 322.5t111 236t165 141.5t204 49z" />
    <glyph glyph-name="one.tf" 
d="M1006 0h-705v25l231 106q17 7 22 15t5 26v1061q0 18 -5.5 25t-23.5 12l-227 65v25l445 110v-1298q0 -18 4.5 -26t21.5 -15l232 -106v-25z" />
    <glyph glyph-name="two.tf" 
d="M1032 0h-848v29l310 336q197 215 272.5 365.5t75.5 303.5q0 164 -68.5 259.5t-206.5 95.5q-34 0 -78 -7q-18 -3 -24.5 -7.5t-13.5 -20.5l-136 -299h-24l-78 329q183 86 373 86q215 0 341 -116t126 -305q0 -62 -18.5 -126.5t-47 -121.5t-78.5 -123.5t-97 -120t-120 -125
t-129.5 -123.5t-142.5 -130q-13 -11 -19 -17h441q33 0 42.5 5t28.5 30l117 161h27z" />
    <glyph glyph-name="three.tf" 
d="M571 1470q218 0 341.5 -97t123.5 -263q0 -247 -280 -342q144 -6 246 -103.5t102 -246.5q0 -202 -150 -325.5t-411 -123.5q-212 0 -363 64l80 338h25l135 -287q12 -24 35 -29q29 -6 86 -6q155 0 255.5 104t100.5 259q0 87 -28.5 150.5t-79 98.5t-114 49.5t-140.5 10.5v45
q139 19 217.5 107t78.5 233q0 130 -70 206.5t-208 76.5q-13 0 -43 -3.5t-35 -3.5q-18 -3 -24 -7t-15 -21l-135 -299h-25l-77 329q183 86 372 86z" />
    <glyph glyph-name="four.tf" 
d="M1020 0h-520v25l145 92q16 11 20.5 18.5t4.5 24.5v188h-613v25l629 1067h164v-1000h96q19 0 29 5t22 22l148 229h24l-34 -348h-285v-188q0 -17 4 -24t23 -19l143 -92v-25zM670 440v799l-461 -799h461z" />
    <glyph glyph-name="five.tf" 
d="M541 -31q-221 0 -379 64l80 327h24l137 -278q11 -22 33 -27q37 -6 101 -6q149 0 247.5 107t98.5 284q0 145 -93 236.5t-262 91.5q-144 0 -249 -78h-23l14 742q322 -5 510 -5q70 0 95 8t49 38l61 96h25l-19 -211q-6 -66 -31.5 -85.5t-89.5 -19.5q-34 0 -214.5 1t-286.5 1
l-13 -456q129 80 277 80q215 0 336 -124.5t121 -320.5q0 -208 -147 -336.5t-402 -128.5z" />
    <glyph glyph-name="six.tf" 
d="M700 1470q203 0 342 -59l-77 -319h-25l-137 266q-10 21 -33 26q-44 7 -72 7q-190 0 -277.5 -178.5t-84.5 -524.5q46 87 142 142t218 55q175 0 289.5 -117.5t114.5 -314.5q0 -107 -37 -198.5t-100 -153.5t-147 -97t-177 -35q-228 0 -366 201t-138 545q0 360 153 557.5
t412 197.5zM629 778q-91 0 -170 -49.5t-121 -130.5q16 -285 97.5 -417t203.5 -132q117 0 190.5 106.5t73.5 266.5t-74.5 258t-199.5 98z" />
    <glyph glyph-name="seven.tf" 
d="M637 0h-227v29q134 359 288 737.5t215 499.5h-530q-37 0 -52.5 -6t-33.5 -27l-115 -164h-24l32 371h928v-25l-90 -102q-29 -33 -43 -60q-42 -100 -93 -269.5t-80.5 -283.5t-93.5 -374t-81 -326z" />
    <glyph glyph-name="eight.tf" 
d="M655 -31q-203 0 -338 109t-135 260q0 126 94.5 220.5t233.5 148.5l-49 26q-240 130 -240 357q0 117 61 205.5t156 131.5t207 43q110 0 204.5 -42t154 -123t59.5 -185q0 -66 -25.5 -122.5t-70 -97t-97 -68.5t-114.5 -46l92 -47q57 -30 100.5 -62t85 -76t64 -101.5
t22.5 -124.5q0 -167 -130.5 -286.5t-334.5 -119.5zM719 598l-160 82q-192 -119 -192 -328q0 -137 81.5 -220t208.5 -83q117 0 195 79t78 198q0 92 -52 153t-159 119zM389 1143q0 -162 193 -266l125 -66q184 104 184 307q0 134 -72.5 203.5t-175.5 69.5t-178.5 -67.5
t-75.5 -180.5z" />
    <glyph glyph-name="nine.tf" 
d="M530 -31q-201 0 -342 60l78 319h25l137 -266q11 -22 33 -27q37 -6 71 -6q191 0 278.5 178.5t84.5 524.5q-46 -87 -142 -142t-218 -55q-175 0 -289.5 117.5t-114.5 314.5q0 214 134 348.5t327 134.5q228 0 366 -200.5t138 -544.5q0 -360 -153.5 -558t-412.5 -198zM602 662
q91 0 170 49.5t121 130.5q-16 285 -97.5 417t-203.5 132q-117 0 -190.5 -106.5t-73.5 -266.5t74.5 -258t199.5 -98z" />
    <glyph glyph-name="cent.tf" 
d="M614 -31v205h-14q-177 14 -289 154.5t-112 371.5q0 230 113 378.5t302 181.5v210h82v-200h27q135 0 281 -49l-82 -301h-25l-121 241q-7 15 -12 19t-16 6q-14 2 -52 2v-887h33q149 0 262 121l23 -21q-40 -91 -122.5 -152t-195.5 -73v-207h-82zM395 739q0 -165 59.5 -272.5
t159.5 -147.5v852q-96 -40 -157.5 -150.5t-61.5 -281.5z" />
    <glyph glyph-name="cent.tf_alt" 
d="M993 422l23 -21q-40 -91 -122.5 -152t-195.5 -73v-207h-82v205h-14q-177 14 -290 154t-113 370t113.5 379t303.5 183v210h82v-200h27q135 0 281 -49l-82 -301h-25l-121 241q-7 15 -12 19t-16 6q-14 2 -48 2q-124 0 -215.5 -120.5t-91.5 -330.5q0 -209 95 -322.5
t239 -113.5q151 0 264 121z" />
    <glyph glyph-name="dollar.tf" 
d="M616 -242v211h-36q-219 0 -402 66v407h27l174 -342q10 -18 17.5 -25.5t25.5 -11.5q73 -16 151 -16q29 0 43 2v582l-112 47q-311 126 -311 389q0 165 115.5 271t307.5 128v211h82v-207q193 0 332 -38v-385h-26l-166 309q-13 27 -41 30q-47 7 -99 7v-576l84 -35
q64 -27 109 -50t92.5 -57t76 -71.5t46.5 -89.5t18 -115q0 -169 -112 -282.5t-314 -139.5v-219h-82zM375 1120q0 -87 54.5 -150.5t186.5 -119.5v534q-114 -21 -177.5 -93t-63.5 -171zM932 322q0 100 -58 162.5t-176 113.5v-539q108 27 171 96.5t63 166.5z" />
    <glyph glyph-name="dollar.tf_alt" 
d="M580 -31q-219 0 -402 66v407h27l174 -342q10 -18 17.5 -25.5t25.5 -11.5q73 -16 151 -16q163 0 261 75t98 200q0 104 -62 167t-192 117l-174 72q-311 126 -311 389q0 165 115.5 271t307.5 128v211h82v-207h9q184 0 323 -38v-385h-26l-166 309q-13 27 -41 30q-47 7 -92 7
q-154 0 -242 -77.5t-88 -195.5q0 -86 52 -148.5t167 -111.5l188 -78q64 -27 109 -50t92.5 -57t76 -71.5t46.5 -89.5t18 -115q0 -169 -112 -282.5t-314 -139.5v-219h-82v211h-36z" />
    <glyph glyph-name="yen.tf" 
d="M223 512v82h279l-352 676q-11 24 -21.5 35t-30.5 24l-110 82v29h553v-29l-166 -96q-20 -11 -6 -39l301 -596l274 573q8 15 7 23.5t-13 15.5l-184 119v29h510v-29l-174 -117q-21 -13 -28.5 -21.5t-21.5 -33.5l-309 -645h279v-82h-293v-141h293v-82h-293v-121
q0 -18 4 -25.5t18 -15.5l181 -98v-29h-607v29l181 98q14 8 18 15.5t4 25.5v121h-293v82h293v141h-293z" />
    <glyph glyph-name="sterling.tf" 
d="M129 639h154q-26 71 -38 108t-25 103t-13 127q0 229 139.5 361t366.5 132q155 0 280 -49l-88 -297h-24l-121 236q-9 19 -18 24t-35 5q-147 0 -236.5 -93.5t-89.5 -246.5q0 -63 15.5 -129.5t44.5 -154t40 -126.5h291v-78h-272q8 -62 8 -94q0 -59 -13.5 -106.5t-43 -86.5
t-54 -63t-67.5 -59h538q55 0 80 32l115 156h27l-27 -340h-934v31l117 112q40 43 65 108t25 140q0 70 -29 170h-178v78z" />
    <glyph glyph-name="Euro.tf" 
d="M61 784v82h152q32 281 183 442.5t407 161.5q143 0 332 -49v-379h-27l-174 304q-12 21 -20 27t-29 9q-47 7 -88 7q-329 0 -363 -523h363v-82h-367v-125h367v-81h-363q33 -527 357 -527q45 0 92 6q22 3 30 8.5t17 22.5l180 311h27v-379q-76 -25 -175.5 -38t-177.5 -13
q-133 0 -238 45.5t-173.5 128.5t-108.5 192t-53 243h-150v81h144v125h-144z" />
    <glyph glyph-name="florin.tf" 
d="M393 684h166l49 277q22 125 60.5 227t94 181.5t132.5 123t170 43.5q130 0 223 -45l-104 -274h-27l-67 213q-6 20 -14.5 26t-31.5 6q-125 0 -202 -202q-30 -82 -58 -246l-57 -330h264v-86h-278l-80 -469q-16 -95 -40 -179t-65 -169t-93.5 -146t-128 -99t-165.5 -38
q-125 0 -192 45l104 273h27l63 -199q9 -31 17 -39t28 -8q101 0 177 178q46 109 84 315l94 535h-150v86z" />
    <glyph glyph-name="zero.tosf" 
d="M614 -25q-103 0 -194.5 36.5t-160.5 104t-109.5 170t-40.5 226.5q0 125 41 230t110.5 173.5t160.5 106t193 37.5q103 0 194.5 -36.5t161 -104t110 -170t40.5 -226.5q0 -125 -41 -230t-111 -173.5t-161 -106t-193 -37.5zM614 57q138 0 216.5 125t78.5 326
q0 214 -77.5 341.5t-217.5 127.5q-138 0 -216.5 -125t-78.5 -326q0 -214 77.5 -341.5t217.5 -127.5z" />
    <glyph glyph-name="one.tosf" 
d="M973 0h-656v25l209 96q17 7 22 15t5 26v665q0 18 -5.5 25t-23.5 12l-207 66v24l420 105v-897q0 -18 5 -26t22 -15l209 -96v-25z" />
    <glyph glyph-name="two.tosf" 
d="M1026 0h-854v31q46 44 146.5 133t146.5 131q69 64 119.5 118t98.5 117t73.5 124.5t25.5 117.5q0 95 -57.5 150t-161.5 55q-41 0 -78 -6q-18 -3 -24 -7.5t-15 -21.5l-127 -237h-24l-70 274q180 80 363 80q192 0 295.5 -86.5t103.5 -216.5q0 -52 -20.5 -105.5t-50.5 -97.5
t-81 -92t-94 -82.5t-108 -77.5t-105 -67.5t-103 -61.5q-23 -13 -34 -20h457q35 0 44.5 4t27.5 30l110 154h25z" />
    <glyph glyph-name="three.tosf" 
d="M207 -324l-4 43q118 20 224 57t196 91.5t143 132t53 168.5q0 109 -74.5 164t-191.5 55q-44 0 -92 -10v45q62 13 117 39t103.5 67t76.5 102.5t28 135.5q0 103 -62 157t-165 54q-42 0 -72 -6q-15 -3 -21.5 -8t-14.5 -21l-127 -237h-25l-70 274q174 80 351 80q195 0 300 -81
t105 -210q0 -109 -76.5 -190.5t-195.5 -122.5q54 0 108 -17.5t100.5 -50.5t75.5 -89t29 -126q0 -151 -108.5 -260.5t-282.5 -169.5q-208 -70 -369 -70q-31 0 -59 4z" />
    <glyph glyph-name="four.tosf" 
d="M901 -303h-174v362h-592v25l586 950h180v-882h191v-93h-191v-362zM289 152h438v720z" />
    <glyph glyph-name="five.tosf" 
d="M625 -258q-168 -59 -363 -70q-41 0 -59 4l-4 43q172 25 311.5 86.5t227 161t87.5 219.5q0 121 -75 182.5t-193 61.5q-131 0 -215 -59h-25l13 657q88 -2 456 -2q55 0 78 12t51 49l50 60h24l-16 -178q-6 -61 -29.5 -84t-79.5 -23q-282 0 -438 2l-10 -397q36 25 106 46.5
t148 21.5q164 0 262 -90.5t98 -241.5q0 -160 -103.5 -276.5t-301.5 -184.5z" />
    <glyph glyph-name="six.tosf" 
d="M627 -27q-218 0 -345.5 158t-127.5 408q0 183 68 339t182.5 260t264.5 162t314 58q31 0 59 -4l5 -43q-149 -25 -273.5 -84.5t-220.5 -153t-149.5 -229.5t-53.5 -303q0 -219 79 -352.5t200 -133.5q101 0 170 95t69 258q0 161 -72 247t-186 86q-79 0 -147 -51l-17 21
q105 127 269 127q71 0 134.5 -27t114 -77t80 -129.5t29.5 -176.5q0 -198 -127 -326.5t-319 -128.5z" />
    <glyph glyph-name="seven.tosf" 
d="M569 -303h-204v24q137 335 286.5 672t218.5 477h-479q-31 0 -39.5 -4t-25.5 -28l-119 -148h-25l31 344h834v-24l-91 -117q-22 -27 -36 -68q-112 -311 -351 -1128z" />
    <glyph glyph-name="eight.tosf" 
d="M614 -25q-119 0 -219.5 42t-160.5 119t-60 171q0 62 27 117.5t74.5 98.5t101 75t117.5 59l-78 45q-84 49 -138.5 132t-54.5 184q0 151 115 244.5t280 93.5q158 0 266.5 -86.5t108.5 -220.5q0 -114 -80.5 -198.5t-197.5 -121.5l90 -51q56 -32 95 -60.5t77.5 -69.5
t58 -92.5t19.5 -113.5q0 -157 -122 -262t-319 -105zM688 543l-147 86q-83 -53 -136 -130.5t-53 -176.5q0 -118 73 -193.5t187 -75.5t186 72t72 172q0 70 -42.5 129.5t-139.5 116.5zM389 1059q0 -142 170 -240l109 -63q159 113 159 284q0 112 -62 174t-153 62
q-93 0 -158 -60.5t-65 -156.5z" />
    <glyph glyph-name="nine.tosf" 
d="M600 1059q145 0 253.5 -73.5t164 -200.5t55.5 -291q0 -183 -68 -339t-182.5 -260t-264.5 -162.5t-314 -58.5q-32 0 -60 4l-4 43q119 20 222 61.5t191 107.5t150.5 152t98 201t35.5 249q0 219 -79 352t-200 133q-101 0 -170.5 -94.5t-69.5 -257.5q0 -161 72 -247.5
t186 -86.5q80 0 148 51l16 -20q-105 -127 -268 -127q-71 0 -134.5 27t-114 76.5t-80 129t-29.5 176.5q0 198 127 326.5t319 128.5z" />
    <glyph glyph-name="dollar.tosf" 
d="M571 -31q-228 0 -415 66v407h26l178 -350q7 -14 14 -19t23 -10q63 -16 174 -16v535l-90 28q-61 19 -113.5 49t-97.5 74.5t-70.5 108t-25.5 139.5q0 154 103 254.5t294 118.5v153h82v-149q151 0 322 -39v-385h-27l-168 315q-13 23 -51 27q-69 6 -76 6v-522l86 -25
q75 -22 130.5 -49.5t103.5 -69t73 -101.5t25 -136q0 -164 -110 -272.5t-308 -131.5v-155h-82v149zM879 311q0 99 -52.5 153.5t-173.5 92.5v-502q226 38 226 256zM342 1038q0 -96 58.5 -157.5t170.5 -96.5v494q-112 -15 -170.5 -79t-58.5 -161z" />
    <glyph glyph-name="dollar.tosf_alt" 
d="M549 -31q-219 0 -393 66v407h26l178 -350q7 -14 14 -19t23 -10q63 -16 148 -16q334 0 334 264q0 102 -55.5 157t-186.5 95l-156 47q-61 19 -113.5 49t-97.5 74.5t-70.5 108t-25.5 139.5q0 154 103 254.5t294 118.5v153h82v-149q151 0 322 -39v-385h-27l-168 315
q-13 23 -51 27q-41 6 -88 6q-146 0 -222.5 -66.5t-76.5 -177.5q0 -99 61.5 -159.5t180.5 -96.5l155 -47q75 -22 130.5 -49.5t103.5 -69t73 -101.5t25 -136q0 -164 -110 -272.5t-308 -131.5v-155h-82v149h-22z" />
    <glyph glyph-name="cent.tosf" 
d="M623 -227v204h-15q-177 14 -289 146.5t-112 353.5t113.5 363.5t302.5 175.5v211h82v-201h26q135 0 281 -49l-82 -291h-25l-121 232q-7 14 -12 18t-16 6q-14 2 -51 2v-840h32q149 0 262 121l23 -20q-40 -92 -122 -152.5t-195 -72.5v-207h-82zM403 516q0 -156 60 -256
t160 -137v805q-96 -36 -158 -143t-62 -269z" />
    <glyph glyph-name="cent.tosf_alt" 
d="M207 477q0 221 113.5 363.5t302.5 175.5v211h82v-201h26q135 0 281 -49l-82 -291h-25l-121 232q-7 14 -12 18t-16 6q-14 2 -45 2q-59 0 -113.5 -27.5t-98 -79.5t-70 -135.5t-26.5 -185.5q0 -200 94.5 -306t239.5 -106q149 0 262 121l23 -20q-40 -92 -122 -152.5
t-195 -72.5v-207h-82v204h-15q-177 14 -289 146.5t-112 353.5z" />
    <glyph glyph-name="sterling.tosf" 
d="M133 623h139q-61 157 -61 282q0 135 65.5 240t171.5 159t232 54q162 0 287 -49l-88 -297h-25l-121 233q-9 21 -18.5 26t-40.5 5q-129 0 -209 -85t-80 -224q0 -42 10 -89.5t21.5 -81t32 -89t30.5 -84.5h297v-82h-274q10 -55 10 -99q0 -52 -14 -95t-43 -79.5t-54 -59.5
t-67 -56h549q28 0 39.5 4.5t27.5 25.5l117 158h27l-27 -340h-934v31l117 112q90 90 90 230q0 61 -35 168h-172v82z" />
    <glyph glyph-name="yen.tosf" 
d="M872 0h-606v29l180 98q14 8 18.5 15.5t4.5 25.5v129h-293v82h293v131h-293v82h242l-305 579q-20 37 -52 62l-90 76v28h514v-28l-147 -92q-20 -10 -6 -39l293 -566l286 549q12 25 -8 35l-178 113v28h502v-28l-172 -111q-22 -14 -31.5 -24.5t-19.5 -34.5l-287 -547h246v-82
h-293v-131h293v-82h-293v-129q0 -18 4 -25.5t18 -15.5l180 -98v-29z" />
    <glyph glyph-name="Euro.tosf" 
d="M825 -31q-139 0 -249 41t-183 116.5t-117.5 172.5t-62.5 217h-158v82h148q-2 27 -2 82q0 39 2 59h-148v82h156q20 120 68 216.5t124.5 169t187.5 112t249 39.5q174 0 325 -47v-393h-24l-174 315q-15 30 -52 35q-36 8 -77 8q-98 0 -175.5 -34.5t-129.5 -97t-84 -143
t-46 -180.5h449v-82h-457v-51q0 -32 4 -90h453v-82h-444q72 -465 436 -465q31 0 61 6q29 4 39 10t19 23l178 320h24v-394q-71 -23 -168 -35t-172 -12z" />
    <glyph glyph-name="parenleft.subs" horiz-adv-x="509" 
d="M276 360q0 -161 41 -290.5t123 -206.5l-10 -19q-140 62 -228.5 204.5t-88.5 311.5t88.5 312t228.5 205l10 -19q-82 -77 -123 -207t-41 -291z" />
    <glyph glyph-name="parenright.subs" horiz-adv-x="509" 
d="M233 360q0 161 -40.5 291t-122.5 207l10 19q140 -62 228.5 -205t88.5 -312t-88.5 -311.5t-228.5 -204.5l-10 19q82 77 122.5 206.5t40.5 290.5z" />
    <glyph glyph-name="backslash.case" horiz-adv-x="798" 
d="M655 -205l-610 1815l98 28l611 -1814z" />
    <glyph glyph-name="bar.case" horiz-adv-x="704" 
d="M408 -307h-111v1995h111v-1995z" />
    <glyph glyph-name="braceleft.case" horiz-adv-x="770" 
d="M551 -215q-137 0 -224 75t-87 228q0 50 43 459q9 79 -39 123.5t-142 44.5v28q94 0 142 44.5t39 123.5q-43 426 -43 459q0 156 86 229.5t225 73.5q65 0 131 -16v-29q-148 -1 -214.5 -59t-66.5 -166q0 -46 41 -461q9 -91 -32 -141.5t-142 -69.5v-4q101 -19 142 -69.5
t32 -141.5q-41 -415 -41 -459q0 -111 68 -168.5t213 -58.5v-29q-66 -16 -131 -16z" />
    <glyph glyph-name="braceright.case" horiz-adv-x="770" 
d="M219 -215q-65 0 -131 16v29q145 1 213 58.5t68 168.5q0 44 -41 459q-9 91 32 141.5t142 69.5v4q-101 19 -142 69.5t-32 141.5q41 415 41 461q0 108 -66.5 166t-214.5 59v29q66 16 131 16q139 0 225 -73.5t86 -229.5q0 -33 -43 -459q-9 -79 39 -123.5t142 -44.5v-28
q-94 0 -142 -44.5t-39 -123.5q43 -409 43 -459q0 -153 -87 -228t-224 -75z" />
    <glyph glyph-name="bracketleft.case" horiz-adv-x="770" 
d="M682 -199l-420 -14v1882l420 -12v-29l-248 -69q-17 -4 -22.5 -12t-5.5 -27v-1581q0 -19 5.5 -27t22.5 -12l248 -70v-29z" />
    <glyph glyph-name="bracketright.case" horiz-adv-x="770" 
d="M508 -213l-420 14v29l248 70q17 5 23 12.5t6 26.5v1581q0 19 -6 26.5t-23 12.5l-248 69v29l420 12v-1882z" />
    <glyph glyph-name="emdash.case" horiz-adv-x="2150" 
d="M2089 676h-2028v110h2028v-110z" />
    <glyph glyph-name="endash.case" horiz-adv-x="1126" 
d="M1065 676h-1004v110h1004v-110z" />
    <glyph glyph-name="guillemotleft.case" horiz-adv-x="894" 
d="M440 338l-368 391v16l368 392l19 -19l-191 -381l191 -381zM784 338l-368 391v16l368 392l19 -19l-191 -381l191 -381z" />
    <glyph glyph-name="guillemotright.case" horiz-adv-x="894" 
d="M479 729l-368 -391l-19 18l191 381l-191 381l19 19l368 -392v-16zM823 729l-368 -391l-19 18l191 381l-191 381l19 19l368 -392v-16z" />
    <glyph glyph-name="guilsinglleft.case" horiz-adv-x="550" 
d="M440 338l-368 391v16l368 392l19 -19l-191 -381l191 -381z" />
    <glyph glyph-name="guilsinglright.case" horiz-adv-x="550" 
d="M479 729l-368 -391l-19 18l191 381l-191 381l19 19l368 -392v-16z" />
    <glyph glyph-name="hyphen.case" horiz-adv-x="819" 
d="M123 666v131h573v-131h-573z" />
    <glyph glyph-name="parenleft.case" horiz-adv-x="770" 
d="M354 727q0 -618 328 -905l-16 -27q-240 111 -366 353.5t-126 578.5t126 578.5t366 353.5l16 -27q-328 -287 -328 -905z" />
    <glyph glyph-name="parenright.case" horiz-adv-x="770" 
d="M416 727q0 618 -328 905l16 27q240 -111 366 -353.5t126 -578.5t-126 -578.5t-366 -353.5l-16 27q328 287 328 905z" />
    <glyph glyph-name="slash.case" horiz-adv-x="798" 
d="M754 1610l-611 -1815l-98 29l610 1814z" />
    <glyph glyph-name="questiondown.case" horiz-adv-x="860" 
d="M483 999h25q47 -66 47 -127q0 -100 -123 -217l-98 -92q-55 -54 -84 -112.5t-29 -135.5q0 -115 70.5 -190.5t193.5 -75.5q43 0 76 8q19 6 26.5 13t18.5 28l115 234h24l99 -266q-172 -97 -375 -97q-195 0 -317.5 100.5t-122.5 260.5q0 164 141 295l199 178q130 114 114 196
zM492 1458q60 0 99.5 -41.5t39.5 -101.5q0 -61 -39.5 -102.5t-99.5 -41.5t-100 42t-40 102t40 101.5t100 41.5z" />
    <glyph glyph-name="exclamdown.case" horiz-adv-x="585" 
d="M281 1063h24l129 -1063h-284zM436 1315q0 -61 -39.5 -102.5t-99.5 -41.5t-99.5 41.5t-39.5 102.5q0 60 39.5 101.5t99.5 41.5t99.5 -41.5t39.5 -101.5z" />
    <glyph glyph-name="plus.case" 
d="M561 270v400h-397v102h397v399h107v-399h397v-102h-397v-400h-107z" />
    <glyph glyph-name="multiply.case" 
d="M946 293l-334 334l-331 -332l-72 72l332 331l-334 334l76 76l333 -334l332 332l72 -72l-332 -332l334 -333z" />
    <glyph glyph-name="minus.case" 
d="M1065 670h-901v102h901v-102z" />
    <glyph glyph-name="notequal.case" 
d="M1065 494h-524l-115 -205l-86 49l88 156h-264v102h321l144 256h-465v102h524l125 222l86 -52l-96 -170h262v-102h-322l-143 -256h465v-102z" />
    <glyph glyph-name="approxequal.case" 
d="M850 809q-62 0 -129.5 22.5t-116.5 50t-109 50t-108 22.5q-120 0 -188 -110l-86 53q44 71 111 114.5t155 43.5q62 0 129.5 -23t116.5 -50t109 -50t108 -23q119 0 188 111l86 -53q-44 -71 -111 -114.5t-155 -43.5zM850 444q-62 0 -129.5 23t-116.5 50t-109 50t-108 23
q-119 0 -188 -111l-86 53q44 71 111 114.5t155 43.5q62 0 129.5 -22.5t116.5 -50t109 -50t108 -22.5q120 0 188 110l86 -53q-44 -71 -111 -114.5t-155 -43.5z" />
    <glyph glyph-name="divide.case" 
d="M489 1016q0 59 34 94t91 35t91 -34.5t34 -92.5q0 -59 -34 -95t-91 -36t-91 35t-34 94zM1065 670h-901v102h901v-102zM489 426q0 59 34 94t91 35t91 -34.5t34 -92.5q0 -59 -34 -95t-91 -36t-91 35t-34 94z" />
    <glyph glyph-name="plusminus.case" 
d="M563 496v303h-399v102h399v293h107v-293h395v-102h-395v-303h-107zM1065 264h-901v103h901v-103z" />
    <glyph glyph-name="lessequal.case" 
d="M997 541l-833 290v25l833 291l37 -96l-596 -203v-8l596 -203zM1065 264h-901v103h901v-103z" />
    <glyph glyph-name="greaterequal.case" 
d="M231 541l-36 96l596 203v8l-596 203l36 96l834 -291v-25zM1065 264h-901v103h901v-103z" />
    <glyph glyph-name="uni00AD.case" horiz-adv-x="819" 
d="M123 666v131h573v-131h-573z" />
    <glyph glyph-name="less.case" 
d="M975 340l-811 371v24l811 371l37 -94l-629 -287v-4l629 -287z" />
    <glyph glyph-name="equal.case" 
d="M1065 852h-901v102h901v-102zM1065 494h-901v102h901v-102z" />
    <glyph glyph-name="greater.case" 
d="M254 340l-37 94l629 287v4l-629 287l37 94l811 -371v-24z" />
    <glyph glyph-name="a.smcp" horiz-adv-x="1165" 
d="M-16 0v25l147 108q18 12 25.5 21t13.5 26l299 746q10 25 -2 47l-66 100v25h232l389 -951q7 -18 14 -26t23 -19l112 -77v-25h-505v25l143 98q16 10 8 31l-74 186h-419l-64 -162q-6 -17 -2 -27t21 -22l143 -104v-25h-438zM532 868l-176 -446h355z" />
    <glyph glyph-name="b.smcp" horiz-adv-x="1136" 
d="M63 1098h541q174 0 280.5 -72t106.5 -203q0 -101 -70 -167.5t-180 -75.5q139 -18 221 -88t82 -189q0 -144 -117 -223.5t-311 -79.5h-553v25l154 92q14 9 18.5 16.5t4.5 24.5v782q0 17 -4.5 24.5t-18.5 16.5l-154 92v25zM594 82q244 0 244 221q0 113 -68 165t-180 52h-160
v-418q0 -14 4 -17t19 -3h141zM430 995v-397h154q91 0 146.5 52.5t55.5 166.5q0 99 -53.5 149t-148.5 50h-131q-14 0 -18.5 -4t-4.5 -17z" />
    <glyph glyph-name="c.smcp" horiz-adv-x="1114" 
d="M666 -23q-144 0 -256.5 43.5t-183.5 121.5t-107.5 181.5t-36.5 227.5q0 252 160.5 410.5t435.5 158.5q141 0 305 -37v-360h-22l-170 285q-7 15 -13.5 19t-25.5 7q-25 4 -78 4q-186 0 -278.5 -129.5t-92.5 -351.5q0 -237 92.5 -367.5t280.5 -130.5q51 0 76 4q18 3 24.5 7
t14.5 16l174 291h20v-361q-139 -39 -319 -39z" />
    <glyph glyph-name="d.smcp" horiz-adv-x="1247" 
d="M561 82q61 0 115.5 16t103.5 52t84.5 90.5t56.5 136t21 182.5q0 222 -96.5 339.5t-272.5 117.5h-120q-14 0 -18.5 -4t-4.5 -19v-891q0 -14 4 -17t19 -3h108zM63 1098h527q261 0 418 -142t157 -391q0 -116 -36.5 -212.5t-96.5 -160.5t-139 -108.5t-161 -64t-165 -19.5
h-504v25l154 92q14 9 18.5 16.5t4.5 24.5v782q0 17 -4.5 24.5t-18.5 16.5l-154 92v25z" />
    </font>
</defs>
</svg>
